<?xml version="1.0" encoding="UTF-8"?>
<svg width="182px" height="166px" viewBox="0 0 182 166" version="1.1" xmlns="http://www.w3.org/2000/svg" xmlns:xlink="http://www.w3.org/1999/xlink">
    <!-- Generator: Sketch 53.2 (72643) - https://sketchapp.com -->
    <title>Group 8</title>
    <desc>Created with Sketch.</desc>
    <defs>
        <linearGradient x1="35.0825731%" y1="55.2101871%" x2="0.582401246%" y2="62.5181809%" id="linearGradient-1">
            <stop stop-color="#DFE8FA" offset="0%"></stop>
            <stop stop-color="#C7D3EE" offset="100%"></stop>
        </linearGradient>
        <linearGradient x1="23.574666%" y1="67.2746343%" x2="168.717199%" y2="37.6513356%" id="linearGradient-2">
            <stop stop-color="#19BD80" offset="0%"></stop>
            <stop stop-color="#1AC283" offset="13%"></stop>
            <stop stop-color="#1BCF8B" offset="58%"></stop>
            <stop stop-color="#1CD38D" offset="100%"></stop>
        </linearGradient>
        <linearGradient x1="80.1930147%" y1="56.2283737%" x2="119.515453%" y2="43.7716263%" id="linearGradient-3">
            <stop stop-color="#1CD38D" offset="0%"></stop>
            <stop stop-color="#1BCF8B" offset="42%"></stop>
            <stop stop-color="#1AC283" offset="87%"></stop>
            <stop stop-color="#19BD80" offset="100%"></stop>
        </linearGradient>
        <linearGradient x1="16.4026111%" y1="44.2431043%" x2="72.6181864%" y2="54.5162983%" id="linearGradient-4">
            <stop stop-color="#1ED290" offset="0%"></stop>
            <stop stop-color="#1DCF8E" offset="39%"></stop>
            <stop stop-color="#1AC687" offset="60%"></stop>
            <stop stop-color="#17BB7E" offset="100%"></stop>
        </linearGradient>
        <linearGradient x1="80.1930147%" y1="54.4359644%" x2="119.515453%" y2="45.5640356%" id="linearGradient-5">
            <stop stop-color="#1CD38D" offset="0%"></stop>
            <stop stop-color="#1BCF8B" offset="42%"></stop>
            <stop stop-color="#1AC283" offset="87%"></stop>
            <stop stop-color="#19BD80" offset="100%"></stop>
        </linearGradient>
        <linearGradient x1="38.2788627%" y1="57.4191225%" x2="11.1708866%" y2="67.8254476%" id="linearGradient-6">
            <stop stop-color="#DFE8FA" offset="0%"></stop>
            <stop stop-color="#C7D3EE" offset="100%"></stop>
        </linearGradient>
        <linearGradient x1="35.1655418%" y1="57.4191225%" x2="0.857255263%" y2="67.8254476%" id="linearGradient-7">
            <stop stop-color="#DFE8FA" offset="0%"></stop>
            <stop stop-color="#C7D3EE" offset="100%"></stop>
        </linearGradient>
        <linearGradient x1="101.208044%" y1="-13.4982639%" x2="28.0366228%" y2="67.8254476%" id="linearGradient-8">
            <stop stop-color="#DFE8FA" offset="0%"></stop>
            <stop stop-color="#C7D3EE" offset="100%"></stop>
        </linearGradient>
        <linearGradient x1="35.2036065%" y1="57.4191225%" x2="0.983353738%" y2="67.8254476%" id="linearGradient-9">
            <stop stop-color="#C7D3EE" offset="0%"></stop>
            <stop stop-color="#DFE8FA" offset="100%"></stop>
        </linearGradient>
        <linearGradient x1="35.0825731%" y1="57.4191225%" x2="0.582401246%" y2="67.8254476%" id="linearGradient-10">
            <stop stop-color="#DFE8FA" offset="0%"></stop>
            <stop stop-color="#C7D3EE" offset="100%"></stop>
        </linearGradient>
        <linearGradient x1="48.3425081%" y1="57.4191225%" x2="38.5525174%" y2="166.297743%" id="linearGradient-11">
            <stop stop-color="#DFE8FA" offset="0%"></stop>
            <stop stop-color="#C7D3EE" offset="100%"></stop>
        </linearGradient>
    </defs>
    <g id="Page-1" stroke="none" stroke-width="1" fill="none" fill-rule="evenodd">
        <g id="FATTORINI" transform="translate(-194.000000, -656.000000)" fill-rule="nonzero">
            <g id="Group-8" transform="translate(182.000000, 633.147675)">
                <path d="M109.163072,165.560783 C139.857604,165.560783 167.000007,188.885796 183.465876,165.560783 C193.94008,150.723369 203.127355,132.438997 200.094093,113.057734 C197.793371,98.3570866 179.395661,103.235722 165.119878,86.0007172 C143.224149,59.5662305 144.6,22 109.163072,22 C75.3477565,22 86.4139512,55.3244289 64.7680025,79.7307973 C47.7103632,98.9637279 23.5261343,93.0370611 18.2320501,113.057734 C13.2970901,131.720305 24.1190067,149.927929 34.1771619,164.579545 C50.5692638,188.457759 78.0401853,165.560783 109.163072,165.560783 Z" id="Oval" fill="url(#linearGradient-1)" opacity="0.2" transform="translate(108.840810, 98.963728) rotate(15.000000) translate(-108.840810, -98.963728) "></path>
                <g id="Group-2" transform="translate(43.000000, 52.852325)">
                    <path d="M125.045141,77 L5.9546036,77 C2.67961,77 0,74.3345508 0,71.0768643 L0,5.92313566 C0,2.66544922 2.67961,0 5.9546036,0 L125.045396,0 C128.32039,0 131,2.66544922 131,5.92313566 L131,71.0768643 C130.999744,74.3345508 128.320134,77 125.045141,77 Z" id="Path" fill="url(#linearGradient-2)"></path>
                    <path d="M110.213879,53 C103.384099,53 97.1483903,56.2999968 93.5849823,61.6998743 C90.6156459,60.2001805 87.3492737,59.0000645 83.4890852,59.0000645 C73.0961523,59.0000645 64.4846682,66.800174 63,77 L125.061072,77 C128.030408,77 130.405929,74.9001192 131,71.8999581 C129.812112,61.4000387 120.903848,53 110.213879,53 Z" id="Path" fill="url(#linearGradient-3)"></path>
                    <path d="M113.100102,71 L17.8998977,71 C17.8998977,64.4999746 12.5450077,59.1818874 6,59.1818874 L6,17.8181126 C12.5450077,17.8181126 17.8998977,12.5000254 17.8998977,6 L113.100102,6 C113.100102,12.5000254 118.454992,17.8181126 125,17.8181126 L125,59.1818874 C118.454992,59.1818874 113.100102,64.4999746 113.100102,71 Z" id="Path" fill="url(#linearGradient-4)"></path>
                    <g id="Group" transform="translate(24.000000, 12.000000)">
                        <path d="M86.3089747,41.9812821 C79.4655215,41.9812821 73.2173291,45.2633333 69.6467873,50.6338462 C66.6715063,49.1423077 63.3985949,47.9487179 59.5306785,47.9487179 C51.1995848,47.9487179 44.058757,52.7225641 40.7858456,59.8833333 L89.2845114,59.8833333 C89.2845114,53.3192308 94.3426937,48.2469231 100.888516,47.9487179 C97.0203443,44.3682051 91.9624177,41.9812821 86.3089747,41.9812821 Z" id="Path" fill="url(#linearGradient-5)"></path>
                        <ellipse id="Oval" fill="url(#linearGradient-6)" cx="41.678481" cy="27.0628205" rx="23.8030152" ry="26.8530769"></ellipse>
                        <ellipse id="Oval" fill="url(#linearGradient-7)" cx="5.97408608" cy="27.0628205" rx="5.95081772" ry="5.9674359"></ellipse>
                        <ellipse id="Oval" fill="url(#linearGradient-7)" cx="77.3828759" cy="27.0628205" rx="5.95081772" ry="5.9674359"></ellipse>
                    </g>
                    <path d="M67.9999355,35.9997852 L61.9998066,35.9997852 C60.1997422,35.9997852 58.9998711,34.7996477 58.9998711,32.9998281 C58.9998711,31.1997508 60.2,29.9998711 61.9998066,29.9998711 L70.9998711,29.9998711 C72.7999355,29.9998711 73.9998066,28.7997336 73.9998066,26.9999141 C73.9998066,25.1998367 72.7996777,23.999957 70.9998711,23.999957 L67.9999355,23.999957 C67.9999355,22.1998797 66.7998066,21 65,21 C63.1999355,21 62.0000645,22.2001375 62.0000645,23.999957 C56.8999678,23.999957 53,27.8999527 53,33.0000859 C53,38.1002191 56.8999678,42.0002148 62.0000645,42.0002148 L68.0001934,42.0002148 C69.8002578,42.0002148 71.0001289,43.2003523 71.0001289,45.0001719 C71.0001289,46.8002492 69.8,48.0001289 68.0001934,48.0001289 L59.0001289,48.0001289 C57.2000645,48.0001289 56.0001934,49.2002664 56.0001934,51.0000859 C56.0001934,52.8001633 57.2003223,54.000043 59.0001289,54.000043 L62.0000645,54.000043 C62.0000645,55.8001203 63.2001934,57 65,57 C66.8000645,57 67.9999355,55.7998625 67.9999355,54.000043 C73.1000322,54.000043 77,50.1000473 77,44.9999141 C77,39.8997809 73.1000322,35.9997852 67.9999355,35.9997852 Z" id="Path" fill="url(#linearGradient-8)"></path>
                    <path d="M89.2070529,60 C85.4827678,63.9795328 83,69.1836788 83,75 L83.310446,75 C84.8621425,75 86.1036598,73.7753867 86.4138391,72.2448174 C87.0344644,67.9590656 89.2070529,64.2854888 92,61.5305693 C91.0691954,61.2243502 90.1381242,60.6121751 89.2070529,60 Z" id="Path" fill="#FFCB5B"></path>
                    <path d="M77,100.993052 L77,100.993052 C88.6999816,101.297398 98,91.5614743 98,80 L97.6999079,80 C96.1999632,80 94.9998527,81.2171212 94.7000184,82.7383265 C94.1000921,86.9978583 91.9999632,90.9530445 89.0000737,93.691371 C86.6001105,96.1253518 83.3001289,97.6465572 79.7000552,98.2552485 C78.2001105,98.254987 77,99.4718467 77,100.993052 Z" id="Path" fill="#F6B545"></path>
                    <path d="M69,80.993052 L69,80.993052 C80.6999816,81.2973977 90,71.5614743 90,60 L89.6999079,60 C88.1999632,60 86.9998527,61.2171212 86.7000184,62.7383265 C86.1000921,66.9978583 83.9999632,70.9530445 81.0000737,73.691371 C78.6001105,76.1253518 75.3001289,77.6465572 71.7000552,78.2552485 C70.2001105,78.254987 69,79.4718467 69,80.993052 Z" id="Path-Copy-2" fill="#F6B545" transform="translate(79.500000, 70.500000) rotate(-180.000000) translate(-79.500000, -70.500000) "></path>
                    <g id="Group-Copy" transform="translate(84.000000, 78.000000) rotate(-180.000000) translate(-84.000000, -78.000000) translate(63.000000, 57.000000)" fill="url(#linearGradient-9)">
                        <ellipse id="Oval" cx="20.9300854" cy="20.9844857" rx="20.8604268" ry="20.9455714"></ellipse>
                    </g>
                    <path d="M84,57 C72.3000184,57 63,66.3000184 63,78 C63,89.6999816 72.3000184,99 84,99 C95.6999816,99 105,89.6999816 105,78 C105,66.3000184 95.6999816,57 84,57 Z M84,92.9999632 C75.6,92.9999632 69.0000368,86.4 69.0000368,78 C69.0000368,69.6 75.6,63.0000368 84,63.0000368 C92.4,63.0000368 98.9999632,69.6 98.9999632,78 C98.9999632,86.4 92.4,92.9999632 84,92.9999632 Z" id="Shape-Copy" fill="url(#linearGradient-10)" transform="translate(84.000000, 78.000000) rotate(-180.000000) translate(-84.000000, -78.000000) "></path>
                    <path d="M84,87 C82.1998969,87 81,85.7998797 81,84.0000859 L81,71.9999141 C81,70.1998625 82.2001547,69 84,69 C85.8001031,69 87,70.2001203 87,71.9999141 L87,83.9998281 C87.0002578,85.7998797 85.8001031,87 84,87 Z" id="Path-Copy-3" fill="url(#linearGradient-11)" transform="translate(84.000000, 78.000000) rotate(-180.000000) translate(-84.000000, -78.000000) "></path>
                    <path d="M104,97.993052 L104,97.993052 C115.699982,98.2973977 125,88.5614743 125,77 L124.699908,77 C123.199963,77 121.999853,78.2171212 121.700018,79.7383265 C121.100092,83.9978583 118.999963,87.9530445 116.000074,90.691371 C113.60011,93.1253518 110.300129,94.6465572 106.700055,95.2552485 C105.20011,95.254987 104,96.4718467 104,97.993052 Z" id="Path-Copy-4" fill="#F6B545"></path>
                    <g id="Group-Copy-2" transform="translate(111.000000, 75.000000) rotate(-180.000000) translate(-111.000000, -75.000000) translate(90.000000, 54.000000)" fill="url(#linearGradient-9)">
                        <ellipse id="Oval" cx="20.9300854" cy="20.9844857" rx="20.8604268" ry="20.9455714"></ellipse>
                    </g>
                    <path d="M111,54 C99.3000184,54 90,63.3000184 90,75 C90,86.6999816 99.3000184,96 111,96 C122.699982,96 132,86.6999816 132,75 C132,63.3000184 122.699982,54 111,54 Z M111,89.9999632 C102.6,89.9999632 96.0000368,83.4 96.0000368,75 C96.0000368,66.6 102.6,60.0000368 111,60.0000368 C119.4,60.0000368 125.999963,66.6 125.999963,75 C125.999963,83.4 119.4,89.9999632 111,89.9999632 Z" id="Shape-Copy-2" fill="url(#linearGradient-10)" transform="translate(111.000000, 75.000000) rotate(-180.000000) translate(-111.000000, -75.000000) "></path>
                    <path d="M111,84 C109.199897,84 108,82.7998797 108,81.0000859 L108,68.9999141 C108,67.1998625 109.200155,66 111,66 C112.800103,66 114,67.2001203 114,68.9999141 L114,80.9998281 C114.000258,82.7998797 112.800103,84 111,84 Z" id="Path-Copy-5" fill="url(#linearGradient-11)" transform="translate(111.000000, 75.000000) rotate(-180.000000) translate(-111.000000, -75.000000) "></path>
                    <g id="Group" transform="translate(71.000000, 77.000000)" fill="url(#linearGradient-9)">
                        <ellipse id="Oval" cx="20.9300854" cy="20.9844857" rx="20.8604268" ry="20.9455714"></ellipse>
                    </g>
                    <path d="M92,77 C80.3000184,77 71,86.3000184 71,98 C71,109.699982 80.3000184,119 92,119 C103.699982,119 113,109.699982 113,98 C113,86.3000184 103.699982,77 92,77 Z M92,112.999963 C83.6,112.999963 77.0000368,106.4 77.0000368,98 C77.0000368,89.6 83.6,83.0000368 92,83.0000368 C100.4,83.0000368 106.999963,89.6 106.999963,98 C106.999963,106.4 100.4,112.999963 92,112.999963 Z" id="Shape" fill="url(#linearGradient-10)"></path>
                    <path d="M92,107 C90.1998969,107 89,105.79988 89,104.000086 L89,91.9999141 C89,90.1998625 90.2001547,89 92,89 C93.8001031,89 95,90.2001203 95,91.9999141 L95,103.999828 C95.0002578,105.79988 93.8001031,107 92,107 Z" id="Path" fill="url(#linearGradient-11)"></path>
                </g>
            </g>
        </g>
    </g>
</svg>