<?xml version="1.0" encoding="UTF-8"?>
<svg width="32px" height="21px" viewBox="0 0 32 21" version="1.1" xmlns="http://www.w3.org/2000/svg" xmlns:xlink="http://www.w3.org/1999/xlink">
    <!-- Generator: Sketch 52.5 (67469) - http://www.bohemiancoding.com/sketch -->
    <title>Group 3</title>
    <desc>Created with Sketch.</desc>
    <defs>
        <polygon id="path-1" points="0.0002 0.0001 32 0.0001 32 21 0.0002 21"></polygon>
    </defs>
    <g id="Page-1" stroke="none" stroke-width="1" fill="none" fill-rule="evenodd">
        <g id="INDIRIZZO-NON-DISPONIBILE" transform="translate(-434.000000, -564.000000)">
            <g id="Group-3" transform="translate(434.000000, 564.000000)">
                <mask id="mask-2" fill="white">
                    <use xlink:href="#path-1"></use>
                </mask>
                <g id="Clip-2"></g>
                <path d="M17.2002,13.6011 C16.8502,13.8631 16.4352,14.0011 16.0002,14.0011 C15.5642,14.0011 15.1492,13.8631 14.8002,13.6011 L10.6652,10.5001 L9.8322,9.8751 L2.0002,4.0011 L2.0002,4.0001 C2.0002,2.8971 2.8972,2.0001 4.0002,2.0001 L28.0002,2.0001 C29.1022,2.0001 30.0002,2.8971 30.0002,4.0001 L17.2002,13.6011 Z M30.0002,15.7491 L23.0012,10.5001 L30.0002,5.2501 L30.0002,15.7491 Z M30.0002,16.9991 C30.0002,18.1031 29.1022,18.9991 28.0002,18.9991 L4.0002,18.9991 C2.8972,18.9991 2.0002,18.1031 2.0002,16.9991 L9.8322,11.1251 L14.2002,14.4021 C14.7332,14.8001 15.3662,15.0011 16.0002,15.0011 C16.6342,15.0011 17.2662,14.8001 17.8002,14.4021 L22.1682,11.1251 L30.0002,16.9991 Z M2.0002,5.2501 L8.9992,10.5001 L2.0002,15.7491 L2.0002,5.2501 Z M28.0002,0.0001 L4.0002,0.0001 C1.7912,0.0001 0.0002,1.7911 0.0002,4.0001 L0.0002,16.9991 C0.0002,19.2081 1.7912,21.0001 4.0002,21.0001 L28.0002,21.0001 C30.2092,21.0001 32.0002,19.2081 32.0002,16.9991 L32.0002,4.0001 C32.0002,1.7911 30.2092,0.0001 28.0002,0.0001 Z" id="Fill-1" fill="#788696" mask="url(#mask-2)"></path>
            </g>
        </g>
    </g>
</svg>