<?xml version="1.0" encoding="UTF-8"?>
<svg width="1366px" height="986px" viewBox="0 0 1366 986" version="1.1" xmlns="http://www.w3.org/2000/svg" xmlns:xlink="http://www.w3.org/1999/xlink">
    <!-- Generator: Sketch 52.5 (67469) - http://www.bohemiancoding.com/sketch -->
    <title>Path 4</title>
    <desc>Created with Sketch.</desc>
    <defs>
        <path d="M720.619792,1095.59209 C852.782363,1085.24887 773.737272,1233.33812 847.243743,1316.05418 C896.248057,1371.19821 850.74463,1448.13498 710.733462,1546.86447 C809.948749,1599.71939 859.556393,1635.92297 859.556393,1655.47521 C859.556393,1684.80357 823.281436,1761.73871 692.254095,1761.73871 C604.902534,1761.73871 582.537721,1734.11886 625.159657,1678.87914 C621.246361,1549.80554 606.005777,1470.25588 579.437903,1440.23015 C557.370809,1415.29098 -59.3316888,934.50573 352.944157,884.830124 C765.220003,835.154519 588.457222,1105.93531 720.619792,1095.59209 Z" id="path-1"></path>
    </defs>
    <g id="Page-1" stroke="none" stroke-width="1" fill="none" fill-rule="evenodd">
        <g id="HOME-HOVER" transform="translate(0.000000, -2079.000000)">
            <g id="Path-4" transform="translate(-589.000000, 1926.000000)">
                <path d="M2007,956.226621 C1993.9708,736.648656 1916.02562,626.859674 1773.16444,626.859674 C1501.85963,626.859674 1478.00605,783.014303 1266.52074,690.608115 C1065.07436,602.588328 1146.67563,324.385734 846.632549,271.754914 C831.680125,269.132096 815.779905,267.069475 798.849626,265.618506 C561.074946,245.240586 444.157167,156.701084 448.096292,0 L448.096292,1365.90625 L2007,1365.90625 L2007,956.226621 Z" fill="#F5F5F5" transform="translate(1227.500000, 682.953125) scale(-1, 1) translate(-1227.500000, -682.953125) "></path>
                <rect id="line" fill="#EEEEEE" transform="translate(1309.000000, 1022.000000) scale(1, -1) translate(-1309.000000, -1022.000000) " x="777" y="1021" width="1064" height="2"></rect>
                <mask id="mask-2" fill="white">
                    <use xlink:href="#path-1"></use>
                </mask>
                <use id="Mask" fill="#FFFFFF" transform="translate(538.801093, 1320.238714) scale(-1, 1) rotate(-42.000000) translate(-538.801093, -1320.238714) " xlink:href="#path-1"></use>
            </g>
        </g>
    </g>
</svg>