<?xml version="1.0" encoding="UTF-8"?>
<svg width="182px" height="166px" viewBox="0 0 182 166" version="1.1" xmlns="http://www.w3.org/2000/svg" xmlns:xlink="http://www.w3.org/1999/xlink">
    <!-- Generator: Sketch 53.2 (72643) - https://sketchapp.com -->
    <title>Group 7</title>
    <desc>Created with Sketch.</desc>
    <defs>
        <linearGradient x1="35.0825731%" y1="55.2101871%" x2="0.582401246%" y2="62.5181809%" id="linearGradient-1">
            <stop stop-color="#DFE8FA" offset="0%"></stop>
            <stop stop-color="#C7D3EE" offset="100%"></stop>
        </linearGradient>
        <linearGradient x1="40.8711864%" y1="33.3652723%" x2="56.6677966%" y2="59.5786429%" id="linearGradient-2">
            <stop stop-color="#182030" offset="0%"></stop>
            <stop stop-color="#283550" offset="100%"></stop>
        </linearGradient>
        <linearGradient x1="-0.0160676986%" y1="50.001811%" x2="99.9839323%" y2="50.001811%" id="linearGradient-3">
            <stop stop-color="#1CD38D" offset="0%"></stop>
            <stop stop-color="#1BCF8B" offset="42%"></stop>
            <stop stop-color="#1AC283" offset="87%"></stop>
            <stop stop-color="#19BD80" offset="100%"></stop>
        </linearGradient>
        <linearGradient x1="37.793499%" y1="30.7045206%" x2="58.2175706%" y2="65.1373491%" id="linearGradient-4">
            <stop stop-color="#1ED290" offset="0%"></stop>
            <stop stop-color="#1DCF8E" offset="39%"></stop>
            <stop stop-color="#1AC687" offset="60%"></stop>
            <stop stop-color="#17BB7E" offset="100%"></stop>
        </linearGradient>
    </defs>
    <g id="Page-1" stroke="none" stroke-width="1" fill="none" fill-rule="evenodd">
        <g id="AFFILIATI" transform="translate(-385.000000, -1091.000000)" fill-rule="nonzero">
            <g id="Group-7" transform="translate(373.000000, 1068.147675)">
                <path d="M109.163072,165.560783 C139.857604,165.560783 167.000007,188.885796 183.465876,165.560783 C193.94008,150.723369 203.127355,132.438997 200.094093,113.057734 C197.793371,98.3570866 179.395661,103.235722 165.119878,86.0007172 C143.224149,59.5662305 144.6,22 109.163072,22 C75.3477565,22 86.4139512,55.3244289 64.7680025,79.7307973 C47.7103632,98.9637279 23.5261343,93.0370611 18.2320501,113.057734 C13.2970901,131.720305 24.1190067,149.927929 34.1771619,164.579545 C50.5692638,188.457759 78.0401853,165.560783 109.163072,165.560783 Z" id="Oval-Copy" fill="url(#linearGradient-1)" opacity="0.2" transform="translate(108.840810, 98.963728) rotate(15.000000) translate(-108.840810, -98.963728) "></path>
                <g id="map-location-2" transform="translate(50.000000, 59.852325)">
                    <g id="map-location">
                        <polygon id="Path" fill="#FFFFFF" points="103.46115 43.2001751 83.96115 43.2001751 33.26115 43.2001751 13.76115 43.2001751 6.6339 99.6085926 109.53345 99.6085926"></polygon>
                        <path d="M103.46115,43.2001751 L109.53345,99.6085926 L6.6339,99.6085926 L13.76115,43.2001751 L33.26115,43.2001751 L83.96115,43.2001751 L103.46115,43.2001751 L103.46115,43.2001751 Z M108.7164,37.3648215 L103.46115,37.3648215 L83.96115,37.3648215 L33.26115,37.3648215 L13.76115,37.3648215 L8.60145,37.3648215 L7.956,42.4707559 L0.82875,98.8791734 L0,105.443946 L6.6339,105.443946 L109.53345,105.443946 L116.0445,105.443946 L115.34835,98.9861549 L109.27605,42.5777374 L108.7164,37.3648215 L108.7164,37.3648215 Z" id="Shape" fill="url(#linearGradient-2)"></path>
                        <path d="M26.6838,91.8281212 C26.18265,91.8281212 25.68345,91.7969993 25.18425,91.7367007 C24.75915,91.6861276 24.33015,91.6063778 23.9109,91.4955061 C22.86765,91.2270798 22.2417,90.1650455 22.5108,89.1263525 C22.7799,88.0857145 23.84265,87.4535512 24.8859,87.7297579 C25.1433,87.7939468 25.4007,87.8445199 25.6581,87.8756418 C26.44395,87.9728976 27.23955,87.9476111 28.02735,87.846465 C29.10375,87.7200323 30.0729,88.4669576 30.2055,89.5328822 C30.34005,90.5988067 29.58345,91.5713657 28.51485,91.7055788 C27.9045,91.7853286 27.29025,91.8281212 26.6838,91.8281212 Z M35.7513,89.5756747 C34.96935,89.5756747 34.23225,89.1030111 33.93195,88.3307993 C33.5439,87.3271185 34.04505,86.2008953 35.04735,85.815762 C36.20175,85.37033 37.36395,84.87627 38.50665,84.3394175 C39.4875,83.8823148 40.64385,84.3024603 41.10015,85.2730741 C41.55645,86.245633 41.13915,87.4049232 40.16415,87.8600808 C38.93955,88.4338906 37.6896,88.9649077 36.4533,89.4414616 C36.2232,89.5348273 35.9853,89.5756747 35.7513,89.5756747 Z M19.47465,86.2067306 C18.486,86.2067306 17.6397,85.4598054 17.53635,84.4600148 C17.49735,84.0768266 17.48175,83.6916933 17.48175,83.3085051 C17.48175,83.0828714 17.4876,82.8572377 17.4993,82.6335492 C17.54415,81.7212889 17.69235,80.8012481 17.93805,79.8987135 C18.21885,78.8580754 19.2972,78.2395279 20.32875,78.5293505 C21.3681,78.8094475 21.9843,79.8753721 21.70155,80.914065 C21.52995,81.5481734 21.4266,82.1920074 21.39735,82.8261158 C21.38955,82.9856155 21.3837,83.1470603 21.3837,83.3085051 C21.3837,83.5594253 21.39345,83.8142357 21.42075,84.0651559 C21.52995,85.1349707 20.748,86.0880785 19.67745,86.1989502 C19.60725,86.2028404 19.54095,86.2067306 19.47465,86.2067306 Z M46.1487,84.2635579 C45.51105,84.2635579 44.8851,83.9523391 44.5107,83.3785293 C43.92375,82.4759946 44.18115,81.2719667 45.084,80.6864862 C46.12725,80.0115303 47.1627,79.2860013 48.165,78.5332407 C49.0308,77.8874616 50.2476,78.0644673 50.89695,78.9144838 C51.54435,79.7722808 51.37275,80.9918697 50.51475,81.6395939 C49.43835,82.4468178 48.32685,83.224865 47.2095,83.9503939 C46.87995,84.1624118 46.51335,84.2635579 46.1487,84.2635579 Z M55.42875,77.1638778 C54.8262,77.1638778 54.2334,76.8857259 53.84925,76.3644343 C53.2155,75.4969118 53.4066,74.279268 54.27825,73.6471047 C54.6858,73.3533919 55.10115,73.0635694 55.5282,72.7893077 C56.26335,72.3127539 57.05115,71.8614865 57.8682,71.4510667 C58.8354,70.9706226 60.00345,71.357701 60.48705,72.314699 C60.97065,73.2736421 60.5826,74.444603 59.62125,74.9269923 C58.93095,75.2732232 58.2699,75.6505761 57.65175,76.0493253 C57.28515,76.2885747 56.92635,76.5356047 56.57535,76.7923603 C56.22825,77.0432805 55.82655,77.1638778 55.42875,77.1638778 Z M24.31455,76.243837 C23.6223,76.243837 22.9515,75.8762098 22.59855,75.2265404 C22.08375,74.2831582 22.4367,73.1024717 23.38245,72.5909057 C24.39255,72.0443276 25.4709,71.703932 26.58825,71.5794444 C27.15375,71.5152556 27.7446,71.5172007 28.3257,71.5950054 C29.39235,71.7350539 30.14505,72.711503 30.0027,73.7774276 C29.8623,74.839462 28.90875,75.5883323 27.8148,75.450229 C27.55545,75.4152168 27.28635,75.4152168 27.0231,75.4463387 C26.4069,75.5124727 25.80825,75.7030943 25.24275,76.0084778 C24.94635,76.1679774 24.6285,76.243837 24.31455,76.243837 Z M66.11085,72.6414788 C65.20995,72.6414788 64.4007,72.017096 64.2057,71.1028906 C63.98145,70.0505818 64.65225,69.0177242 65.70525,68.7940357 C66.9591,68.5256094 68.3085,68.303866 69.71835,68.1288054 C70.7967,67.9712508 71.76,68.7512431 71.8926,69.8191128 C72.0252,70.8850374 71.26665,71.8575963 70.19805,71.9879192 C68.9013,72.149364 67.66305,72.3536013 66.52035,72.5967411 C66.3819,72.627863 66.2454,72.6414788 66.11085,72.6414788 Z M77.73285,71.4413411 C76.6935,71.4413411 75.8277,70.6224465 75.78675,69.5759731 C75.74385,68.502268 76.57845,67.5958431 77.65485,67.5530505 L81.5412,67.3935508 C82.6137,67.2962949 83.5302,68.1735431 83.57895,69.2491933 C83.6277,70.3209532 82.79505,71.2312684 81.71865,71.2798963 L77.81475,71.439396 C77.7894,71.4413411 77.76015,71.4413411 77.73285,71.4413411 Z M89.3919,70.5796539 C88.48515,70.5796539 87.67395,69.9474906 87.48285,69.0274498 C87.2664,67.9751411 87.94305,66.9461737 88.998,66.7283205 C90.1251,66.4968515 90.9597,66.1720168 91.62465,65.7071337 C92.4768,65.0438485 93.77355,65.1527751 94.42875,65.9969562 C95.0898,66.8469727 95.00595,68.0179337 94.15575,68.6773286 C94.0485,68.7590236 93.94125,68.8387734 93.8262,68.914633 C92.7654,69.6615582 91.42965,70.2003559 89.7858,70.5388064 C89.65515,70.566038 89.5206,70.5796539 89.3919,70.5796539 Z M97.32645,62.740829 C97.13535,62.740829 96.9423,62.7116522 96.74925,62.6532987 C95.7216,62.3362444 95.1444,61.2450333 95.4642,60.2199562 C95.56755,59.8873411 95.6319,59.556671 95.65335,59.2357266 L95.66115,59.0100929 C95.66115,58.5646609 95.57535,58.1114485 95.40765,57.6601811 C95.03325,56.6526101 95.5461,55.5341673 96.55815,55.1607047 C97.56045,54.7891872 98.69145,55.2988081 99.0639,56.3083242 C99.39345,57.1933529 99.56115,58.103668 99.56115,59.012038 C99.56115,59.1754279 99.5553,59.3368727 99.54555,59.4983175 C99.50265,60.1285357 99.38175,60.7548636 99.1887,61.3734111 C98.9313,62.2059215 98.1591,62.740829 97.32645,62.740829 Z M87.45945,54.75223 C86.60925,54.75223 85.8273,54.1939811 85.5855,53.3342391 C85.293,52.3013815 85.8936,51.2257313 86.931,50.9359088 C88.45005,50.5079828 90.04515,50.3796051 91.5837,50.5857875 C92.65035,50.7297263 93.39915,51.7081205 93.25485,52.7740451 C93.1125,53.8380246 92.15115,54.5849498 91.0611,54.4410111 C90.04515,54.306798 88.998,54.3962734 87.98985,54.6763704 C87.8124,54.7288886 87.6369,54.75223 87.45945,54.75223 Z" id="Shape" fill="url(#linearGradient-3)"></path>
                        <path d="M79.6458,18.2462582 C78.624,10.467732 74.5485,0.388131313 58.5429,0.388131313 C42.53925,0.388131313 38.4618,10.467732 37.44,18.2462582 C36.88035,22.5099566 37.1943,26.841734 38.0835,31.0490239 C42.97605,54.1823104 55.068,68.0490556 57.92865,71.0737138 C58.26405,71.4277253 58.82175,71.4277253 59.15715,71.0737138 C62.0178,68.0490556 74.10975,54.1823104 79.0023,31.0490239 C79.89345,26.841734 80.2074,22.5099566 79.6458,18.2462582 Z M58.5429,33.3034155 C51.70815,33.3034155 46.1682,27.7773357 46.1682,20.9596976 C46.1682,14.1420596 51.70815,8.61792492 58.5429,8.61792492 C65.37765,8.61792492 70.9176,14.1440047 70.9176,20.9596976 C70.9176,27.7773357 65.37765,33.3034155 58.5429,33.3034155 Z" id="Shape" fill="url(#linearGradient-4)"></path>
                    </g>
                </g>
            </g>
        </g>
    </g>
</svg>