<?xml version="1.0" encoding="UTF-8"?>
<svg width="209px" height="137px" viewBox="0 0 209 137" version="1.1" xmlns="http://www.w3.org/2000/svg" xmlns:xlink="http://www.w3.org/1999/xlink">
    <!-- Generator: Sketch 53.2 (72643) - https://sketchapp.com -->
    <title>Group 27 Copy</title>
    <desc>Created with Sketch.</desc>
    <defs>
        <polygon id="path-1" points="44.6466013 53.9869257 0.179931939 53.9869257 0.179931939 0.0922386377 44.6466013 0.0922386377"></polygon>
        <polygon id="path-3" points="1.30773035e-15 49.8712087 1.30773035e-15 0.119572847 21.3194485 0.119572847 42.6388971 0.119572847 42.6388971 49.8712087"></polygon>
    </defs>
    <g id="Page-1" stroke="none" stroke-width="1" fill="none" fill-rule="evenodd">
        <g id="HOME-1" transform="translate(-578.000000, -69.000000)">
            <g id="Group-27-Copy" transform="translate(577.544872, 68.689655)">
                <g id="Group-4" transform="translate(0.455128, 0.310345)">
                    <g id="Group-6">
                        <g id="Page-1-Copy-2" transform="translate(0.000000, 70.750096)">
                            <path d="M208.623983,47.5343309 L206.331296,46.8777603 L207.644117,43.8120634 L207.666382,43.7213413 C207.735015,43.4380843 207.629818,43.2559746 207.350177,43.1758996 L207.266428,43.1519437 L203.597596,42.7830663 C203.420906,42.7761901 203.260352,42.8056914 203.115323,42.8722357 C202.969885,42.9390019 202.859377,43.0479127 202.783186,43.199412 L201.789633,45.5768188 L199.566396,44.9402114 C199.417282,44.8974013 199.256932,44.9222445 199.085349,45.0134102 C198.913356,45.1052414 198.789162,45.226352 198.712766,45.3776294 L197.918578,47.2932187 L197.896313,47.3843844 C197.822777,47.6876047 197.936758,47.9149645 198.239072,48.0666855 L200.313807,49.0830391 L199.638707,50.6776629 L197.786213,55.0531739 L196.758753,57.480489 C196.652738,57.7537643 196.553873,58.0177234 196.462566,58.2725882 C196.370646,58.5276748 196.297723,58.7665689 196.244001,58.9888269 C195.919421,60.3250369 196.028704,61.3626847 196.572257,62.1028794 C197.115606,62.8426304 198.026431,63.3958356 199.304527,63.7620512 C199.711834,63.8785037 200.088501,63.9647895 200.433712,64.0204649 C200.778922,64.0754749 201.175404,64.1240523 201.623973,64.1664188 C201.992674,64.2070109 202.246782,64.0637187 202.386296,63.7356552 L203.352885,61.4798027 L203.37515,61.388637 C203.414369,61.2271561 203.39476,61.1020528 203.316526,61.0146579 C203.238087,60.9270412 203.124107,60.8620496 202.974992,60.8192394 L201.605181,60.4270715 C201.306951,60.341673 201.112081,60.2427438 201.019753,60.130062 C200.927628,60.0169367 200.908632,59.8490232 200.962762,59.6263215 C201.011786,59.4244704 201.108609,59.1485333 201.253025,58.8002847 L204.852201,50.3828715 L207.144481,51.0394422 C207.293595,51.0822524 207.443323,51.0600709 207.594071,50.9733415 C207.744616,50.8866121 207.857984,50.7679414 207.935196,50.6164421 L208.951627,48.2778528 L208.973892,48.1866871 C209.057437,47.8428748 208.940392,47.625053 208.623983,47.5343309" id="Fill-1" fill="#00574C"></path>
                            <path d="M185.671696,53.9874602 L181.908145,52.9930381 C181.736337,52.9476016 181.559594,52.9650229 181.378855,53.0431829 C181.197646,53.1215784 181.062973,53.2414082 180.974837,53.4014951 L179.198472,57.2744209 L179.173089,57.3709439 C179.076726,57.7363187 179.210694,57.9663259 179.575462,58.0628489 L183.338778,59.0570357 C183.510586,59.1024721 183.688269,59.0805778 183.872534,58.9913529 C184.056093,58.9018926 184.191941,58.7775898 184.280548,58.6170321 L186.057147,54.7441062 L186.08253,54.6473478 C186.173017,54.3041027 186.035994,54.0835124 185.671696,53.9874602" id="Fill-3" fill="#00574C"></path>
                            <path d="M196.997365,45.0215324 C196.911769,44.9032076 196.789893,44.823017 196.631301,44.7809605 L193.003902,43.8215059 C192.84531,43.7794495 192.686067,43.8012404 192.525738,43.8864429 C192.365626,43.9716454 192.244401,44.0884448 192.163367,44.2372769 L185.189036,59.3933032 C185.025013,59.7752982 185.130813,60.0154342 185.507523,60.1150187 L189.135139,61.0746912 C189.392362,61.1428968 189.581802,61.1291685 189.702375,61.0335064 C189.822948,60.9378442 189.923534,60.8160329 190.005437,60.6674188 L196.979985,45.5116103 C197.076661,45.3032891 197.082527,45.1396392 196.997365,45.0215324" id="Fill-5" fill="#00574C"></path>
                            <path d="M193.50189,41.6811717 L197.691187,42.7429039 C197.949015,42.8080603 198.148214,42.7919974 198.28996,42.6944891 C198.431707,42.5965283 198.547082,42.4702878 198.635615,42.3146365 L199.947596,39.5445856 C200.147501,39.1502538 200.032832,38.8986778 199.603118,38.7898576 L195.414293,37.7283516 C195.156229,37.662969 194.956795,37.6790319 194.815048,37.7765402 C194.67283,37.8740485 194.557926,38.0007415 194.469158,38.1563928 L193.157884,40.9264437 C192.97917,41.3262052 193.093603,41.577555 193.50189,41.6811717" id="Fill-7" fill="#00574C"></path>
                            <path d="M59.2186879,29.1607858 L58.3330499,33.9943849 C57.8328364,36.8035779 57.0157708,38.9208246 55.8812084,40.3476506 C54.7455711,41.7751304 53.0647935,42.4888703 50.8405954,42.4888703 C49.1140312,42.4888703 47.8431836,42.0743563 47.0259031,41.2455463 C46.2084077,40.4165183 45.7995525,39.1049804 45.7995525,37.3091891 C45.7995525,36.8035779 45.8335162,36.2848906 45.9016588,35.7553065 C45.9698013,35.2265941 46.0489068,34.6401288 46.1402651,33.9943849 L47.0259031,29.1607858 C47.5703985,26.1214525 48.4672145,23.9577854 49.716351,22.668477 C50.9650576,21.3800403 52.5877958,20.7351681 54.5865002,20.7351681 C57.9009789,20.7351681 59.5594006,22.4851929 59.5594006,25.9832812 C59.5594006,26.8120912 59.4454714,27.8723491 59.2186879,29.1607858 M70.6619048,25.1553429 C70.6619048,20.9195418 69.4222265,17.535652 66.9422251,15.0028016 C64.4626537,12.4712588 60.9024749,11.2048336 56.2616888,11.2048336 C50.574474,11.2048336 46.0701879,12.6325313 42.7492604,15.4861833 C39.4279029,18.3415787 37.1983307,22.8997069 36.0611887,29.1607858 L35.1738311,33.9943849 C35.037546,34.6401288 34.9457578,35.2836933 34.9012609,35.9285655 C34.8554743,36.5732197 34.8333333,37.2180919 34.8333333,37.8616564 C34.8333333,39.8880239 35.1398673,41.7631439 35.75358,43.4900675 C36.3677227,45.2161194 37.2894741,46.7017881 38.5179744,47.9442403 C39.7458298,49.1875643 41.24776,50.1656604 43.0226904,50.8794003 C44.7971908,51.5922684 46.8449062,51.9496832 49.1651918,51.9496832 C55.2154751,51.9496832 59.8220825,50.4311062 62.9839392,47.391555 C66.1464407,44.3530935 68.2739066,39.8880239 69.3659068,33.9943849 L70.2532645,29.1607858 C70.3439779,28.7464897 70.4344764,28.1367052 70.5258347,27.3307785 C70.6165481,26.5248517 70.6619048,25.7999971 70.6619048,25.1553429" id="Fill-9" fill="#00574C"></path>
                            <path d="M94.2383191,20.6022308 C94.5441404,20.6022308 94.7968836,20.4619183 94.9940605,20.1815146 C95.1902008,19.9008895 95.3330557,19.5979119 95.420759,19.2694833 L96.5380952,12.6072948 L96.5380952,12.396826 C96.5380952,11.602312 96.1655116,11.2048336 95.420759,11.2048336 C93.6687658,11.2048336 92.0699943,11.4040154 90.6246518,11.8006085 C89.1795166,12.1985295 87.645434,13.1222904 86.0259289,14.5714486 L86.2888315,13.1685448 L86.2888315,12.8879198 C86.2888315,12.1407668 85.9158332,11.765641 85.1714953,11.765641 L77.3532516,11.765641 C77.0024383,11.765641 76.6852135,11.9059536 76.4009552,12.1865786 C76.1152456,12.4669823 75.9294721,12.7945257 75.8421834,13.1685448 L69.6666667,50.4775084 L69.6666667,50.7581334 C69.6666667,51.0854555 69.7647368,51.3660805 69.9619138,51.5989019 C70.1590908,51.8337151 70.4323603,51.9496832 70.7833809,51.9496832 L78.7330758,51.9496832 C79.0830598,51.9496832 79.4116881,51.7991903 79.7187534,51.4942208 C80.0245747,51.1901366 80.2215444,50.8517489 80.3096624,50.4775084 L84.8432816,23.0563718 C86.1571728,22.3550306 87.5583527,21.7714279 89.0480652,21.3037933 C90.5365338,20.8372653 92.0915573,20.6022308 93.7125138,20.6022308 L94.2383191,20.6022308 Z" id="Fill-11" fill="#00574C"></path>
                            <path d="M117.1294,20.6022308 C117.434187,20.6022308 117.687554,20.4619183 117.883903,20.1815146 C118.081911,19.9008895 118.222693,19.5979119 118.311434,19.2694833 L119.428571,12.6072948 L119.428571,12.396826 C119.428571,11.602312 119.055363,11.2048336 118.311434,11.2048336 C116.559842,11.2048336 114.960643,11.4040154 113.515704,11.8006085 C112.070143,12.1985295 110.536464,13.1222904 108.916531,14.5714486 L109.179229,13.1685448 L109.179229,12.8879198 C109.179229,12.1407668 108.806849,11.765641 108.062091,11.765641 L100.244202,11.765641 C99.8929711,11.765641 99.5757439,11.9059536 99.2918981,12.1865786 C99.0061862,12.4669823 98.8193746,12.7945257 98.7327073,13.1685448 L92.5571429,50.4775084 L92.5571429,50.7581334 C92.5571429,51.0854555 92.6552138,51.3660805 92.8523923,51.5989019 C93.0495708,51.8337151 93.3228424,51.9496832 93.6738657,51.9496832 L101.623415,51.9496832 C101.974023,51.9496832 102.301617,51.7991903 102.609307,51.4942208 C102.914923,51.1901366 103.112309,50.8517489 103.200635,50.4775084 L107.73429,23.0563718 C109.047776,22.3550306 110.44876,21.7714279 111.938484,21.3037933 C113.427378,20.8372653 114.982621,20.6022308 116.60359,20.6022308 L117.1294,20.6022308 Z" id="Fill-13" fill="#00574C"></path>
                            <path d="M132.230152,22.3579781 C133.442048,20.9073893 135.214946,20.1825308 137.549497,20.1825308 C139.470768,20.1825308 140.84295,20.597047 141.666693,21.4260794 C142.490652,22.2538042 142.902415,23.4742514 142.902415,25.0861135 C142.902415,25.5466144 142.868624,26.0302167 142.799095,26.5358305 C142.731298,27.0434058 142.650721,27.5719031 142.559315,28.1245913 L129.655822,28.1245913 C130.158558,25.7309892 131.016307,23.8087847 132.230152,22.3579781 M148.771065,42.2126935 C148.565292,42.0745214 148.188185,42.0294085 147.638879,42.0745214 C146.952247,42.1205061 146.070671,42.1776056 144.996102,42.2466917 C143.92045,42.3157777 142.776135,42.3848637 141.564239,42.4539497 C140.351261,42.5230358 139.115539,42.581007 137.857723,42.6269917 C136.598175,42.6731944 135.422019,42.6962957 134.323623,42.6962957 C132.126399,42.6962957 130.558408,42.3397508 129.621165,41.6249174 C128.683923,40.9122633 128.21411,39.6578179 128.21411,37.861799 C128.21411,37.4472828 128.236854,36.9987684 128.283857,36.5151662 C128.327394,36.031564 128.397357,35.5370649 128.48898,35.0303614 L150.521436,35.0303614 C151.435935,35.0303614 152.007985,34.4778911 152.237801,33.3727325 L152.924433,29.3670502 C153.014974,28.7232643 153.09555,28.0895035 153.163347,27.4679471 C153.232877,26.8472625 153.266667,26.2374748 153.266667,25.6377121 C153.266667,23.6124235 152.968187,21.7253069 152.375127,19.9752727 C151.780118,18.2263282 150.886629,16.6955387 149.697694,15.383122 C148.507459,14.0704874 147.031957,13.0464014 145.270755,12.3095563 C143.508471,11.573801 141.461786,11.2048336 139.127452,11.2048336 C133.453745,11.2048336 128.876916,12.7240725 125.400217,15.7625503 C121.921567,18.8010281 119.65698,23.337169 118.605371,29.3670502 L117.782495,34.2015469 C117.688922,34.8924072 117.610295,35.5601662 117.541632,36.2048239 C117.472968,36.8494816 117.438095,37.4712559 117.438095,38.0688392 C117.438095,40.463749 117.838162,42.5350223 118.640244,44.2839668 C119.44016,46.034001 120.514729,47.4726032 121.8659,48.6010811 C123.215339,49.729123 124.748457,50.5681805 126.465039,51.1208688 C128.18032,51.673557 129.975312,51.9496832 131.851963,51.9496832 C134.825927,51.9496832 137.40004,51.8115111 139.573222,51.535167 C141.746403,51.2590408 143.9772,50.8445246 146.265831,50.2929261 C146.906543,50.154754 147.330436,49.9474959 147.535343,49.6711518 C147.742199,49.3948076 147.889706,48.9802914 147.981113,48.4278211 L148.942181,43.1798979 C149.033805,42.6731944 148.977055,42.3508655 148.771065,42.2126935" id="Fill-15" fill="#00574C"></path>
                            <g id="Group-19" transform="translate(147.295238, 12.223455)">
                                <mask id="mask-2" fill="white">
                                    <use xlink:href="#path-1"></use>
                                </mask>
                                <g id="Clip-18"></g>
                                <path d="M44.6466013,1.13554695 C44.6466013,0.857272877 44.5457268,0.613892794 44.3429115,0.405187239 C44.1400962,0.196481685 43.879486,0.0922386377 43.565133,0.0922386377 L34.442283,0.0922386377 C34.0807983,0.0922386377 33.7545023,0.22062218 33.4627554,0.474755757 C33.1686626,0.730206089 32.955184,1.04337415 32.8199738,1.41382102 L21.8052472,28.8824127 L21.2644064,28.8824127 C21.0383452,28.8824127 20.8807421,28.8369847 20.791384,28.7432757 C20.7003197,28.6515418 20.6325013,28.3954331 20.5885687,27.9791193 L19.0347177,1.41382102 C18.9886523,1.04337415 18.8879911,0.730206089 18.7301748,0.474755757 C18.5723585,0.22062218 18.3128146,0.0922386377 17.9532493,0.0922386377 L9.09975337,0.0922386377 C8.06328398,0.0922386377 7.54504929,0.556394523 7.54504929,1.48338954 L7.54504929,1.69209509 L11.1268401,32.9854191 C11.2620503,34.3313614 11.5207411,35.4312901 11.9048319,36.2891556 C12.2867901,37.147021 12.7374197,37.8084705 13.2567207,38.2710902 C13.7738891,38.7348072 14.3479993,39.0473169 14.9790513,39.2097166 C15.6098901,39.3729941 16.263335,39.4526577 16.9391728,39.4526577 L17.2771983,39.4526577 L16.3309401,41.6090623 C15.7001013,42.9993354 15.0014442,43.9489347 14.2362483,44.4600548 C13.4701993,44.9691998 12.4787289,45.2250891 11.2620503,45.2250891 C10.7222758,45.2250891 10.0805605,45.201168 9.33605133,45.15574 C8.59324827,45.1083368 7.82719929,45.0508386 7.03961051,44.9812701 C6.24988908,44.9117015 5.49556969,44.8533254 4.77451969,44.8078974 C4.05346969,44.7615915 3.42348398,44.7141884 2.88285643,44.6687604 L2.74764622,44.6687604 C2.38616153,44.6687604 2.06071867,44.7956077 1.76790541,45.0508386 C1.47402582,45.3060694 1.2829401,45.6183597 1.19272888,45.9905622 L0.179931939,51.6229787 L0.179931939,51.8316842 C0.179931939,52.1097388 0.291682959,52.3294173 0.516891122,52.4920365 C0.742312551,52.6542167 1.03512582,52.7812835 1.39661051,52.8749925 C1.80224112,53.0141296 2.34201561,53.1530471 3.01806663,53.2924036 C3.69411765,53.4304434 4.41410133,53.5463178 5.18015031,53.6391489 C5.94619929,53.7317607 6.7231248,53.8136189 7.5117799,53.8831874 C8.29936867,53.9527559 9.00890235,53.9869915 9.64059418,53.9869915 C12.1183105,53.9869915 14.2029789,53.778286 15.8920401,53.3608749 C17.5808881,52.944561 19.0232013,52.2831115 20.2162074,51.379818 C21.4096401,50.4756468 22.4578391,49.3041744 23.3590983,47.8675954 C24.2603574,46.4301387 25.1831564,44.692023 26.1296279,42.6514928 L44.5113911,1.69209509 C44.6016023,1.41382102 44.6466013,1.22881704 44.6466013,1.13554695" id="Fill-17" fill="#00574C" mask="url(#mask-2)"></path>
                            </g>
                            <g id="Group-22">
                                <mask id="mask-4" fill="white">
                                    <use xlink:href="#path-3"></use>
                                </mask>
                                <g id="Clip-21"></g>
                                <path d="M42.6388971,0.944647193 C42.6388971,0.394742303 42.3240008,0.119572847 41.6944211,0.119572847 L31.9119832,0.119572847 C31.551098,0.119572847 31.247486,0.234805482 31.0009343,0.463534667 C30.7531052,0.693348905 30.5623364,0.990870454 30.4273504,1.35718437 L27.1623505,9.81647503 L21.3964906,24.7539665 L15.1124038,41.0354046 C14.8869304,41.7233283 14.5056056,42.0670731 13.9656617,42.0670731 C13.4702164,42.0670731 13.2232389,41.7233283 13.2232389,41.0354046 L12.5355343,23.4506007 L12.1563387,13.7550006 L11.6717518,1.35718437 C11.6717518,0.990870454 11.5693413,0.693348905 11.3660107,0.463534667 C11.1626801,0.234805482 10.8799334,0.119572847 10.5186224,0.119572847 L1.42495368,0.119572847 C1.01722791,0.119572847 0.677846764,0.246307044 0.407023167,0.498039354 C0.134922101,0.750205685 -6.38734897e-05,1.08223192 -6.38734897e-05,1.49498611 L-6.38734897e-05,1.56377847 L0.98252331,16.9949691 L1.96553632,32.433538 L2.62279452,42.7560818 C3.53831454,42.6877234 4.45511203,42.8930155 5.24863369,43.3823744 C5.6753086,42.8891093 6.20205198,42.4961031 6.80310151,42.2265759 C7.51571675,41.9069193 8.30412852,41.7840913 9.08274636,41.8713295 C10.5352295,42.0340875 11.8082282,42.9181887 12.5023201,44.1961642 C13.8692128,43.7295914 15.3921697,43.9630948 16.564674,44.8400347 C17.742927,45.7208808 18.4112566,47.1349219 18.386133,48.5954033 C19.2643935,48.7753051 20.0542957,49.2273382 20.6749331,49.8712087 C21.3732832,49.4133163 22.0401225,48.8584202 22.6688505,48.1869894 C23.6133265,47.1791921 24.4230295,45.849351 25.0973206,44.1983343 L28.8530818,34.9994715 L34.1969509,21.9104764 L42.5039111,1.56377847 C42.5939727,1.288392 42.6388971,1.08223192 42.6388971,0.944647193" id="Fill-20" fill="#00574C" mask="url(#mask-4)"></path>
                            </g>
                            <path d="M4.30347866,48.7837122 C4.15269465,48.6593311 3.98822483,48.5485305 3.82999766,48.4316942 C3.83359919,48.4271673 3.83744082,48.422856 3.84104235,48.4185447 C3.49265445,48.1844409 3.14522696,47.9490437 2.79563855,47.7164488 C2.44629025,47.4840695 2.08685766,47.2628996 1.74567283,47.0210354 C1.37519555,46.7580459 1.15262107,46.7959854 1.07842957,47.2402653 C0.947333917,48.0236293 0.956217688,48.804622 1.21360695,49.5640583 C1.51733589,50.4597317 2.41339629,50.9984292 3.45063661,50.9242748 C4.20263585,50.870599 4.6446635,50.4390375 4.91045633,49.8486043 C5.15800142,49.2993442 4.65138635,49.0708451 4.30347866,48.7837122" id="Fill-23" fill="#00574C"></path>
                            <path d="M6.90292767,45.8600877 C6.16484809,45.736555 5.61506181,46.1404389 5.15923352,46.8148289 C4.97263825,47.0909608 4.91018826,47.3809227 5.05942675,47.7140156 C5.6473245,49.0274 6.23371288,50.3421909 6.82085594,51.6560442 C6.82142195,51.6572163 6.82179929,51.6583883 6.82217663,51.6595603 C6.96537766,51.9940596 7.10857868,52.3285589 7.25159103,52.6630583 C7.40818767,53.0256864 7.61742343,53.099056 7.76458653,52.6977505 C8.06853495,51.8698237 8.49927005,51.1178449 8.71548661,50.2385829 C9.4805461,47.9667067 8.30701465,46.3732054 6.90292767,45.8600877" id="Fill-25" fill="#00574C"></path>
                            <path d="M17.2689517,53.2621425 C15.7894352,51.3216682 13.7006513,51.7846594 12.3973672,53.0286723 C11.8377886,53.7548692 11.8466118,54.541234 12.1449764,55.3612835 C12.2671084,55.6969696 12.4779372,55.9069766 12.8552465,55.9127843 C14.3438184,55.9357829 15.8323904,55.9608722 17.3209624,55.9848 L17.3246774,55.9850323 C17.6996647,55.9978093 18.0748843,56.0108186 18.4498716,56.0235955 C18.8573655,56.0359079 19.0489225,55.849364 18.7949064,55.4934672 C18.2710851,54.7596041 17.8907574,53.9279391 17.2689517,53.2621425" id="Fill-27" fill="#00574C"></path>
                        </g>
                        <g id="Group" transform="translate(70.213587, 0.000000)" fill="#00574C">
                            <g id="Group-2" transform="translate(14.067308, 0.000000)">
                                <path d="M20.4572983,5.47015331 C22.0079634,5.47015331 23.2651627,4.24571016 23.2651627,2.73507666 C23.2651627,1.22460916 22.0079634,0 20.4572983,0 C18.9064627,0 17.6494338,1.22460916 17.6494338,2.73507666 C17.6494338,4.24571016 18.9064627,5.47015331 20.4572983,5.47015331" id="Fill-96"></path>
                                <path d="M2.80786447,10.9403066 C4.35870002,10.9403066 5.61572893,9.71586347 5.61572893,8.20522997 C5.61572893,6.69476247 4.35870002,5.47015331 2.80786447,5.47015331 C1.25719933,5.47015331 0,6.69476247 0,8.20522997 C0,9.71586347 1.25719933,10.9403066 2.80786447,10.9403066" id="Fill-97"></path>
                                <path d="M38.1066468,10.9403066 C39.6574353,10.9403066 40.9145965,9.71586347 40.9145965,8.20522997 C40.9145965,6.69476247 39.6574353,5.47015331 38.1066468,5.47015331 C36.5560288,5.47015331 35.2988676,6.69476247 35.2988676,8.20522997 C35.2988676,9.71586347 36.5560288,10.9403066 38.1066468,10.9403066" id="Fill-98"></path>
                                <path d="M8.15941939,21.832346 C10.5305907,21.3234201 12.9660767,20.9674492 15.4517004,20.7665531 C17.0566281,20.6367533 18.6821295,20.5702228 20.324747,20.5702228 C20.340307,20.5702228 20.355867,20.5705489 20.371427,20.5705489 C20.428999,20.570712 20.4863981,20.5718534 20.5437972,20.5720165 C22.2005916,20.5778868 23.8407886,20.6502877 25.4600661,20.7887299 C27.9323774,20.9998991 30.355934,21.3640233 32.7153489,21.8806133 C35.8394513,18.1575128 37.0218385,14.3527167 35.3256255,12.7528859 C33.6038249,11.1289214 29.4729904,12.3036417 25.4690563,15.3508377 C24.9071674,10.5725435 22.8765872,7.03305426 20.4571799,7.03305426 C18.0377726,7.03305426 16.0073653,10.5725435 15.4453035,15.3508377 C11.4413694,12.3036417 7.31053488,11.1289214 5.5887343,12.7528859 C3.8999555,14.345868 5.06557248,18.1247367 8.15941939,21.832346" id="Fill-99"></path>
                            </g>
                            <path d="M7.31923787,31.6496061 C7.31938772,31.6480277 7.31968743,31.6466748 7.31983728,31.6450963 C8.03658837,31.9871653 8.99475404,32.1964204 10.0480769,32.1964204 C10.143384,32.1964204 10.2376421,32.1941654 10.3313007,32.1907831 C10.3311509,32.192587 10.3311509,32.1946164 10.3311509,32.1964204 C12.4183157,32.121332 14.0673077,31.2261352 14.0673077,30.1302519 C14.0673077,30.1288989 14.0671578,30.1277715 14.0671578,30.126644 C14.0671578,30.1252911 14.0673077,30.1241636 14.0673077,30.1228107 C14.0673077,29.5218788 13.5688937,28.9822803 12.776916,28.6036819 C12.7767661,28.6050349 12.7764664,28.6063878 12.7763166,28.6079662 C12.4482864,28.4514759 12.0679573,28.3245248 11.6530119,28.2309463 C11.6533116,28.2503385 11.65496,28.2692797 11.65496,28.2888973 C11.65496,29.5187219 10.992456,30.515615 10.175153,30.515615 C9.35784998,30.515615 8.695346,29.5187219 8.695346,28.2888973 C8.695346,28.2494365 8.69789351,28.2108776 8.6992422,28.1718678 C7.14345927,28.4573386 6.02884615,29.2219766 6.02884615,30.1228107 C6.02884615,30.1241636 6.02899601,30.1252911 6.02899601,30.126644 C6.02899601,30.1277715 6.02884615,30.1288989 6.02884615,30.1302519 C6.02884615,30.7311838 6.52740999,31.2707823 7.31923787,31.6496061" id="Fill-100"></path>
                            <path d="M57.9957722,32.1964204 C57.9957722,32.1943911 57.9957722,32.1925872 57.9956223,32.1907834 C58.089281,32.1939401 58.1835391,32.1964204 58.2788462,32.1964204 C59.332169,32.1964204 60.2904846,31.987177 61.0070858,31.6451272 C61.0072356,31.6467056 61.0075354,31.6480584 61.0078351,31.6496368 C61.7995131,31.2708341 62.2980769,30.7312659 62.2980769,30.1303676 C62.2980769,30.1290148 62.2979271,30.1278874 62.2979271,30.1265345 C62.2979271,30.1254071 62.2980769,30.1242797 62.2980769,30.1229269 C62.2980769,29.2221432 61.1834638,28.4575481 59.6276809,28.1718678 C59.6288797,28.2111009 59.6315771,28.2496576 59.6315771,28.2891162 C59.6315771,29.5188719 58.9690731,30.5157091 58.1517701,30.5157091 C57.334467,30.5157091 56.6719631,29.5188719 56.6719631,28.2891162 C56.6719631,28.2694997 56.6736114,28.2505595 56.6739112,28.2311685 C56.2589658,28.3247417 55.8786366,28.4516857 55.5507564,28.6081673 C55.5504567,28.6065889 55.550157,28.6052361 55.5500071,28.6036577 C54.7581792,28.9824604 54.2596154,29.5220286 54.2596154,30.1229269 C54.2596154,30.1242797 54.2597652,30.1254071 54.2597652,30.1265345 C54.2597652,30.1278874 54.2596154,30.1290148 54.2596154,30.1303676 C54.2596154,31.2261895 55.9086074,32.1213363 57.9957722,32.1964204" id="Fill-101"></path>
                            <path d="M10.2548968,23.3612754 C13.3205648,23.3612754 15.9194306,25.3008487 16.8331963,27.9882411 C17.0602389,28.6559604 17.185036,29.3690971 17.185036,30.1111358 C17.185036,33.839001 14.0822341,36.8609963 10.2548968,36.8609963 C8.4146482,36.8609963 6.74311308,36.1609068 5.50226362,35.0210111 C4.16239036,33.7902805 3.32492719,32.0464151 3.32492719,30.1111358 C3.32492719,26.3832707 6.4277291,23.3612754 10.2548968,23.3612754 M51.5542601,27.8136729 C52.519403,25.2169503 55.0729959,23.3612754 58.0720263,23.3612754 C61.8993635,23.3612754 65.0019959,26.3832707 65.0019959,30.1111358 C65.0019959,31.9175947 64.2720346,33.5569173 63.0856143,34.7683248 C61.8235696,36.0568595 60.0447022,36.8609963 58.0720263,36.8609963 C54.2448586,36.8609963 51.1420567,33.839001 51.1420567,30.1111358 C51.1420567,29.3043566 51.2878794,28.5309385 51.5542601,27.8136729 M3.35392217,37.4991529 C2.22193105,39.0281523 1.35801631,40.6544277 0.794055486,42.352215 C6.50555773,49.2213169 11.9009977,52.5726301 16.8469308,52.3042542 C19.9817798,52.135136 21.9946418,50.6352038 24.3254311,48.8984401 C26.896828,46.9824838 29.8112473,44.8107034 34.4139883,44.7857651 C39.068276,44.7633041 42.0601848,46.9560591 44.6929628,48.8933203 C47.08259,50.6520495 49.1464899,52.1708094 52.3237292,52.3032632 C57.2130288,52.5093759 62.4996105,49.1590537 68.0544381,42.3558484 C67.4553781,40.5513714 66.5161781,38.8279852 65.2783808,37.2159131 C67.1600023,35.4049951 68.3269231,32.8911799 68.3269231,30.1111358 C68.3269231,24.5946485 63.7355427,20.1227627 58.0720263,20.1227627 C53.6064603,20.1227627 49.8096441,22.9036326 48.4022855,26.7837701 C44.1308672,25.5608017 39.4011248,24.8800353 34.4233142,24.8800353 C29.2615296,24.8800353 24.3666345,25.6123299 19.972793,26.9221695 C18.6061291,22.9701898 14.7731963,20.1227627 10.2548968,20.1227627 C4.59138041,20.1227627 -2.84217094e-14,24.5946485 -2.84217094e-14,30.1111358 C-2.84217094e-14,33.0388279 1.29341346,35.6722149 3.35392217,37.4991529" id="Fill-102"></path>
                        </g>
                        <path d="M122.015864,55.6619974 C117.814546,55.4729136 115.020742,53.2541883 112.55574,51.2967812 C110.048121,49.3055585 107.884801,47.583798 104.386397,47.6064597 C100.940212,47.6266428 98.8292774,49.3239712 96.3848251,51.2895224 C93.9774303,53.225153 91.2486453,55.419269 87.1024081,55.6609351 C86.8590073,55.6750987 86.6152695,55.6821805 86.3711948,55.6821805 C81.1398445,55.6821805 75.7206797,52.4252647 70.2226833,45.9875622 C70.2186406,46.1373421 70.2135873,46.2869449 70.2135873,46.437433 C70.2135873,59.5252917 85.5091009,70.1348775 104.376965,70.1348775 C123.244997,70.1348775 138.54051,59.5252917 138.54051,46.437433 C138.54051,46.3007544 138.53512,46.164784 138.53192,46.0284595 C132.94229,52.6633899 127.398477,55.901362 122.015864,55.6619974" id="Fill-103" fill="#00574C"></path>
                    </g>
                    <g id="Group-Copy" transform="translate(70.213587, 0.000000)"></g>
                </g>
            </g>
        </g>
    </g>
</svg>
