<?xml version="1.0" encoding="UTF-8"?>
<svg width="200px" height="54px" viewBox="0 0 200 54" version="1.1" xmlns="http://www.w3.org/2000/svg" xmlns:xlink="http://www.w3.org/1999/xlink">
    <!-- Generator: Sketch 53.2 (72643) - https://sketchapp.com -->
    <title>Group 17</title>
    <desc>Created with Sketch.</desc>
    <defs>
        <polygon id="path-1" points="30.7612947 37.0656505 0.123972245 37.0656505 0.123972245 0.0633280199 30.7612947 0.0633280199"></polygon>
        <polygon id="path-3" points="9.01019951e-16 34.2399343 9.01019951e-16 0.0820947906 14.688998 0.0820947906 29.3779961 0.0820947906 29.3779961 34.2399343"></polygon>
    </defs>
    <g id="Page-1" stroke="none" stroke-width="1" fill="none" fill-rule="evenodd">
        <g id="SERVIZI-(RISTORANTI)" transform="translate(-114.000000, -20.000000)">
            <g id="Group-17" transform="translate(114.000000, 20.000000)">
                <g id="Page-1-Copy-3" transform="translate(56.000000, 8.000000)">
                    <g id="Page-1-Copy-2">
                        <path d="M143.740926,32.6355108 L142.161275,32.1847309 L143.065803,30.0799241 L143.081143,30.0176373 C143.128432,29.8231623 143.055951,29.6981318 142.86328,29.643155 L142.805577,29.6267076 L140.27777,29.3734485 C140.156031,29.3687275 140.04541,29.3889822 139.945486,29.4346693 C139.84528,29.4805087 139.76914,29.5552834 139.716645,29.6592978 L139.032092,31.2915472 L137.500292,30.8544735 C137.397553,30.8250815 137.287073,30.842138 137.168853,30.9047294 C137.050351,30.9677776 136.964781,31.0509283 136.912145,31.1547904 L136.364953,32.469971 L136.349613,32.5325624 C136.298947,32.7407435 136.377479,32.8968413 136.585772,33.001008 L138.015255,33.698803 L137.550114,34.7936193 L136.273755,37.7977015 L135.565839,39.4642163 C135.492796,39.6518382 135.424678,39.8330639 135.361768,40.0080456 C135.298436,40.1831797 135.248192,40.3471965 135.211178,40.4997916 C134.987544,41.4171895 135.062839,42.1296044 135.437345,42.6377978 C135.81171,43.1456866 136.439263,43.525499 137.319865,43.7769306 C137.600498,43.8568832 137.86002,43.9161242 138.097869,43.9543491 C138.335717,43.9921171 138.608891,44.0254687 138.917953,44.0545562 C139.171986,44.0824254 139.347065,43.9840457 139.443189,43.7588081 L140.109165,42.2100138 L140.124505,42.1474224 C140.151527,42.0365549 140.138016,41.9506631 140.084113,41.8906607 C140.03007,41.8305059 139.951538,41.7858848 139.848798,41.7564927 L138.905005,41.4872431 C138.699526,41.4286113 138.565262,41.3606898 138.501648,41.2833262 C138.438175,41.205658 138.425086,41.0903741 138.462382,40.9374745 C138.496159,40.7988901 138.562869,40.6094408 138.662371,40.3703447 L141.142187,34.5912252 L142.721556,35.0420051 C142.824295,35.0713972 142.927457,35.0561681 143.031322,34.9966225 C143.135046,34.9370769 143.213156,34.8556015 143.266355,34.7515871 L143.966671,33.1459885 L143.982012,33.0833971 C144.039574,32.8473469 143.95893,32.6977976 143.740926,32.6355108" id="Fill-1" fill="#8CBA15"></path>
                        <path d="M127.92691,37.0660175 L125.333841,36.3832799 C125.215467,36.3520847 125.093691,36.3640456 124.969163,36.4177077 C124.844311,36.4715315 124.751522,36.5538026 124.690797,36.663713 L123.46689,39.3227368 L123.449401,39.3890063 C123.383008,39.6398606 123.475311,39.797776 123.726634,39.8640455 L126.319541,40.5466215 C126.437916,40.5778167 126.560339,40.5627848 126.687296,40.5015259 C126.813767,40.4401054 126.907366,40.3547632 126.968416,40.2445295 L128.192484,37.5855058 L128.209973,37.5190746 C128.272318,37.2834138 128.17791,37.1319637 127.92691,37.0660175" id="Fill-3" fill="#8CBA15"></path>
                        <path d="M135.730242,30.9103058 C135.671267,30.8290679 135.587295,30.7740117 135.478026,30.7451371 L132.978765,30.0864071 C132.869496,30.0575325 132.759778,30.0724934 132.649312,30.1309907 C132.538996,30.1894879 132.455472,30.2696785 132.399641,30.3718617 L127.59436,40.7774917 C127.481349,41.0397569 127.554245,41.2046265 127.813795,41.2729979 L130.313206,41.9318775 C130.490431,41.9787053 130.620955,41.9692799 130.704029,41.9036014 C130.787103,41.8379229 130.856406,41.7542912 130.912837,41.6522577 L135.718267,31.2467772 C135.784877,31.1037507 135.788918,30.9913941 135.730242,30.9103058" id="Fill-5" fill="#8CBA15"></path>
                        <path d="M133.321876,28.6169239 L136.208282,29.3458743 C136.385924,29.3906086 136.523171,29.3795803 136.620834,29.3126343 C136.718497,29.2453776 136.79799,29.1587051 136.858988,29.05184 L137.762937,27.150014 C137.90067,26.8792787 137.821664,26.7065549 137.525593,26.6318425 L134.639513,25.9030474 C134.461708,25.8581578 134.324299,25.8691861 134.226636,25.9361321 C134.128649,26.0030781 134.04948,26.0900613 133.988319,26.1969264 L133.084858,28.0987524 C132.961725,28.3732155 133.040569,28.545784 133.321876,28.6169239" id="Fill-7" fill="#8CBA15"></path>
                        <path d="M40.8013926,20.020838 L40.1911923,23.3394284 C39.8465476,25.2681281 39.2835933,26.7217602 38.5018852,27.7013721 C37.7194365,28.6814328 36.5613888,29.1714632 35.028927,29.1714632 C33.8393325,29.1714632 32.9637246,28.8868715 32.4006223,28.3178377 C31.8373718,27.7486544 31.5556725,26.8481955 31.5556725,25.6152641 C31.5556725,25.2681281 31.5790734,24.9120144 31.6260233,24.5484194 C31.6729732,24.1854228 31.7274765,23.782775 31.7904219,23.3394284 L32.4006223,20.020838 C32.775777,17.9341316 33.3936789,16.4486288 34.254328,15.563432 C35.1146808,14.6788336 36.2327397,14.2360856 37.6098375,14.2360856 C39.8934974,14.2360856 41.036142,15.4375951 41.036142,17.8392677 C41.036142,18.4083014 40.9576454,19.1362397 40.8013926,20.020838 M48.6857143,17.2708324 C48.6857143,14.3626705 47.8315819,12.0394028 46.1228728,10.3004309 C44.41446,8.5623568 41.9615138,7.69287085 38.7640344,7.69287085 C34.8455706,7.69287085 31.7421391,8.67308122 29.4540359,10.6323049 C27.1656365,12.5927257 25.6294719,15.7221868 24.8459865,20.020838 L24.2346013,23.3394284 C24.1407015,23.782775 24.0774599,24.2246253 24.0468018,24.6673733 C24.015255,25.1099717 24,25.5527198 24,25.9945701 C24,27.3858075 24.2112004,28.6732033 24.6340456,29.8588523 C25.0571869,31.0439029 25.6922692,32.0639142 26.5387,32.9169411 C27.3846865,33.7705665 28.4195093,34.4420952 29.6424278,34.9321256 C30.8650501,35.4215574 32.2759163,35.6669467 33.8745819,35.6669467 C38.0431982,35.6669467 41.2171286,34.6243416 43.3956327,32.5374855 C45.5745812,30.4513776 47.040395,27.3858075 47.7927779,23.3394284 L48.4041631,20.020838 C48.4666642,19.7363959 48.5290172,19.3177379 48.5919626,18.7644151 C48.6544637,18.2110922 48.6857143,17.7134309 48.6857143,17.2708324" id="Fill-9" fill="#8CBA15"></path>
                        <path d="M64.929751,14.1448152 C65.1404604,14.1448152 65.3145992,14.0484812 65.4504532,13.8559652 C65.5855929,13.6632973 65.6840192,13.4552828 65.7444464,13.2297945 L66.5142857,8.65575463 L66.5142857,8.51125369 C66.5142857,7.96576643 66.2575774,7.69287085 65.7444464,7.69287085 C64.5373315,7.69287085 63.4357855,7.82962253 62.4399515,8.10191033 C61.4442602,8.37510979 60.3872847,9.0093337 59.2714534,10.0042782 L59.452592,9.04109048 L59.452592,8.84842256 C59.452592,8.33545181 59.195598,8.07790281 58.6827527,8.07790281 L53.2960203,8.07790281 C53.0543116,8.07790281 52.8357452,8.17423677 52.6398926,8.36690469 C52.44304,8.55942067 52.315043,8.78430121 52.2549015,9.04109048 L48,34.6561998 L48,34.8488677 C48,35.0735963 48.0675699,35.2662643 48.2034239,35.4261118 C48.3392779,35.5873268 48.5275592,35.6669467 48.7694108,35.6669467 L54.2467125,35.6669467 C54.4878498,35.6669467 54.7142731,35.5636232 54.9258397,35.3542412 C55.1365491,35.1454669 55.2722602,34.913141 55.3329731,34.6561998 L58.4566151,15.8297478 C59.3618799,15.34823 60.3272861,14.9475475 61.3536909,14.626485 C62.3792386,14.3061821 63.4506423,14.1448152 64.5674736,14.1448152 L64.929751,14.1448152 Z" id="Fill-11" fill="#8CBA15"></path>
                        <path d="M80.7015959,14.1448152 C80.9115926,14.1448152 81.0861614,14.0484812 81.221445,13.8559652 C81.3578715,13.6632973 81.45487,13.4552828 81.5160119,13.2297945 L82.2857143,8.65575463 L82.2857143,8.51125369 C82.2857143,7.96576643 82.0285754,7.69287085 81.5160119,7.69287085 C80.3091734,7.69287085 79.2073332,7.82962253 78.2117772,8.10191033 C77.2157925,8.37510979 76.1590945,9.0093337 75.0429689,10.0042782 L75.2239661,9.04109048 L75.2239661,8.84842256 C75.2239661,8.33545181 74.9673987,8.07790281 74.4542637,8.07790281 L69.0677754,8.07790281 C68.8257791,8.07790281 68.6072111,8.17423677 68.4116427,8.36690469 C68.2147886,8.55942067 68.0860763,8.78430121 68.0263629,9.04109048 L63.7714286,34.6561998 L63.7714286,34.8488677 C63.7714286,35.0735963 63.838999,35.2662643 63.974854,35.4261118 C64.110709,35.5873268 64.2989919,35.6669467 64.5408453,35.6669467 L70.0180465,35.6669467 C70.2596142,35.6669467 70.485325,35.5636232 70.6973217,35.3542412 C70.9078899,35.1454669 71.0438878,34.913141 71.104744,34.6561998 L74.2284101,15.8297478 C75.1333961,15.34823 76.0986669,14.9475475 77.1250796,14.626485 C78.150921,14.3061821 79.2224758,14.1448152 80.3393158,14.1448152 L80.7015959,14.1448152 Z" id="Fill-13" fill="#8CBA15"></path>
                        <path d="M91.1059423,15.3502536 C91.9409326,14.354327 93.1624509,13.856663 94.7709451,13.856663 C96.0946919,13.856663 97.0401188,14.1412562 97.6076734,14.7104426 C98.1753772,15.2787312 98.4590799,16.1166502 98.4590799,17.2233018 C98.4590799,17.5394666 98.4357986,17.871492 98.387893,18.2186299 C98.3411813,18.5671145 98.2856645,18.9299633 98.2226858,19.3094209 L89.332241,19.3094209 C89.6786239,17.6660523 90.2696089,16.3463298 91.1059423,15.3502536 M102.502552,28.9818493 C102.360775,28.8869849 102.100951,28.8560118 101.722481,28.8869849 C101.249395,28.9185564 100.641994,28.9577591 99.9016206,29.0051913 C99.1605015,29.0526235 98.3720737,29.1000557 97.5370835,29.1474879 C96.701347,29.1949201 95.8499405,29.2347212 94.9833117,29.2662928 C94.115489,29.2980141 93.3051231,29.3138747 92.5483339,29.3138747 C91.034457,29.3138747 89.9541184,29.0690826 89.3083628,28.5783015 C88.6626072,28.0890166 88.3389085,27.2277556 88.3389085,25.994668 C88.3389085,25.7100748 88.3545786,25.4021395 88.3869634,25.0701141 C88.4169604,24.7380887 88.4651644,24.3985819 88.5282924,24.0506959 L103.708549,24.0506959 C104.338635,24.0506959 104.732774,23.6713879 104.891116,22.9126223 L105.364203,20.1624524 C105.426585,19.7204501 105.482101,19.2853307 105.528813,18.8585906 C105.576719,18.4324489 105.6,18.0137886 105.6,17.6020113 C105.6,16.2115146 105.394349,14.9158824 104.985734,13.7143663 C104.575775,12.5135985 103.960166,11.4626086 103.140995,10.5615464 C102.320928,9.66033462 101.304315,8.95723079 100.090855,8.45133719 C98.8766496,7.94619173 97.4664936,7.69287085 95.8581487,7.69287085 C91.9489915,7.69287085 88.7955788,8.73593039 86.4001492,10.8220495 C84.0033765,12.9081686 82.4430864,16.022534 81.7185328,20.1624524 L81.1515752,23.4816591 C81.0871041,23.9559811 81.0329304,24.4144425 80.9856218,24.8570433 C80.9383131,25.2996441 80.9142857,25.7265339 80.9142857,26.136815 C80.9142857,27.7810814 81.1899295,29.2031496 81.7425602,30.4039175 C82.2936986,31.6054335 83.0340715,32.5931306 83.9650222,33.3679064 C84.894779,34.142383 85.9510901,34.7184523 87.1338064,35.0979099 C88.3156273,35.4773675 89.552368,35.6669467 90.8453717,35.6669467 C92.8944183,35.6669467 94.6679704,35.5720823 96.1652818,35.3823535 C97.6625932,35.1927743 99.199602,34.9081811 100.776458,34.5294716 C101.217906,34.4346072 101.509966,34.2923106 101.651145,34.1025818 C101.793668,33.912853 101.8953,33.6282598 101.958278,33.2489518 L102.62045,29.6459001 C102.683578,29.2980141 102.644478,29.0767137 102.502552,28.9818493" id="Fill-15" fill="#8CBA15"></path>
                        <g id="Group-19" transform="translate(101.485714, 8.392223)">
                            <mask id="mask-2" fill="white">
                                <use xlink:href="#path-1"></use>
                            </mask>
                            <g id="Clip-18"></g>
                            <path d="M30.7612947,0.779629249 C30.7612947,0.588575408 30.6917927,0.421478634 30.5520539,0.278188254 C30.4123151,0.134897873 30.2327559,0.0633280199 30.0161682,0.0633280199 L23.7305682,0.0633280199 C23.4815069,0.0633280199 23.2566906,0.151471945 23.0556784,0.325951714 C22.8530498,0.501335524 22.7059641,0.716346431 22.6128049,0.97068309 L15.023711,19.8297162 L14.6510743,19.8297162 C14.4953192,19.8297162 14.3867314,19.7985268 14.3251641,19.7341893 C14.2624212,19.6712078 14.2156947,19.495372 14.1854253,19.2095446 L13.1148294,0.97068309 C13.0830906,0.716346431 13.0137355,0.501335524 12.9050008,0.325951714 C12.7962661,0.151471945 12.6174416,0.0633280199 12.3697029,0.0633280199 L6.26968653,0.0633280199 C5.55556408,0.0633280199 5.19850286,0.38200221 5.19850286,1.01844655 L5.19850286,1.16173693 L7.66633959,22.6467056 C7.75949878,23.5707854 7.93773551,24.3259604 8.20237224,24.9149426 C8.46553959,25.5039248 8.77602122,25.9580544 9.13381714,26.2756739 C9.49014367,26.5940467 9.88570286,26.8086056 10.3204947,26.9201039 C10.7551396,27.0322049 11.20536,27.0868993 11.671009,27.0868993 L11.9039069,27.0868993 L11.2519396,28.5674159 C10.8172947,29.5219318 10.3359233,30.1738955 9.80870694,30.5248138 C9.28090286,30.874376 8.59778449,31.0500611 7.75949878,31.0500611 C7.38759673,31.0500611 6.94545796,31.0336377 6.43249469,31.0024484 C5.92070694,30.9699029 5.39290286,30.9304265 4.85025796,30.882663 C4.30614367,30.8348996 3.78642122,30.7948204 3.28962122,30.7636311 C2.79282122,30.731839 2.35876408,30.6992935 1.98627429,30.6681041 L1.8931151,30.6681041 C1.64405388,30.6681041 1.41982531,30.7551933 1.21807837,30.9304265 C1.01559673,31.1056596 0.883939592,31.3200678 0.82178449,31.5756099 L0.123972245,35.4426421 L0.123972245,35.5859324 C0.123972245,35.7768356 0.200968163,35.9276597 0.35613551,36.0393086 C0.511449796,36.1506563 0.713196735,36.2378961 0.962257959,36.3022337 C1.24173551,36.3977606 1.61363755,36.4931368 2.07943347,36.5888144 C2.54522939,36.683588 3.04129469,36.7631435 3.56909878,36.8268784 C4.09690286,36.8904625 4.63220082,36.9466637 5.17558041,36.9944272 C5.71822531,37.0421906 6.20709061,37.0656957 6.64232327,37.0656957 C8.34945796,37.0656957 9.78578449,36.9224053 10.9495396,36.6358245 C12.1131478,36.3499971 13.1068947,35.8958676 13.9288702,35.275696 C14.7511396,34.6549217 15.4733437,33.8506272 16.0943069,32.8643193 C16.7152702,31.8774086 17.3510743,30.6840755 18.0031886,29.2831145 L30.6681355,1.16173693 C30.7302906,0.97068309 30.7612947,0.843665434 30.7612947,0.779629249" id="Fill-17" fill="#8CBA15" mask="url(#mask-2)"></path>
                        </g>
                        <g id="Group-22">
                            <mask id="mask-4" fill="white">
                                <use xlink:href="#path-3"></use>
                            </mask>
                            <g id="Clip-21"></g>
                            <path d="M29.3779961,0.648563745 C29.3779961,0.271017104 29.161034,0.0820947906 28.7272566,0.0820947906 L21.9872038,0.0820947906 C21.7385556,0.0820947906 21.5293684,0.161209734 21.3594954,0.318247682 C21.1887423,0.476030591 21.0573035,0.680299118 20.9642988,0.931798222 L18.7147296,6.73966942 L14.7420797,16.9952606 L10.4123739,28.1735614 C10.2570238,28.6458672 9.99429288,28.8818711 9.62227412,28.8818711 C9.28091463,28.8818711 9.11074832,28.6458672 9.11074832,28.1735614 L8.63692316,16.1004124 L8.37565919,9.44373177 L8.04178115,0.931798222 C8.04178115,0.680299118 7.97122081,0.476030591 7.83112699,0.318247682 C7.69103318,0.161209734 7.49622209,0.0820947906 7.24728051,0.0820947906 L0.981786269,0.0820947906 C0.70086516,0.0820947906 0.467033177,0.169106329 0.280437015,0.341937467 C0.0929606823,0.51506659 -4.40085288e-05,0.743024901 -4.40085288e-05,1.02640837 L-4.40085288e-05,1.07363895 L0.676953859,11.6681877 L1.35424512,22.2678022 L1.80709288,29.3549218 C2.43788179,29.3079892 3.06955087,29.448936 3.6162835,29.7849138 C3.91026047,29.4462541 4.27318414,29.176429 4.68730439,28.9913805 C5.17829288,28.7719147 5.72150482,28.687585 6.25796878,28.74748 C7.25872273,28.8592242 8.13581271,29.4662191 8.61403872,30.3436351 C9.55582124,30.0233015 10.6051313,30.1836173 11.4129812,30.7856955 C12.2247918,31.3904554 12.6852677,32.3612897 12.6679577,33.3640083 C13.273075,33.4875229 13.8173138,33.797874 14.24493,34.2399343 C14.7260899,33.9255605 15.1855389,33.544587 15.6187296,33.0836046 C16.269469,32.3916841 16.8273504,31.4786589 17.2919338,30.345125 L19.8796353,24.0294879 L23.5615355,15.0430137 L29.2849914,1.07363895 C29.3470434,0.884567644 29.3779961,0.743024901 29.3779961,0.648563745" id="Fill-20" fill="#8CBA15" mask="url(#mask-4)"></path>
                        </g>
                        <path d="M2.9650762,33.4932949 C2.86118674,33.4078989 2.74786782,33.3318269 2.63885006,33.2516109 C2.6413315,33.2485029 2.64397836,33.2455429 2.6464598,33.2425829 C2.4064222,33.0818549 2.16704633,32.920239 1.92618159,32.760547 C1.68548228,32.601003 1.43783495,32.449155 1.20276022,32.283099 C0.947503155,32.102539 0.794150399,32.128587 0.743032813,32.433615 C0.652708536,32.9714469 0.658829412,33.5076509 0.836169385,34.0290549 C1.04543717,34.6439949 1.66281849,35.0138469 2.37747212,34.9629349 C2.89559599,34.9260829 3.20015093,34.6297869 3.38328092,34.2244149 C3.5538383,33.8473109 3.20478294,33.6904309 2.9650762,33.4932949" id="Fill-23" fill="#8CBA15"></path>
                        <path d="M4.75608414,31.4860304 C4.24755084,31.4012169 3.86875072,31.6785103 3.55468721,32.1415243 C3.42612396,32.3311074 3.38309622,32.5301857 3.48592082,32.7588764 C3.89097956,33.660603 4.29499835,34.5632953 4.69953711,35.4653438 C4.69992709,35.4661485 4.70018707,35.4669532 4.70044706,35.4677578 C4.79911188,35.6974141 4.8977767,35.9270703 4.99631153,36.1567266 C5.10420586,36.4056952 5.24836829,36.4560683 5.34976297,36.1805451 C5.55918198,35.6121178 5.8559564,35.0958338 6.00492857,34.4921614 C6.5320509,32.9323658 5.72349335,31.8383202 4.75608414,31.4860304" id="Fill-25" fill="#8CBA15"></path>
                        <path d="M11.8982251,36.5680381 C10.8788453,35.2357722 9.4396832,35.5536468 8.54172668,36.4077452 C8.1561797,36.9063281 8.16225886,37.4462203 8.3678306,38.0092395 C8.45197902,38.2397104 8.59723905,38.3838944 8.8572033,38.3878818 C9.88282227,38.4036718 10.9084412,38.4208973 11.9340602,38.4373254 L11.9366198,38.4374849 C12.1949843,38.4462571 12.4535088,38.4551889 12.7118732,38.4639611 C12.9926346,38.4724144 13.1246165,38.3443395 12.9496006,38.0999924 C12.5886902,37.5961461 12.3266462,37.0251522 11.8982251,36.5680381" id="Fill-27" fill="#8CBA15"></path>
                    </g>
                </g>
                <g id="Group-14" fill="#8CBA15">
                    <g id="Group">
                        <g id="Group-2" transform="translate(9.785953, 0.000000)">
                            <path d="M14.231164,3.77517623 C15.3098876,3.77517623 16.184461,2.930138 16.184461,1.88758812 C16.184461,0.8451528 15.3098876,0 14.231164,0 C13.1523219,0 12.277867,0.8451528 12.277867,1.88758812 C12.277867,2.930138 13.1523219,3.77517623 14.231164,3.77517623" id="Fill-96"></path>
                            <path d="M1.95329702,7.55035246 C3.03213915,7.55035246 3.90659404,6.70531423 3.90659404,5.66276435 C3.90659404,4.62032903 3.03213915,3.77517623 1.95329702,3.77517623 C0.874573447,3.77517623 0,4.62032903 0,5.66276435 C0,6.70531423 0.874573447,7.55035246 1.95329702,7.55035246" id="Fill-97"></path>
                            <path d="M26.5089717,7.55035246 C27.5877811,7.55035246 28.462328,6.70531423 28.462328,5.66276435 C28.462328,4.62032903 27.5877811,3.77517623 26.5089717,3.77517623 C25.4302809,3.77517623 24.555734,4.62032903 24.555734,5.66276435 C24.555734,6.70531423 25.4302809,7.55035246 26.5089717,7.55035246" id="Fill-98"></path>
                            <path d="M5.67611784,15.0673937 C7.3256283,14.7161632 9.01987941,14.4704931 10.749009,14.3318465 C11.8654804,14.2422664 12.996264,14.1963509 14.1389544,14.1963509 C14.1497788,14.1963509 14.1606031,14.196576 14.1714275,14.196576 C14.2114776,14.1966885 14.2514074,14.1974763 14.2913372,14.1975888 C15.4438898,14.2016402 16.5848964,14.251607 17.7113503,14.3471516 C19.431219,14.4928881 21.1171715,14.7441851 22.7585035,15.1007049 C24.9317922,12.5312412 25.7543224,9.90539606 24.5743482,8.80128743 C23.3765739,7.68052319 20.5029498,8.49124571 17.7176044,10.5942401 C17.3267251,7.29654412 15.9141476,4.85379801 14.2310817,4.85379801 C12.5480157,4.85379801 11.1355585,7.29654412 10.744559,10.5942401 C7.95921351,8.49124571 5.08558948,7.68052319 3.88781517,8.80128743 C2.71301252,9.90066947 3.52387651,12.5086211 5.67611784,15.0673937" id="Fill-99"></path>
                        </g>
                        <path d="M5.09164373,21.8426859 C5.09174798,21.8415966 5.09195647,21.8406629 5.09206072,21.8395735 C5.59067017,22.0756493 6.2572202,22.2200647 6.98996656,22.2200647 C7.05626712,22.2200647 7.12183796,22.2185085 7.18699182,22.2161742 C7.18688758,22.2174192 7.18688758,22.2188198 7.18688758,22.2200647 C8.63882828,22.1682432 9.78595318,21.5504313 9.78595318,20.7941175 C9.78595318,20.7931838 9.78584893,20.7924057 9.78584893,20.7916276 C9.78584893,20.7906938 9.78595318,20.7899157 9.78595318,20.788982 C9.78595318,20.3742544 9.4392304,20.0018554 8.88828938,19.7405692 C8.88818513,19.7415029 8.88797664,19.7424366 8.88787239,19.743526 C8.65967752,19.6355256 8.39510073,19.5479115 8.10644307,19.4833291 C8.10665157,19.4967125 8.10779827,19.5097846 8.10779827,19.5233235 C8.10779827,20.3720757 7.64692594,21.0600723 7.07836731,21.0600723 C6.50980868,21.0600723 6.04893635,20.3720757 6.04893635,19.5233235 C6.04893635,19.49609 6.05070853,19.4694789 6.05164675,19.4425567 C4.96936297,19.6395717 4.19397993,20.1672796 4.19397993,20.788982 C4.19397993,20.7899157 4.19408418,20.7906938 4.19408418,20.7916276 C4.19408418,20.7924057 4.19397993,20.7931838 4.19397993,20.7941175 C4.19397993,21.2088451 4.54080695,21.5812441 5.09164373,21.8426859" id="Fill-100"></path>
                        <path d="M40.344885,22.2200647 C40.344885,22.2186642 40.344885,22.2174194 40.3447808,22.2161745 C40.4099346,22.218353 40.4755055,22.2200647 40.541806,22.2200647 C41.2745524,22.2200647 41.9412067,22.0756574 42.4397119,21.8395948 C42.4398161,21.8406841 42.4400246,21.8416178 42.4402331,21.8427071 C42.9909656,21.5812799 43.3377926,21.2089018 43.3377926,20.7941974 C43.3377926,20.7932637 43.3376884,20.7924857 43.3376884,20.791552 C43.3376884,20.7907739 43.3377926,20.7899959 43.3377926,20.7890622 C43.3377926,20.1673946 42.5624096,19.6397163 41.4801258,19.4425567 C41.4809598,19.469633 41.4828362,19.4962426 41.4828362,19.5234746 C41.4828362,20.3721792 41.0219639,21.0601373 40.4534053,21.0601373 C39.8848466,21.0601373 39.4239743,20.3721792 39.4239743,19.5234746 C39.4239743,19.5099364 39.425121,19.496865 39.4253295,19.4834825 C39.1366718,19.5480612 38.8720951,19.6356704 38.6440044,19.7436647 C38.6437959,19.7425755 38.6435874,19.7416418 38.6434832,19.7405525 C38.0926464,20.0019797 37.7458194,20.3743578 37.7458194,20.7890622 C37.7458194,20.7899959 37.7459236,20.7907739 37.7459236,20.791552 C37.7459236,20.7924857 37.7458194,20.7932637 37.7458194,20.7941974 C37.7458194,21.5504688 38.8929443,22.1682461 40.344885,22.2200647" id="Fill-101"></path>
                        <path d="M7.13384125,16.1225703 C9.26647985,16.1225703 11.0743865,17.4611491 11.7100496,19.3158284 C11.8679923,19.7766487 11.9548076,20.2688135 11.9548076,20.7809247 C11.9548076,23.3536768 9.79633675,25.4392791 7.13384125,25.4392791 C5.85366832,25.4392791 4.69086127,24.9561188 3.82766165,24.1694302 C2.8955759,23.3200527 2.31299283,22.11654 2.31299283,20.7809247 C2.31299283,18.2081727 4.47146372,16.1225703 7.13384125,16.1225703 M35.8638331,19.1953517 C36.5352368,17.4032474 38.3116493,16.1225703 40.3979313,16.1225703 C43.0604268,16.1225703 45.2187797,18.2081727 45.2187797,20.7809247 C45.2187797,22.0276358 44.7109806,23.1589993 43.8856447,23.9950411 C43.0077006,24.8843115 41.7702276,25.4392791 40.3979313,25.4392791 C37.7355538,25.4392791 35.5770829,23.3536768 35.5770829,20.7809247 C35.5770829,20.2241334 35.6785248,19.690366 35.8638331,19.1953517 M2.33316325,25.8796971 C1.54569116,26.934922 0.944706999,28.0572811 0.552386425,29.2289935 C4.52560537,33.9696413 8.27895495,36.2825193 11.719604,36.0973022 C13.9003685,35.9805868 15.3006204,34.9454223 16.9220391,33.7468107 C18.7108369,32.4245311 20.738259,30.9256967 23.9401658,30.9084858 C27.1779311,30.8929845 29.259259,32.4062943 31.0907568,33.7432774 C32.7531061,34.9570483 34.1888626,36.0052065 36.399116,36.0966183 C39.8003679,36.2388651 43.4779899,33.9266709 47.3422178,29.231501 C46.9254804,27.9861577 46.2721239,26.7967785 45.4110475,25.6842217 C46.7200016,24.4344332 47.5317726,22.6995467 47.5317726,20.7809247 C47.5317726,16.9737715 44.3377688,13.8875405 40.3979313,13.8875405 C37.2914507,13.8875405 34.6501872,15.8067323 33.6711551,18.4845737 C30.6997337,17.6405533 27.4094781,17.1707286 23.9466534,17.1707286 C20.3558467,17.1707286 16.9507023,17.676115 13.8941169,18.5800888 C12.9433941,15.8526662 10.2770061,13.8875405 7.13384125,13.8875405 C3.19400376,13.8875405 -2.84217094e-14,16.9737715 -2.84217094e-14,20.7809247 C-2.84217094e-14,22.8014446 0.899765887,24.6188525 2.33316325,25.8796971" id="Fill-102"></path>
                    </g>
                    <path d="M36.0363667,38.4146179 C33.1137106,38.2841235 31.1701946,36.7528905 29.4554103,35.4020039 C27.7109799,34.0277798 26.2060616,32.8395225 23.7723897,32.8551623 C21.3750429,32.8690915 19.906567,34.0404871 18.2060784,35.3969943 C16.531369,36.7328521 14.6330838,38.2471012 11.7487449,38.4138848 C11.5794226,38.4236597 11.4098659,38.4285471 11.2400748,38.4285471 C7.60087457,38.4285471 3.83102077,36.1808165 0.00632761735,31.737895 C0.00351534297,31.8412643 -6.53699317e-13,31.9445113 -6.53699317e-13,32.0483692 C-6.53699317e-13,41.0808351 10.6403573,48.4029436 23.7658277,48.4029436 C36.8914153,48.4029436 47.5317726,41.0808351 47.5317726,32.0483692 C47.5317726,31.9540418 47.5280229,31.8602031 47.5257965,31.76612 C43.6373585,36.3451564 39.7807929,38.5798132 36.0363667,38.4146179" id="Fill-103"></path>
                </g>
            </g>
        </g>
    </g>
</svg>