<?xml version="1.0" encoding="UTF-8"?>
<svg width="182px" height="166px" viewBox="0 0 182 166" version="1.1" xmlns="http://www.w3.org/2000/svg" xmlns:xlink="http://www.w3.org/1999/xlink">
    <!-- Generator: Sketch 53.2 (72643) - https://sketchapp.com -->
    <title>Group 4</title>
    <desc>Created with Sketch.</desc>
    <defs>
        <linearGradient x1="35.0825731%" y1="55.2101871%" x2="0.582401246%" y2="62.5181809%" id="linearGradient-1">
            <stop stop-color="#DFE8FA" offset="0%"></stop>
            <stop stop-color="#C7D3EE" offset="100%"></stop>
        </linearGradient>
        <linearGradient x1="40.8711864%" y1="12.6929382%" x2="56.6677966%" y2="71.4822286%" id="linearGradient-2">
            <stop stop-color="#182030" offset="0%"></stop>
            <stop stop-color="#283550" offset="100%"></stop>
        </linearGradient>
        <linearGradient x1="40.8711864%" y1="27.6511737%" x2="56.6677966%" y2="62.8689469%" id="linearGradient-3">
            <stop stop-color="#182030" offset="0%"></stop>
            <stop stop-color="#283550" offset="100%"></stop>
        </linearGradient>
        <linearGradient x1="-0.0160676986%" y1="50.001811%" x2="99.9839323%" y2="50.001811%" id="linearGradient-4">
            <stop stop-color="#1CD38D" offset="0%"></stop>
            <stop stop-color="#1BCF8B" offset="42%"></stop>
            <stop stop-color="#1AC283" offset="87%"></stop>
            <stop stop-color="#19BD80" offset="100%"></stop>
        </linearGradient>
        <linearGradient x1="35.0825731%" y1="51.3153015%" x2="0.582401246%" y2="53.1601902%" id="linearGradient-5">
            <stop stop-color="#C7D3EE" offset="0%"></stop>
            <stop stop-color="#DFE8FA" offset="100%"></stop>
        </linearGradient>
        <linearGradient x1="35.0825731%" y1="51.3153015%" x2="0.582401246%" y2="53.1601902%" id="linearGradient-6">
            <stop stop-color="#DFE8FA" offset="0%"></stop>
            <stop stop-color="#C7D3EE" offset="100%"></stop>
        </linearGradient>
        <linearGradient x1="35.0825731%" y1="50.6216855%" x2="0.582401246%" y2="51.4936836%" id="linearGradient-7">
            <stop stop-color="#DFE8FA" offset="0%"></stop>
            <stop stop-color="#C7D3EE" offset="100%"></stop>
        </linearGradient>
        <linearGradient x1="-0.0160676986%" y1="50.001811%" x2="99.9839323%" y2="50.001811%" id="linearGradient-8">
            <stop stop-color="#1CD38D" offset="0%"></stop>
            <stop stop-color="#1BCF8B" offset="42%"></stop>
            <stop stop-color="#1AC283" offset="87%"></stop>
            <stop stop-color="#19BD80" offset="100%"></stop>
        </linearGradient>
    </defs>
    <g id="Page-1" stroke="none" stroke-width="1" fill="none" fill-rule="evenodd">
        <g id="AFFILIATI" transform="translate(-586.000000, -734.000000)" fill-rule="nonzero">
            <g id="Group-4" transform="translate(574.000000, 711.147675)">
                <path d="M109.163072,165.560783 C139.857604,165.560783 167.000007,188.885796 183.465876,165.560783 C193.94008,150.723369 203.127355,132.438997 200.094093,113.057734 C197.793371,98.3570866 179.395661,103.235722 165.119878,86.0007172 C143.224149,59.5662305 144.6,22 109.163072,22 C75.3477565,22 86.4139512,55.3244289 64.7680025,79.7307973 C47.7103632,98.9637279 23.5261343,93.0370611 18.2320501,113.057734 C13.2970901,131.720305 24.1190067,149.927929 34.1771619,164.579545 C50.5692638,188.457759 78.0401853,165.560783 109.163072,165.560783 Z" id="Oval" fill="url(#linearGradient-1)" opacity="0.2" transform="translate(108.840810, 98.963728) rotate(15.000000) translate(-108.840810, -98.963728) "></path>
                <g id="money-bag" transform="translate(55.000000, 57.852325)">
                    <path d="M41.58143,36.1358696 C40.4999615,36.1358696 39.3538534,36.1358696 38.2077453,36.263054 L38.0171418,36.263054 C17.1418981,38.2423076 0,58.1188018 0,80.2713128 C0,105.999947 23.8246279,109 41.58143,109 C59.2114391,109 79.7684576,106.319155 82.6324847,85.1874428 C85.6233045,60.4164317 66.020962,36.1358696 41.58143,36.1358696 Z" id="Path" fill="url(#linearGradient-2)"></path>
                    <path d="M63.7796145,10.6858713 L57.4347951,30.2119565 L26.0923788,30.2119565 L19.7475594,10.6858713 C19.3658788,9.7202957 19.5567191,8.62564148 20.1275877,7.78914442 C20.7620696,6.95264757 21.7137925,6.43717094 22.7291288,6.43717094 L32.8172264,6.43717094 C34.0861903,2.70310884 37.6394544,0 41.763587,0 C45.8877196,0 49.3773702,2.70310884 50.7099475,6.43717094 L60.7980451,6.43717094 C61.8133814,6.43717094 62.7651043,6.95264757 63.3995862,7.78914442 C63.9704548,8.62564148 64.1612951,9.7202957 63.7796145,10.6858713 L63.7796145,10.6858713 Z" id="Path" fill="url(#linearGradient-3)"></path>
                    <path d="M50.9456522,81.0518245 C50.9456522,85.1774068 48.3555857,88.6046484 44.6901645,89.9376941 L44.6901645,92.7938665 C44.6901645,94.5715363 43.3005133,95.9673913 41.5307442,95.9673913 C39.7609751,95.9673913 38.3713239,94.5715363 38.3713239,92.7938665 L38.3713239,90.0013298 C34.7059027,88.6682842 31.9891304,85.1774068 31.9891304,81.0518245 C31.9891304,79.2749811 33.4421346,77.8782997 35.1485507,77.8782997 C36.9183196,77.8782997 38.307971,79.2749811 38.307971,81.0518245 C38.307971,82.7658584 39.7609751,84.2253494 41.4673913,84.2253494 L41.5307442,84.2253494 C43.3005133,84.1617136 44.6268116,82.7658584 44.6268116,81.0518245 C44.6268116,79.2749811 43.3005133,77.9419354 41.5307442,77.8782997 L41.4673913,77.8782997 C36.2864355,77.8782997 31.9891304,73.56181 31.9891304,68.3577252 C31.9891304,64.1685071 34.7067254,60.6776298 38.3713239,59.4082199 L38.3713239,54.7115683 C38.3713239,52.9338985 39.7609751,51.5380435 41.5307442,51.5380435 C43.3005133,51.5380435 44.6901645,52.9338985 44.6901645,54.7115683 L44.6901645,59.4082199 C48.3555857,60.7412655 50.9456522,64.2321429 50.9456522,68.3577252 C50.9456522,70.071759 49.5560007,71.53125 47.7862319,71.53125 C46.0798157,71.53125 44.6268116,70.071759 44.6268116,68.3577252 C44.6268116,66.5808817 43.3005133,65.247836 41.5307442,65.1842003 L41.4673913,65.1842003 C39.7609751,65.1842003 38.307971,66.5808817 38.307971,68.3577252 C38.307971,70.071759 39.7609751,71.53125 41.4673913,71.53125 L41.5307442,71.53125 C46.7758756,71.5948857 50.9456522,75.7841038 50.9456522,81.0518245 Z" id="Path" fill="url(#linearGradient-4)"></path>
                    <path d="M109,64.3731884 C109,67.8485507 106.119462,70.692029 102.598805,70.692029 L86.3824438,77.0108696 L70.379456,70.692029 C66.8587987,70.692029 63.9782609,67.8485507 63.9782609,64.3731884 C63.9782609,60.8978261 66.8587987,58.0543478 70.379456,58.0543478 L102.598805,58.0543478 C106.119462,58.0543478 109,60.8978261 109,64.3731884 Z" id="Path" fill="url(#linearGradient-5)"></path>
                    <path d="M109,76.8134058 C109,80.2887681 106.119462,83.1322464 102.598805,83.1322464 L86.3824438,89.451087 L70.379456,83.1322464 C66.8587987,83.1322464 63.9782609,80.2887681 63.9782609,76.8134058 C63.9782609,73.3380435 66.8587987,70.4945652 70.379456,70.4945652 L102.598805,70.4945652 C106.119462,70.4945652 109,73.3380435 109,76.8134058 Z" id="Path" fill="url(#linearGradient-6)"></path>
                    <path d="M109,89.8460145 C109,93.3213768 106.119462,96.1648551 102.598805,96.1648551 L86.3824438,102.483696 L70.379456,96.1648551 C66.8587987,96.1648551 63.9782609,93.3213768 63.9782609,89.8460145 C63.9782609,86.3706522 66.8587987,83.5271739 70.379456,83.5271739 L102.598805,83.5271739 C106.119462,83.5271739 109,86.3706522 109,89.8460145 Z" id="Path" fill="url(#linearGradient-5)"></path>
                    <path d="M109,102.483696 C109,106.067663 106.119462,109 102.598805,109 L70.379456,109 C66.8587987,109 63.9782609,106.067663 63.9782609,102.483696 C63.9782609,98.8997283 66.8587987,95.9673913 70.379456,95.9673913 L102.598805,95.9673913 C106.119462,95.9673913 109,98.8997283 109,102.483696 Z" id="Path" fill="url(#linearGradient-7)"></path>
                    <path d="M63.9782609,31.9891304 C63.9782609,35.5730978 61.1220885,38.5054348 57.6312112,38.5054348 L25.8959627,38.5054348 C22.4050854,38.5054348 19.548913,35.5730978 19.548913,31.9891304 C19.548913,28.405163 22.4050854,25.4728261 25.8959627,25.4728261 L57.6312112,25.4728261 C61.1220885,25.4728261 63.9782609,28.405163 63.9782609,31.9891304 Z" id="Path" fill="url(#linearGradient-8)"></path>
                </g>
            </g>
        </g>
    </g>
</svg>