<?xml version="1.0" encoding="UTF-8"?>
<svg width="182px" height="166px" viewBox="0 0 182 166" version="1.1" xmlns="http://www.w3.org/2000/svg" xmlns:xlink="http://www.w3.org/1999/xlink">
    <!-- Generator: Sketch 53.2 (72643) - https://sketchapp.com -->
    <title>Group 4</title>
    <desc>Created with Sketch.</desc>
    <defs>
        <linearGradient x1="35.0825731%" y1="55.2101871%" x2="0.582401246%" y2="62.5181809%" id="linearGradient-1">
            <stop stop-color="#DFE8FA" offset="0%"></stop>
            <stop stop-color="#C7D3EE" offset="100%"></stop>
        </linearGradient>
        <linearGradient x1="36.2756876%" y1="85.7680752%" x2="0.582401246%" y2="53.6556367%" id="linearGradient-2">
            <stop stop-color="#DFE8FA" offset="0%"></stop>
            <stop stop-color="#C7D3EE" offset="100%"></stop>
        </linearGradient>
        <linearGradient x1="40.8711864%" y1="23.9440415%" x2="56.6677966%" y2="65.0035953%" id="linearGradient-3">
            <stop stop-color="#182030" offset="0%"></stop>
            <stop stop-color="#283550" offset="100%"></stop>
        </linearGradient>
        <linearGradient x1="-0.0160676986%" y1="50.001811%" x2="99.9839323%" y2="50.001811%" id="linearGradient-4">
            <stop stop-color="#1CD38D" offset="0%"></stop>
            <stop stop-color="#1BCF8B" offset="42%"></stop>
            <stop stop-color="#1AC283" offset="87%"></stop>
            <stop stop-color="#19BD80" offset="100%"></stop>
        </linearGradient>
        <linearGradient x1="-0.0160676986%" y1="50.001811%" x2="99.9839323%" y2="50.001811%" id="linearGradient-5">
            <stop stop-color="#1CD38D" offset="0%"></stop>
            <stop stop-color="#1BCF8B" offset="42%"></stop>
            <stop stop-color="#1AC283" offset="87%"></stop>
            <stop stop-color="#19BD80" offset="100%"></stop>
        </linearGradient>
        <linearGradient x1="35.0825731%" y1="50.1643167%" x2="0.582401246%" y2="50.3947932%" id="linearGradient-6">
            <stop stop-color="#DFE8FA" offset="0%"></stop>
            <stop stop-color="#C7D3EE" offset="100%"></stop>
        </linearGradient>
        <linearGradient x1="35.0825731%" y1="50.0521353%" x2="0.582401246%" y2="50.125262%" id="linearGradient-7">
            <stop stop-color="#DFE8FA" offset="0%"></stop>
            <stop stop-color="#C7D3EE" offset="100%"></stop>
        </linearGradient>
        <linearGradient x1="-0.0160676986%" y1="50.001811%" x2="99.9839323%" y2="50.001811%" id="linearGradient-8">
            <stop stop-color="#1CD38D" offset="0%"></stop>
            <stop stop-color="#1BCF8B" offset="42%"></stop>
            <stop stop-color="#1AC283" offset="87%"></stop>
            <stop stop-color="#19BD80" offset="100%"></stop>
        </linearGradient>
    </defs>
    <g id="Page-1" stroke="none" stroke-width="1" fill="none" fill-rule="evenodd">
        <g id="HOME-2" transform="translate(-193.000000, -1468.000000)">
            <g id="Group-4" transform="translate(181.000000, 1445.000000)">
                <path d="M109.163072,165.560783 C139.857604,165.560783 167.000007,188.885796 183.465876,165.560783 C193.94008,150.723369 203.127355,132.438997 200.094093,113.057734 C197.793371,98.3570866 179.395661,103.235722 165.119878,86.0007172 C143.224149,59.5662305 144.6,22 109.163072,22 C75.3477565,22 86.4139512,55.3244289 64.7680025,79.7307973 C47.7103632,98.9637279 23.5261343,93.0370611 18.2320501,113.057734 C13.2970901,131.720305 24.1190067,149.927929 34.1771619,164.579545 C50.5692638,188.457759 78.0401853,165.560783 109.163072,165.560783 Z" id="Oval" fill="url(#linearGradient-1)" fill-rule="nonzero" opacity="0.2" transform="translate(108.840810, 98.963728) rotate(15.000000) translate(-108.840810, -98.963728) "></path>
                <g id="Group" transform="translate(39.000000, 45.000000)">
                    <path d="M70.0503235,105.503497 L81.8503186,105.503497 C80.9848059,109.017123 81.3955606,112.461059 83.0825828,115.835305 C84.7696049,119.209551 87.5055155,122.059321 91.2903146,124.384615 L70.0503235,124.384615 L49.5969988,124.384615 C53.3817978,122.059321 56.1177084,119.209551 57.8047306,115.835305 C59.4917528,112.461059 59.9025075,109.017123 59.0369948,105.503497 L70.0503235,105.503497 Z" id="Combined-Shape" fill="url(#linearGradient-2)"></path>
                    <rect id="Rectangle" fill="url(#linearGradient-3)" x="1.61035226" y="8.07692308" width="136.879942" height="100.502044" rx="6.03076935"></rect>
                    <g id="Group-5" transform="translate(53.141625, 45.230769)">
                        <path d="M5.1329724,4.84615385 L5.63623293,4.84615385 L29.0323981,4.84615385 C29.7121332,4.84615385 30.2631673,5.397188 30.2631673,6.07692308 C30.2631673,6.17448607 30.2515667,6.27170302 30.2286099,6.36652665 L26.9136943,20.0588343 C26.7799999,20.6110611 26.2856626,21 25.7174825,21 L8.09991508,21 C7.53173501,21 7.0373977,20.6110611 6.90370328,20.0588343 L3.81818576,7.31405884 C3.80756687,7.29850782 3.79724452,7.2826407 3.78723144,7.26646055 L0.894209542,2.59061317 C0.537954338,2.01487889 0.708014369,1.26099466 1.273951,0.906755047 C1.84046129,0.553326788 2.58742149,0.73169656 2.94346047,1.30735463 L5.1329724,4.84615385 Z M20.4079197,15.9989644 C20.4501109,16.0033811 20.4919801,16.0055077 20.5335272,16.0055077 C21.1446558,16.0055077 21.6691476,15.5356966 21.7334006,14.9045924 L22.2902604,9.42978816 C22.3588614,8.75566157 21.8765609,8.15285729 21.2130958,8.08333441 C20.5494696,8.01479302 19.9560548,8.50357978 19.8876149,9.17754278 L19.3307551,14.6523471 C19.261993,15.3264736 19.7442935,15.9292779 20.4079197,15.9989644 Z M13.1613057,15.9989644 C13.8249318,15.9292779 14.3072324,15.3264736 14.2384703,14.6523471 L13.6816105,9.17754278 C13.6131705,8.50357978 13.0197557,8.01479302 12.3561295,8.08333441 C11.6926644,8.15285729 11.2103639,8.75566157 11.2789649,9.42978816 L11.8358247,14.9045924 C11.9000778,15.5356966 12.4245695,16.0055077 13.0356982,16.0055077 C13.0772453,16.0055077 13.1191145,16.0033811 13.1613057,15.9989644 Z" id="Combined-Shape" fill="url(#linearGradient-4)"></path>
                        <ellipse id="Oval" fill="url(#linearGradient-5)" cx="10.8698778" cy="25.4423077" rx="2.81811646" ry="2.82692308"></ellipse>
                        <ellipse id="Oval-Copy-4" fill="url(#linearGradient-5)" cx="23.7526959" cy="25.4423077" rx="2.81811646" ry="2.82692308"></ellipse>
                    </g>
                    <path d="M1.61035226,88.8461538 L138.490295,88.8461538 L138.490295,103.186014 C138.490295,106.516716 135.790227,109.216783 132.459525,109.216783 L7.64112161,109.216783 C4.31041967,109.216783 1.61035226,106.516716 1.61035226,103.186014 L1.61035226,88.8461538 Z" id="Rectangle" fill="url(#linearGradient-6)"></path>
                    <ellipse id="Oval-Copy" fill="#00574C" cx="69.2451474" cy="98.5384615" rx="4.83105679" ry="4.84615385"></ellipse>
                    <path d="M44.0903344,125.972518 C42.7829561,125.972518 41.7231165,124.909366 41.7231165,123.597902 C41.7231165,122.286438 42.7829561,121.223287 44.0903344,121.223287 L96.0103126,121.223287 C97.3176909,121.223287 98.3775305,122.286438 98.3775305,123.597902 C98.3775305,124.909366 97.3176909,125.972518 96.0103126,125.972518 L44.0903344,125.972518 Z" id="Path-5" fill="url(#linearGradient-7)"></path>
                    <path d="M7.89563118,-1.77635684e-15 L23.7373618,-1.77635684e-15 L23.7373618,28.1707337 C23.7373618,34.7256251 18.4235723,40.0394146 11.8686809,40.0394146 L11.8686809,40.0394146 C5.31378943,40.0394146 -4.52632783e-15,34.7256251 -5.32907052e-15,28.1707337 L-5.32907052e-15,7.89563118 C-5.86309449e-15,3.53499449 3.53499449,-2.75167771e-15 7.89563118,-3.55271368e-15 Z" id="Rectangle" fill="url(#linearGradient-8)"></path>
                    <path d="M23.3057734,-1.77635684e-15 L47.0431352,-1.77635684e-15 L47.0431352,28.1707337 C47.0431352,34.7256251 41.7293457,40.0394146 35.1744543,40.0394146 L35.1744543,40.0394146 C28.6195628,40.0394146 23.3057734,34.7256251 23.3057734,28.1707337 L23.3057734,-1.77635684e-15 Z" id="Rectangle-Copy-20" fill="url(#linearGradient-8)"></path>
                    <path d="M69.4857318,-1.77635684e-15 L93.2230935,-1.77635684e-15 L93.2230935,28.1707337 C93.2230935,34.7256251 87.9093041,40.0394146 81.3544126,40.0394146 L81.3544126,40.0394146 C74.7995212,40.0394146 69.4857318,34.7256251 69.4857318,28.1707337 L69.4857318,-1.77635684e-15 Z" id="Rectangle-Copy-22" fill="url(#linearGradient-8)"></path>
                    <path d="M46.1799584,-1.77635684e-15 L69.9173202,-1.77635684e-15 L69.9173202,28.1707337 C69.9173202,34.7256251 64.6035307,40.0394146 58.0486393,40.0394146 L58.0486393,40.0394146 C51.4937478,40.0394146 46.1799584,34.7256251 46.1799584,28.1707337 L46.1799584,-1.77635684e-15 Z" id="Rectangle-Copy-21" fill="url(#linearGradient-8)"></path>
                    <path d="M115.945363,-1.77635684e-15 L131.787094,-1.77635684e-15 C136.14773,-2.5773928e-15 139.682725,3.53499449 139.682725,7.89563118 L139.682725,28.1707337 C139.682725,34.7256251 134.368935,40.0394146 127.814044,40.0394146 L127.814044,40.0394146 C121.259152,40.0394146 115.945363,34.7256251 115.945363,28.1707337 L115.945363,-1.77635684e-15 Z" id="Rectangle-Copy-27" fill="url(#linearGradient-8)"></path>
                    <path d="M92.880174,-1.77635684e-15 L116.617536,-1.77635684e-15 L116.617536,28.1707337 C116.617536,34.7256251 111.303746,40.0394146 104.748855,40.0394146 L104.748855,40.0394146 C98.1939635,40.0394146 92.880174,34.7256251 92.880174,28.1707337 L92.880174,-1.77635684e-15 Z" id="Rectangle-Copy-23" fill="url(#linearGradient-8)"></path>
                </g>
            </g>
        </g>
    </g>
</svg>