<?xml version="1.0" encoding="UTF-8"?>
<svg width="32px" height="32px" viewBox="0 0 32 32" version="1.1" xmlns="http://www.w3.org/2000/svg" xmlns:xlink="http://www.w3.org/1999/xlink">
    <!-- Generator: Sketch 52.5 (67469) - http://www.bohemiancoding.com/sketch -->
    <title>Group 6</title>
    <desc>Created with Sketch.</desc>
    <defs>
        <polygon id="path-1" points="0 0 32.0039 0 32.0039 32 0 32"></polygon>
    </defs>
    <g id="Page-1" stroke="none" stroke-width="1" fill="none" fill-rule="evenodd">
        <g id="LOGIN" transform="translate(-434.000000, -591.000000)">
            <g id="Group-27" transform="translate(383.000000, 252.000000)">
                <g id="Group-6" transform="translate(51.000000, 339.000000)">
                    <g id="Group-3">
                        <mask id="mask-2" fill="white">
                            <use xlink:href="#path-1"></use>
                        </mask>
                        <g id="Clip-2"></g>
                        <path d="M22.0039,18 C20.5239,18 19.1529,17.57 17.9639,16.868 L17.6199,17.212 L16.4949,18.337 L14.5899,20.242 C14.2149,20.617 14.0039,21.126 14.0039,21.656 L14.0039,24 L12.0039,24 C10.8999,24 10.0039,24.896 10.0039,26 L10.0039,28 L7.6609,28 C7.1309,28 6.6219,28.211 6.2469,28.586 L4.8289,30.004 L2.0039,30 L2.0009,27.151 L13.6659,15.507 C13.6659,15.507 13.6659,15.508 13.6669,15.509 L15.1359,14.04 C14.4339,12.851 14.0039,11.48 14.0039,10 C14.0039,5.582 17.5859,2 22.0039,2 C26.4219,2 30.0039,5.582 30.0039,10 C30.0039,14.418 26.4219,18 22.0039,18 M22.0039,0 C16.4819,0 12.0039,4.478 12.0039,10 C12.0039,11.285 12.2729,12.501 12.7169,13.629 L0.5679,25.778 C0.2179,26.129 -0.0001,26.464 -0.0001,27 L-0.0001,30 C-0.0001,31.071 0.9289,32 1.9999,32 L4.9999,32 C5.5359,32 5.8749,31.786 6.2259,31.436 L7.6609,30 L10.0039,30 C11.1079,30 12.0039,29.104 12.0039,28 L12.0039,26 L14.0039,26 C15.1079,26 16.0039,25.104 16.0039,24 L16.0039,21.656 L18.3739,19.286 C19.5019,19.73 20.7179,20 22.0039,20 C27.5259,20 32.0039,15.522 32.0039,10 C32.0039,4.478 27.5259,0 22.0039,0" id="Fill-1" fill="#788696" mask="url(#mask-2)"></path>
                    </g>
                    <path d="M24.8203,11.0107 C23.3423,9.9477 22.0553,8.6597 21.0003,7.2177 C21.3863,6.1147 22.1113,5.3907 23.1823,4.9967 C24.6613,6.0627 25.9463,7.3457 26.9983,8.8077 C26.6083,9.9027 25.8853,10.6217 24.8203,11.0107 M27.8213,8.2397 C26.6993,6.6777 25.3343,5.3147 23.7663,4.1857 C23.5093,4.0007 23.1803,3.9537 22.8833,4.0587 C21.4943,4.5477 20.5443,5.4977 20.0563,6.8867 C20.0193,6.9897 20.0023,7.0987 20.0023,7.2057 C20.0023,7.4057 20.0643,7.6027 20.1833,7.7697 C21.3083,9.3337 22.6733,10.6977 24.2363,11.8227 C24.4923,12.0057 24.8213,12.0537 25.1183,11.9497 C26.5073,11.4637 27.4593,10.5127 27.9473,9.1217 C27.9843,9.0187 28.0023,8.9097 28.0023,8.8027 C28.0023,8.6037 27.9393,8.4067 27.8213,8.2397" id="Fill-4" fill="#788696"></path>
                </g>
            </g>
        </g>
    </g>
</svg>