<?xml version="1.0" encoding="UTF-8"?>
<svg width="182px" height="166px" viewBox="0 0 182 166" version="1.1" xmlns="http://www.w3.org/2000/svg" xmlns:xlink="http://www.w3.org/1999/xlink">
    <!-- Generator: Sketch 53.2 (72643) - https://sketchapp.com -->
    <title>Group 5</title>
    <desc>Created with Sketch.</desc>
    <defs>
        <linearGradient x1="35.0825731%" y1="55.2101871%" x2="0.582401246%" y2="62.5181809%" id="linearGradient-1">
            <stop stop-color="#DFE8FA" offset="0%"></stop>
            <stop stop-color="#C7D3EE" offset="100%"></stop>
        </linearGradient>
        <linearGradient x1="16.4026111%" y1="49.5404705%" x2="72.6181864%" y2="50.360502%" id="linearGradient-2">
            <stop stop-color="#1ED290" offset="0%"></stop>
            <stop stop-color="#1DCF8E" offset="39%"></stop>
            <stop stop-color="#1AC687" offset="60%"></stop>
            <stop stop-color="#17BB7E" offset="100%"></stop>
        </linearGradient>
        <linearGradient x1="40.8711864%" y1="26.1703573%" x2="56.6677966%" y2="63.7216336%" id="linearGradient-3">
            <stop stop-color="#182030" offset="0%"></stop>
            <stop stop-color="#283550" offset="100%"></stop>
        </linearGradient>
        <linearGradient x1="35.0825731%" y1="50.0456343%" x2="0.582401246%" y2="50.1096427%" id="linearGradient-4">
            <stop stop-color="#DFE8FA" offset="0%"></stop>
            <stop stop-color="#C7D3EE" offset="100%"></stop>
        </linearGradient>
        <linearGradient x1="35.0825731%" y1="50.3686482%" x2="0.582401246%" y2="50.8857272%" id="linearGradient-5">
            <stop stop-color="#DFE8FA" offset="0%"></stop>
            <stop stop-color="#C7D3EE" offset="100%"></stop>
        </linearGradient>
        <linearGradient x1="35.0825731%" y1="53.3178334%" x2="0.582401246%" y2="57.9715446%" id="linearGradient-6">
            <stop stop-color="#DFE8FA" offset="0%"></stop>
            <stop stop-color="#C7D3EE" offset="100%"></stop>
        </linearGradient>
        <linearGradient x1="-0.0160676986%" y1="50.001811%" x2="99.9839323%" y2="50.001811%" id="linearGradient-7">
            <stop stop-color="#1CD38D" offset="0%"></stop>
            <stop stop-color="#1BCF8B" offset="42%"></stop>
            <stop stop-color="#1AC283" offset="87%"></stop>
            <stop stop-color="#19BD80" offset="100%"></stop>
        </linearGradient>
        <linearGradient x1="16.4026111%" y1="49.8238991%" x2="72.6181864%" y2="50.1381516%" id="linearGradient-8">
            <stop stop-color="#1ED290" offset="0%"></stop>
            <stop stop-color="#1DCF8E" offset="39%"></stop>
            <stop stop-color="#1AC687" offset="60%"></stop>
            <stop stop-color="#17BB7E" offset="100%"></stop>
        </linearGradient>
        <linearGradient x1="35.0825731%" y1="50.298605%" x2="0.582401246%" y2="50.717439%" id="linearGradient-9">
            <stop stop-color="#DFE8FA" offset="0%"></stop>
            <stop stop-color="#C7D3EE" offset="100%"></stop>
        </linearGradient>
        <linearGradient x1="16.4026111%" y1="49.6548423%" x2="72.6181864%" y2="50.2707771%" id="linearGradient-10">
            <stop stop-color="#1ED290" offset="0%"></stop>
            <stop stop-color="#1DCF8E" offset="39%"></stop>
            <stop stop-color="#1AC687" offset="60%"></stop>
            <stop stop-color="#17BB7E" offset="100%"></stop>
        </linearGradient>
    </defs>
    <g id="Page-1" stroke="none" stroke-width="1" fill="none" fill-rule="evenodd">
        <g id="AFFILIATI" transform="translate(-777.000000, -1091.000000)" fill-rule="nonzero">
            <g id="Group-5" transform="translate(765.000000, 1068.147675)">
                <path d="M109.163072,165.560783 C139.857604,165.560783 167.000007,188.885796 183.465876,165.560783 C193.94008,150.723369 203.127355,132.438997 200.094093,113.057734 C197.793371,98.3570866 179.395661,103.235722 165.119878,86.0007172 C143.224149,59.5662305 144.6,22 109.163072,22 C75.3477565,22 86.4139512,55.3244289 64.7680025,79.7307973 C47.7103632,98.9637279 23.5261343,93.0370611 18.2320501,113.057734 C13.2970901,131.720305 24.1190067,149.927929 34.1771619,164.579545 C50.5692638,188.457759 78.0401853,165.560783 109.163072,165.560783 Z" id="Oval-Copy-2" fill="url(#linearGradient-1)" opacity="0.2" transform="translate(108.840810, 98.963728) rotate(15.000000) translate(-108.840810, -98.963728) "></path>
                <g id="laptop-2" transform="translate(39.000000, 62.852325)">
                    <g id="laptop">
                        <rect id="Rectangle" fill="#FFFFFF" x="13.21875" y="9.11160221" width="114.5625" height="70.718232"></rect>
                        <rect id="Rectangle" fill="url(#linearGradient-2)" x="13.21875" y="9.11160221" width="114.5625" height="17.679558"></rect>
                        <path d="M126.440924,0.271823204 L14.5549453,0.271823204 C8.95873242,0.271823204 4.40625,4.82790055 4.40625,10.4281768 L4.40625,90.879558 C4.40625,92.101105 5.39159766,93.0895028 6.609375,93.0895028 L134.390625,93.0895028 C135.608402,93.0895028 136.59375,92.101105 136.59375,90.879558 L136.59375,10.4281768 C136.59375,4.82790055 132.039064,0.271823204 126.440924,0.271823204 Z M13.21875,77.6198895 L13.21875,11.321547 C13.21875,10.101105 14.2051992,9.11160221 15.421875,9.11160221 L125.578125,9.11160221 C126.794801,9.11160221 127.78125,10.101105 127.78125,11.321547 L127.78125,77.6198895 C127.78125,78.8403315 126.794801,79.8298343 125.578125,79.8298343 L15.421875,79.8298343 C14.2051992,79.8298343 13.21875,78.8403315 13.21875,77.6198895 Z" id="Shape" fill="url(#linearGradient-3)"></path>
                        <path d="M138.796875,88.6696133 L2.203125,88.6696133 C0.985347656,88.6696133 0,89.658011 0,90.879558 C0,95.759116 3.95653711,99.7279006 8.82103711,99.7279006 L132.178688,99.7279006 C137.043188,99.7279006 140.999725,95.759116 140.999725,90.879558 C141,89.658011 140.014652,88.6696133 138.796875,88.6696133 Z" id="Path" fill="url(#linearGradient-4)"></path>
                        <path d="M39.65625,20.161326 L24.234375,20.161326 C23.0165977,20.161326 22.03125,19.1729282 22.03125,17.9513812 C22.03125,16.7298343 23.0165977,15.7414365 24.234375,15.7414365 L39.65625,15.7414365 C40.8740273,15.7414365 41.859375,16.7298343 41.859375,17.9513812 C41.859375,19.1729282 40.8740273,20.161326 39.65625,20.161326 Z" id="Path" fill="url(#linearGradient-5)"></path>
                        <path d="M79.3125,20.161326 L77.109375,20.161326 C75.8915977,20.161326 74.90625,19.1729282 74.90625,17.9513812 C74.90625,16.7298343 75.8915977,15.7414365 77.109375,15.7414365 L79.3125,15.7414365 C80.5302773,15.7414365 81.515625,16.7298343 81.515625,17.9513812 C81.515625,19.1729282 80.5302773,20.161326 79.3125,20.161326 Z" id="Path" fill="url(#linearGradient-6)"></path>
                        <path d="M90.328125,20.161326 L88.125,20.161326 C86.9072227,20.161326 85.921875,19.1729282 85.921875,17.9513812 C85.921875,16.7298343 86.9072227,15.7414365 88.125,15.7414365 L90.328125,15.7414365 C91.5459023,15.7414365 92.53125,16.7298343 92.53125,17.9513812 C92.53125,19.1729282 91.5459023,20.161326 90.328125,20.161326 Z" id="Path" fill="url(#linearGradient-6)"></path>
                        <path d="M101.34375,20.161326 L99.140625,20.161326 C97.9228477,20.161326 96.9375,19.1729282 96.9375,17.9513812 C96.9375,16.7298343 97.9228477,15.7414365 99.140625,15.7414365 L101.34375,15.7414365 C102.561527,15.7414365 103.546875,16.7298343 103.546875,17.9513812 C103.546875,19.1729282 102.561527,20.161326 101.34375,20.161326 Z" id="Path" fill="url(#linearGradient-6)"></path>
                        <path d="M112.359375,20.161326 L110.15625,20.161326 C108.938473,20.161326 107.953125,19.1729282 107.953125,17.9513812 C107.953125,16.7298343 108.938473,15.7414365 110.15625,15.7414365 L112.359375,15.7414365 C113.577152,15.7414365 114.5625,16.7298343 114.5625,17.9513812 C114.5625,19.1729282 113.577152,20.161326 112.359375,20.161326 Z" id="Path" fill="url(#linearGradient-6)"></path>
                        <path d="M61.6875,73.2 L24.234375,73.2 C23.0176992,73.2 22.03125,72.2104972 22.03125,70.9900552 L22.03125,35.6309392 C22.03125,34.4104972 23.0176992,33.4209945 24.234375,33.4209945 L61.6875,33.4209945 C62.9041758,33.4209945 63.890625,34.4104972 63.890625,35.6309392 L63.890625,70.9900552 C63.890625,72.2104972 62.9041758,73.2 61.6875,73.2 Z" id="Path" fill="url(#linearGradient-7)"></path>
                        <path d="M114.5625,37.840884 L72.703125,37.840884 C71.4853477,37.840884 70.5,36.8524862 70.5,35.6309392 C70.5,34.4093923 71.4853477,33.4209945 72.703125,33.4209945 L114.5625,33.4209945 C115.780277,33.4209945 116.765625,34.4093923 116.765625,35.6309392 C116.765625,36.8524862 115.780277,37.840884 114.5625,37.840884 Z" id="Path" fill="url(#linearGradient-8)"></path>
                        <path d="M90.328125,55.520442 L72.703125,55.520442 C71.4853477,55.520442 70.5,54.5320442 70.5,53.3104972 C70.5,52.0889503 71.4853477,51.1005525 72.703125,51.1005525 L90.328125,51.1005525 C91.5459023,51.1005525 92.53125,52.0889503 92.53125,53.3104972 C92.53125,54.5320442 91.5459023,55.520442 90.328125,55.520442 Z" id="Path" fill="url(#linearGradient-9)"></path>
                        <path d="M90.328125,64.360221 L72.703125,64.360221 C71.4853477,64.360221 70.5,63.3718232 70.5,62.1502762 C70.5,60.9287293 71.4853477,59.9403315 72.703125,59.9403315 L90.328125,59.9403315 C91.5459023,59.9403315 92.53125,60.9287293 92.53125,62.1502762 C92.53125,63.3718232 91.5459023,64.360221 90.328125,64.360221 Z" id="Path" fill="url(#linearGradient-9)"></path>
                        <path d="M90.328125,73.2 L72.703125,73.2 C71.4853477,73.2 70.5,72.2116022 70.5,70.9900552 C70.5,69.7685083 71.4853477,68.7801105 72.703125,68.7801105 L90.328125,68.7801105 C91.5459023,68.7801105 92.53125,69.7685083 92.53125,70.9900552 C92.53125,72.2116022 91.5459023,73.2 90.328125,73.2 Z" id="Path" fill="url(#linearGradient-9)"></path>
                        <path d="M116.765625,55.520442 L99.140625,55.520442 C97.9228477,55.520442 96.9375,54.5320442 96.9375,53.3104972 C96.9375,52.0889503 97.9228477,51.1005525 99.140625,51.1005525 L116.765625,51.1005525 C117.983402,51.1005525 118.96875,52.0889503 118.96875,53.3104972 C118.96875,54.5320442 117.983402,55.520442 116.765625,55.520442 Z" id="Path" fill="url(#linearGradient-9)"></path>
                        <path d="M116.765625,64.360221 L99.140625,64.360221 C97.9228477,64.360221 96.9375,63.3718232 96.9375,62.1502762 C96.9375,60.9287293 97.9228477,59.9403315 99.140625,59.9403315 L116.765625,59.9403315 C117.983402,59.9403315 118.96875,60.9287293 118.96875,62.1502762 C118.96875,63.3718232 117.983402,64.360221 116.765625,64.360221 Z" id="Path" fill="url(#linearGradient-9)"></path>
                        <path d="M116.765625,73.2 L99.140625,73.2 C97.9228477,73.2 96.9375,72.2116022 96.9375,70.9900552 C96.9375,69.7685083 97.9228477,68.7801105 99.140625,68.7801105 L116.765625,68.7801105 C117.983402,68.7801105 118.96875,69.7685083 118.96875,70.9900552 C118.96875,72.2116022 117.983402,73.2 116.765625,73.2 Z" id="Path" fill="url(#linearGradient-9)"></path>
                        <path d="M101.34375,46.680663 L72.703125,46.680663 C71.4853477,46.680663 70.5,45.6922652 70.5,44.4707182 C70.5,43.2491713 71.4853477,42.2607735 72.703125,42.2607735 L101.34375,42.2607735 C102.561527,42.2607735 103.546875,43.2491713 103.546875,44.4707182 C103.546875,45.6922652 102.561527,46.680663 101.34375,46.680663 Z" id="Path" fill="url(#linearGradient-10)"></path>
                    </g>
                </g>
            </g>
        </g>
    </g>
</svg>