<?xml version="1.0" encoding="UTF-8"?>
<svg width="182px" height="166px" viewBox="0 0 182 166" version="1.1" xmlns="http://www.w3.org/2000/svg" xmlns:xlink="http://www.w3.org/1999/xlink">
    <!-- Generator: Sketch 53.2 (72643) - https://sketchapp.com -->
    <title>Group 6</title>
    <desc>Created with Sketch.</desc>
    <defs>
        <linearGradient x1="35.0825731%" y1="55.2101871%" x2="0.582401246%" y2="62.5181809%" id="linearGradient-1">
            <stop stop-color="#DFE8FA" offset="0%"></stop>
            <stop stop-color="#C7D3EE" offset="100%"></stop>
        </linearGradient>
        <linearGradient x1="40.8711864%" y1="19.4430795%" x2="56.6677966%" y2="67.5953484%" id="linearGradient-2">
            <stop stop-color="#182030" offset="0%"></stop>
            <stop stop-color="#283550" offset="100%"></stop>
        </linearGradient>
        <linearGradient x1="40.8711864%" y1="1.82935886%" x2="56.6677966%" y2="77.7377171%" id="linearGradient-3">
            <stop stop-color="#182030" offset="0%"></stop>
            <stop stop-color="#283550" offset="100%"></stop>
        </linearGradient>
        <linearGradient x1="40.8711864%" y1="1.83073188%" x2="56.6677966%" y2="77.7369265%" id="linearGradient-4">
            <stop stop-color="#182030" offset="0%"></stop>
            <stop stop-color="#283550" offset="100%"></stop>
        </linearGradient>
        <linearGradient x1="16.4026111%" y1="38.8392067%" x2="72.6181864%" y2="58.7556687%" id="linearGradient-5">
            <stop stop-color="#1ED290" offset="0%"></stop>
            <stop stop-color="#1DCF8E" offset="39%"></stop>
            <stop stop-color="#1AC687" offset="60%"></stop>
            <stop stop-color="#17BB7E" offset="100%"></stop>
        </linearGradient>
        <linearGradient x1="-0.0160676986%" y1="50.001811%" x2="99.9839323%" y2="50.001811%" id="linearGradient-6">
            <stop stop-color="#1CD38D" offset="0%"></stop>
            <stop stop-color="#1BCF8B" offset="42%"></stop>
            <stop stop-color="#1AC283" offset="87%"></stop>
            <stop stop-color="#19BD80" offset="100%"></stop>
        </linearGradient>
        <linearGradient x1="40.8711864%" y1="46.0339606%" x2="56.6677966%" y2="52.2837329%" id="linearGradient-7">
            <stop stop-color="#182030" offset="0%"></stop>
            <stop stop-color="#283550" offset="100%"></stop>
        </linearGradient>
        <linearGradient x1="40.8711864%" y1="43.9546217%" x2="56.6677966%" y2="53.4810621%" id="linearGradient-8">
            <stop stop-color="#182030" offset="0%"></stop>
            <stop stop-color="#283550" offset="100%"></stop>
        </linearGradient>
        <linearGradient x1="40.8711864%" y1="1.83073188%" x2="56.6677966%" y2="77.7369265%" id="linearGradient-9">
            <stop stop-color="#182030" offset="0%"></stop>
            <stop stop-color="#283550" offset="100%"></stop>
        </linearGradient>
        <linearGradient x1="41.1018%" y1="1.66776318%" x2="56.4993536%" y2="77.8307675%" id="linearGradient-10">
            <stop stop-color="#182030" offset="0%"></stop>
            <stop stop-color="#283550" offset="100%"></stop>
        </linearGradient>
        <linearGradient x1="26.7631549%" y1="130.413158%" x2="52.04697%" y2="77.8307675%" id="linearGradient-11">
            <stop stop-color="#182030" offset="0%"></stop>
            <stop stop-color="#283550" offset="100%"></stop>
        </linearGradient>
        <linearGradient x1="40.8711864%" y1="39.9742924%" x2="56.6677966%" y2="55.7730235%" id="linearGradient-12">
            <stop stop-color="#182030" offset="0%"></stop>
            <stop stop-color="#283550" offset="100%"></stop>
        </linearGradient>
        <linearGradient x1="16.4026111%" y1="42.4140323%" x2="72.6181864%" y2="55.9512095%" id="linearGradient-13">
            <stop stop-color="#1ED290" offset="0%"></stop>
            <stop stop-color="#1DCF8E" offset="39%"></stop>
            <stop stop-color="#1AC687" offset="60%"></stop>
            <stop stop-color="#17BB7E" offset="100%"></stop>
        </linearGradient>
        <linearGradient x1="47.9006023%" y1="1.66776318%" x2="51.5334257%" y2="77.8307675%" id="linearGradient-14">
            <stop stop-color="#182030" offset="0%"></stop>
            <stop stop-color="#283550" offset="100%"></stop>
        </linearGradient>
        <linearGradient x1="16.4026111%" y1="47.2147022%" x2="72.6181864%" y2="52.1850727%" id="linearGradient-15">
            <stop stop-color="#1ED290" offset="0%"></stop>
            <stop stop-color="#1DCF8E" offset="39%"></stop>
            <stop stop-color="#1AC687" offset="60%"></stop>
            <stop stop-color="#17BB7E" offset="100%"></stop>
        </linearGradient>
        <linearGradient x1="32.9288082%" y1="30.7045206%" x2="61.4925419%" y2="65.1373491%" id="linearGradient-16">
            <stop stop-color="#1ED290" offset="0%"></stop>
            <stop stop-color="#1DCF8E" offset="39%"></stop>
            <stop stop-color="#1AC687" offset="60%"></stop>
            <stop stop-color="#17BB7E" offset="100%"></stop>
        </linearGradient>
        <linearGradient x1="16.4026111%" y1="44.64691%" x2="72.6181864%" y2="54.1995117%" id="linearGradient-17">
            <stop stop-color="#1ED290" offset="0%"></stop>
            <stop stop-color="#1DCF8E" offset="39%"></stop>
            <stop stop-color="#1AC687" offset="60%"></stop>
            <stop stop-color="#17BB7E" offset="100%"></stop>
        </linearGradient>
        <linearGradient x1="40.8711864%" y1="23.64477%" x2="56.6677966%" y2="65.1759224%" id="linearGradient-18">
            <stop stop-color="#182030" offset="0%"></stop>
            <stop stop-color="#283550" offset="100%"></stop>
        </linearGradient>
        <linearGradient x1="41.4890647%" y1="30.7045206%" x2="55.7296691%" y2="65.1373491%" id="linearGradient-19">
            <stop stop-color="#1ED290" offset="0%"></stop>
            <stop stop-color="#1DCF8E" offset="39%"></stop>
            <stop stop-color="#1AC687" offset="60%"></stop>
            <stop stop-color="#17BB7E" offset="100%"></stop>
        </linearGradient>
        <linearGradient x1="42.1700606%" y1="1.66776318%" x2="55.7190831%" y2="77.8307675%" id="linearGradient-20">
            <stop stop-color="#182030" offset="0%"></stop>
            <stop stop-color="#283550" offset="100%"></stop>
        </linearGradient>
        <linearGradient x1="40.8711864%" y1="39.9742905%" x2="56.6677966%" y2="55.7730245%" id="linearGradient-21">
            <stop stop-color="#182030" offset="0%"></stop>
            <stop stop-color="#283550" offset="100%"></stop>
        </linearGradient>
        <linearGradient x1="40.5953507%" y1="57.4191225%" x2="18.8448155%" y2="67.8254476%" id="linearGradient-22">
            <stop stop-color="#DFE8FA" offset="0%"></stop>
            <stop stop-color="#C7D3EE" offset="100%"></stop>
        </linearGradient>
        <linearGradient x1="35.0825731%" y1="54.5157196%" x2="0.582401246%" y2="60.8496284%" id="linearGradient-23">
            <stop stop-color="#DFE8FA" offset="0%"></stop>
            <stop stop-color="#C7D3EE" offset="100%"></stop>
        </linearGradient>
        <linearGradient x1="16.4026111%" y1="39.081779%" x2="72.6181864%" y2="58.5653701%" id="linearGradient-24">
            <stop stop-color="#1ED290" offset="0%"></stop>
            <stop stop-color="#1DCF8E" offset="39%"></stop>
            <stop stop-color="#1AC687" offset="60%"></stop>
            <stop stop-color="#17BB7E" offset="100%"></stop>
        </linearGradient>
        <linearGradient x1="16.4026111%" y1="39.5883638%" x2="72.6181864%" y2="58.1679532%" id="linearGradient-25">
            <stop stop-color="#1ED290" offset="0%"></stop>
            <stop stop-color="#1DCF8E" offset="39%"></stop>
            <stop stop-color="#1AC687" offset="60%"></stop>
            <stop stop-color="#17BB7E" offset="100%"></stop>
        </linearGradient>
        <linearGradient x1="40.8711864%" y1="36.1619006%" x2="56.6677966%" y2="57.9682827%" id="linearGradient-26">
            <stop stop-color="#182030" offset="0%"></stop>
            <stop stop-color="#283550" offset="100%"></stop>
        </linearGradient>
        <linearGradient x1="44.8195123%" y1="1.66776318%" x2="53.7838913%" y2="77.8307675%" id="linearGradient-27">
            <stop stop-color="#182030" offset="0%"></stop>
            <stop stop-color="#283550" offset="100%"></stop>
        </linearGradient>
        <linearGradient x1="40.8711864%" y1="47.4346738%" x2="56.6677966%" y2="51.4771714%" id="linearGradient-28">
            <stop stop-color="#182030" offset="0%"></stop>
            <stop stop-color="#283550" offset="100%"></stop>
        </linearGradient>
        <linearGradient x1="16.4026111%" y1="41.2352873%" x2="72.6181864%" y2="56.8759378%" id="linearGradient-29">
            <stop stop-color="#1ED290" offset="0%"></stop>
            <stop stop-color="#1DCF8E" offset="39%"></stop>
            <stop stop-color="#1AC687" offset="60%"></stop>
            <stop stop-color="#17BB7E" offset="100%"></stop>
        </linearGradient>
        <linearGradient x1="40.8711864%" y1="34.5668995%" x2="56.6677966%" y2="58.8867195%" id="linearGradient-30">
            <stop stop-color="#182030" offset="0%"></stop>
            <stop stop-color="#283550" offset="100%"></stop>
        </linearGradient>
        <linearGradient x1="39.4862392%" y1="57.4191225%" x2="15.1706145%" y2="67.8254476%" id="linearGradient-31">
            <stop stop-color="#DFE8FA" offset="0%"></stop>
            <stop stop-color="#C7D3EE" offset="100%"></stop>
        </linearGradient>
        <linearGradient x1="38.6357543%" y1="57.4191225%" x2="12.3531765%" y2="67.8254476%" id="linearGradient-32">
            <stop stop-color="#DFE8FA" offset="0%"></stop>
            <stop stop-color="#C7D3EE" offset="100%"></stop>
        </linearGradient>
        <linearGradient x1="38.746057%" y1="57.4191225%" x2="12.7185811%" y2="67.8254476%" id="linearGradient-33">
            <stop stop-color="#DFE8FA" offset="0%"></stop>
            <stop stop-color="#C7D3EE" offset="100%"></stop>
        </linearGradient>
        <linearGradient x1="43.3778688%" y1="57.4191225%" x2="28.0625825%" y2="67.8254476%" id="linearGradient-34">
            <stop stop-color="#DFE8FA" offset="0%"></stop>
            <stop stop-color="#C7D3EE" offset="100%"></stop>
        </linearGradient>
        <linearGradient x1="39.4817667%" y1="57.4191225%" x2="15.1557981%" y2="67.8254476%" id="linearGradient-35">
            <stop stop-color="#DFE8FA" offset="0%"></stop>
            <stop stop-color="#C7D3EE" offset="100%"></stop>
        </linearGradient>
        <linearGradient x1="38.6311708%" y1="57.4191225%" x2="12.3379927%" y2="67.8254476%" id="linearGradient-36">
            <stop stop-color="#DFE8FA" offset="0%"></stop>
            <stop stop-color="#C7D3EE" offset="100%"></stop>
        </linearGradient>
        <linearGradient x1="43.3779221%" y1="57.4191225%" x2="28.0627589%" y2="67.8254476%" id="linearGradient-37">
            <stop stop-color="#DFE8FA" offset="0%"></stop>
            <stop stop-color="#C7D3EE" offset="100%"></stop>
        </linearGradient>
        <linearGradient x1="40.8711864%" y1="49.7340577%" x2="56.6677966%" y2="50.1531355%" id="linearGradient-38">
            <stop stop-color="#182030" offset="0%"></stop>
            <stop stop-color="#283550" offset="100%"></stop>
        </linearGradient>
        <polygon id="path-39" points="1.55120203e-05 0.0545275305 15.5326513 0.0545275305 15.5326513 17.7838242 1.55120203e-05 17.7838242"></polygon>
        <linearGradient x1="38.5500896%" y1="57.4191225%" x2="12.0693916%" y2="67.8254476%" id="linearGradient-41">
            <stop stop-color="#DFE8FA" offset="0%"></stop>
            <stop stop-color="#C7D3EE" offset="100%"></stop>
        </linearGradient>
        <linearGradient x1="35.0825731%" y1="57.3941064%" x2="0.582401246%" y2="67.765343%" id="linearGradient-42">
            <stop stop-color="#DFE8FA" offset="0%"></stop>
            <stop stop-color="#C7D3EE" offset="100%"></stop>
        </linearGradient>
        <linearGradient x1="46.2580259%" y1="57.4191225%" x2="37.6038023%" y2="67.8254476%" id="linearGradient-43">
            <stop stop-color="#DFE8FA" offset="0%"></stop>
            <stop stop-color="#C7D3EE" offset="100%"></stop>
        </linearGradient>
        <linearGradient x1="35.0825731%" y1="51.8485266%" x2="0.582401246%" y2="54.4413358%" id="linearGradient-44">
            <stop stop-color="#DFE8FA" offset="0%"></stop>
            <stop stop-color="#C7D3EE" offset="100%"></stop>
        </linearGradient>
    </defs>
    <g id="Page-1" stroke="none" stroke-width="1" fill="none" fill-rule="evenodd">
        <g id="HOME-2" transform="translate(-585.000000, -1468.000000)">
            <g id="Group-6" transform="translate(573.000000, 1445.000000)">
                <path d="M109.163072,165.560783 C139.857604,165.560783 167.000007,188.885796 183.465876,165.560783 C193.94008,150.723369 203.127355,132.438997 200.094093,113.057734 C197.793371,98.3570866 179.395661,103.235722 165.119878,86.0007172 C143.224149,59.5662305 144.6,22 109.163072,22 C75.3477565,22 86.4139512,55.3244289 64.7680025,79.7307973 C47.7103632,98.9637279 23.5261343,93.0370611 18.2320501,113.057734 C13.2970901,131.720305 24.1190067,149.927929 34.1771619,164.579545 C50.5692638,188.457759 78.0401853,165.560783 109.163072,165.560783 Z" id="Oval" fill="url(#linearGradient-1)" fill-rule="nonzero" opacity="0.2" transform="translate(108.840810, 98.963728) rotate(15.000000) translate(-108.840810, -98.963728) "></path>
                <g id="Group" transform="translate(39.000000, 48.000000)">
                    <polyline id="Fill-7" fill="#202B41" transform="translate(21.912345, 68.140129) scale(-1, 1) translate(-21.912345, -68.140129) " points="14.2725608 69.9891961 22.1879878 67.6127248 26.0203888 61.9876742 29.792838 61.9876742 24.5558545 69.3947408 14.0318524 74.2925848 14.2725608 69.9891961"></polyline>
                    <path d="M12.654516,79.767784 L18.7136943,80.0260863 L20.5627309,82.8948621 L22.9292452,83.2323651 C22.9292452,83.2323651 23.1546275,87.563654 22.2530983,87.9574076 L18.1962165,87.9574076 L12.654516,79.767784" id="Fill-8" fill="url(#linearGradient-2)" transform="translate(17.804402, 83.862596) scale(-1, 1) translate(-17.804402, -83.862596) "></path>
                    <path d="M48.5234611,102.582539 C48.5234611,111.301817 41.4433009,118.370031 32.7092853,118.370031 C23.9752696,118.370031 16.8951094,111.301817 16.8951094,102.582539 C16.8951094,93.8632606 23.9752696,86.7945971 32.7092853,86.7945971 C41.4433009,86.7945971 48.5234611,93.8632606 48.5234611,102.582539" id="Fill-9" fill="url(#linearGradient-3)" transform="translate(32.709285, 102.582314) scale(-1, 1) translate(-32.709285, -102.582314) "></path>
                    <path d="M41.6993352,102.582539 C41.6993352,107.539334 37.674007,111.55787 32.7088345,111.55787 C27.7441128,111.55787 23.7187845,107.539334 23.7187845,102.582539 C23.7187845,97.6257444 27.7441128,93.6072083 32.7088345,93.6072083 C37.674007,93.6072083 41.6993352,97.6257444 41.6993352,102.582539" id="Fill-10" fill="#FFFFFE" transform="translate(32.709060, 102.582539) scale(-1, 1) translate(-32.709060, -102.582539) "></path>
                    <path d="M39.4707548,102.582539 C39.4707548,106.310822 36.4438703,109.3326 32.7092853,109.3326 C28.975151,109.3326 25.9478157,106.310822 25.9478157,102.582539 C25.9478157,98.8542555 28.975151,95.8324783 32.7092853,95.8324783 C36.4438703,95.8324783 39.4707548,98.8542555 39.4707548,102.582539" id="Fill-11" fill="url(#linearGradient-4)" transform="translate(32.709285, 102.582539) scale(-1, 1) translate(-32.709285, -102.582539) "></path>
                    <path d="M34.249548,103.145044 C34.249548,104.325405 33.2912224,105.282563 32.108416,105.282563 C30.9260603,105.282563 29.967284,104.325405 29.967284,103.145044 C29.967284,101.964233 30.9260603,101.007525 32.108416,101.007525 C33.2912224,101.007525 34.249548,101.964233 34.249548,103.145044" id="Fill-12" fill="#FFFFFE" transform="translate(32.108416, 103.145044) scale(-1, 1) translate(-32.108416, -103.145044) "></path>
                    <polygon id="Fill-13" fill="url(#linearGradient-5)" transform="translate(24.285846, 44.404666) scale(-1, 1) translate(-24.285846, -44.404666) " points="2.14113203 61.2465175 46.4305609 61.2465175 46.4305609 27.5628149 2.14113203 27.5628149"></polygon>
                    <polygon id="Fill-14" fill="url(#linearGradient-6)" transform="translate(42.063778, 43.818986) scale(-1, 1) translate(-42.063778, -43.818986) " points="37.696996 60.075157 46.4305609 60.075157 46.4305609 27.5628149 37.696996 27.5628149"></polygon>
                    <polyline id="Fill-16" fill="url(#linearGradient-7)" transform="translate(62.827125, 102.441913) scale(-1, 1) translate(-62.827125, -102.441913) " points="46.4305609 102.582539 46.4305609 105.957569 48.1772738 105.957569 48.1772738 104.270054 66.9403519 107.13883 66.9403519 105.788818 77.9840856 105.788818 79.2236883 97.7449955 72.178237 97.7449955 46.4305609 102.582539"></polyline>
                    <path d="M47.1786974,108.432592 L19.7947456,103.538798 C19.7947456,103.538798 18.2170694,101.176276 20.5272382,98.0824985 L48.4183002,102.357537 C48.4183002,102.357537 49.0944472,105.170062 47.1786974,108.432592" id="Fill-17" fill="url(#linearGradient-8)" transform="translate(33.901491, 103.257545) scale(-1, 1) translate(-33.901491, -103.257545) "></path>
                    <path d="M139.4197,102.582539 C139.4197,111.301817 132.339089,118.370031 123.605073,118.370031 C114.871058,118.370031 107.790897,111.301817 107.790897,102.582539 C107.790897,93.8632606 114.871058,86.7945971 123.605073,86.7945971 C132.339089,86.7945971 139.4197,93.8632606 139.4197,102.582539" id="Fill-18" fill="url(#linearGradient-9)" transform="translate(123.605299, 102.582314) scale(-1, 1) translate(-123.605299, -102.582314) "></path>
                    <path d="M132.595574,102.582539 C132.595574,107.539334 128.570696,111.55787 123.605073,111.55787 C118.639901,111.55787 114.615023,107.539334 114.615023,102.582539 C114.615023,97.6257444 118.639901,93.6072083 123.605073,93.6072083 C128.570696,93.6072083 132.595574,97.6257444 132.595574,102.582539" id="Fill-21" fill="#FFFFFE" transform="translate(123.605299, 102.582539) scale(-1, 1) translate(-123.605299, -102.582539) "></path>
                    <path d="M130.366993,102.582539 C130.366993,106.310822 127.340109,109.3326 123.605524,109.3326 C119.87139,109.3326 116.844054,106.310822 116.844054,102.582539 C116.844054,98.8542555 119.87139,95.8324783 123.605524,95.8324783 C127.340109,95.8324783 130.366993,98.8542555 130.366993,102.582539" id="Fill-22" fill="url(#linearGradient-4)" transform="translate(123.605524, 102.582539) scale(-1, 1) translate(-123.605524, -102.582539) "></path>
                    <path d="M125.145336,103.145044 C125.145336,104.325405 124.18656,105.282563 123.004204,105.282563 C121.821397,105.282563 120.863072,104.325405 120.863072,103.145044 C120.863072,101.964233 121.821397,101.007525 123.004204,101.007525 C124.18656,101.007525 125.145336,101.964233 125.145336,103.145044" id="Fill-23" fill="#FFFFFE" transform="translate(123.004204, 103.145044) scale(-1, 1) translate(-123.004204, -103.145044) "></path>
                    <path d="M78.725249,54.3754058 C78.725249,54.3754058 55.1939825,58.6081438 55.7592414,63.4051869 C56.324951,68.20223 68.480721,92.1136449 68.480721,92.1136449 L75.0217667,89.9162752 C75.0217667,89.9162752 65.3695435,69.2606396 66.6416013,66.5799655 C67.9136591,63.8992914 91.9394144,62.2765768 93.5644209,53.8115507 C80.703655,53.952402 78.725249,54.3754058 78.725249,54.3754058" id="Fill-24" fill="url(#linearGradient-10)" transform="translate(74.656820, 72.962598) scale(-1, 1) translate(-74.656820, -72.962598) "></path>
                    <path d="M75.9915693,91.4656391 C75.9915693,91.4656391 66.7779401,68.0627288 67.4540871,64.0878431 C68.06893,60.4747606 83.2790812,55.513466 86.0427192,54.6404582 L87.822338,54.7840095 C84.0913591,55.9666201 69.4311408,60.8325138 68.7531908,64.4631465 C68.1811704,67.524974 73.6507486,83.1828647 76.5829725,91.2491871 L75.9915693,91.4656391" id="Fill-25" fill="url(#linearGradient-11)" transform="translate(77.620476, 73.053049) scale(-1, 1) translate(-77.620476, -73.053049) "></path>
                    <path d="M74.8268018,92.0078939 C74.8268018,92.0078939 72.9894851,93.6657088 70.9046987,94.2655642 C68.820363,94.8649696 69.0322224,96.8053871 69.0322224,96.8053871 C69.0322224,96.8053871 84.6138036,96.240632 85.2498325,96.0993307 C85.8858615,95.9584794 86.804069,95.2528731 86.4511203,94.1598133 C86.0977208,93.0663035 83.801075,88.8335654 83.801075,88.8335654 L74.8268018,92.0078939" id="Fill-26" fill="url(#linearGradient-12)" transform="translate(77.777797, 92.819476) scale(-1, 1) translate(-77.777797, -92.819476) "></path>
                    <path d="M137.760485,99.8825147 C137.760485,99.8825147 133.478221,100.051266 129.534031,96.6762359 C125.58984,93.3012056 124.406583,87.6199045 102.150079,85.9886399 C102.150079,85.9886399 105.530814,78.7395247 112.855739,77.6955153 C120.180664,76.651056 126.906523,78.9595767 130.266523,83.1761146 C133.626523,87.3926525 137.027993,95.0449712 137.760485,98.138749 C138.154904,99.7137632 137.760485,99.8825147 137.760485,99.8825147" id="Fill-27" fill="url(#linearGradient-13)" transform="translate(120.042931, 88.664829) scale(-1, 1) translate(-120.042931, -88.664829) "></path>
                    <polyline id="Fill-28" fill="url(#linearGradient-14)" transform="translate(96.559420, 56.419999) scale(-1, 1) translate(-96.559420, -56.419999) " points="93.5918112 52.8192918 94.7187228 50.2317686 99.5270292 50.2317686 94.6105393 62.6082298 93.5918112 52.8192918"></polyline>
                    <path d="M13.393425,83.0447134 C13.393425,83.0447134 16.3170844,94.2196638 22.7026163,94.8199692 C29.0885989,95.4198246 46.2929329,94.8199692 46.2929329,94.8199692 C46.2929329,94.8199692 52.6036378,88.4447619 49.7484946,81.4696993 C46.8938022,74.4946366 45.3914036,73.2197751 45.3914036,73.2197751 L45.6167859,69.3947408 L85.8849434,69.3947408 L85.8849434,74.2696346 C85.8849434,74.2696346 100.534794,82.7477107 102.187748,99.8838647 L64.6990054,99.8838647 L63.1966068,103.145044 L25.4072041,103.145044 C25.4072041,103.145044 12.5730333,97.4448428 13.393425,83.0447134" id="Fill-29" fill="url(#linearGradient-15)" transform="translate(57.771727, 86.269892) scale(-1, 1) translate(-57.771727, -86.269892) "></path>
                    <path d="M101.535186,103.145044 L99.9746385,103.145044 L101.535186,103.145044 M99.8849363,103.103644 L95.055444,100.864424 L89.7026139,94.688118 L89.3942909,92.0267941 C92.4004403,99.3650101 99.037048,102.70179 99.8849363,103.103644 M90.1137112,88.5041625 C89.4411704,87.2131009 88.9304541,85.9499395 88.5757023,84.9644307 L88.5757023,84.9621806 L90.1132605,88.5019124 C90.1132605,88.5028125 90.1132605,88.5032625 90.1137112,88.5041625" id="Fill-30" fill="#377BB2" transform="translate(95.055444, 94.053612) scale(-1, 1) translate(-95.055444, -94.053612) "></path>
                    <path d="M101.535186,103.145044 L99.9746385,103.145044 L99.8849363,103.103644 C99.037048,102.70179 92.4004403,99.3650101 89.3942909,92.0267941 L88.5757023,84.9644307 C88.9304541,85.9499395 89.4411704,87.2131009 90.1137112,88.5041625 C91.7644114,97.354392 101.535186,103.145044 101.535186,103.145044" id="Fill-31" fill="url(#linearGradient-16)" transform="translate(95.055444, 94.054737) scale(-1, 1) translate(-95.055444, -94.054737) "></path>
                    <path d="M70.1017987,73.0694738 L29.7006656,71.645661 C29.7006656,71.645661 29.0822165,63.0946842 30.0590235,61.8945234 C31.0353797,60.6943626 68.5994001,61.4445193 69.1254425,61.8945234 C69.651034,62.3445274 70.627841,65.2695537 70.1017987,73.0694738" id="Fill-39" fill="#202B41" transform="translate(49.880154, 67.157963) scale(-1, 1) translate(-49.880154, -67.157963) "></path>
                    <path d="M20.9609367,99.8838647 C20.9609367,99.8838647 13.9051178,96.4512339 14.0335857,89.2511692 C14.1620536,82.0511045 17.8245163,77.8323166 24.8677138,77.0448095 C31.9109113,76.2573024 42.278498,77.6635651 48.5328573,83.5698681 C54.7872167,89.4761712 57.7735324,99.8838647 57.7735324,99.8838647 L20.9609367,99.8838647" id="Fill-40" fill="url(#linearGradient-17)" transform="translate(35.902692, 88.364197) scale(-1, 1) translate(-35.902692, -88.364197) "></path>
                    <path d="M90.9591137,40.8568343 L90.9591137,49.5945629 C90.9591137,49.5945629 99.5236418,50.0445669 101.514218,49.1445588 C103.505246,48.2445507 103.542659,43.4817079 100.838071,42.1316958 C98.1334836,40.7816837 90.9591137,40.8568343 90.9591137,40.8568343" id="Fill-42" fill="url(#linearGradient-18)" transform="translate(96.952146, 45.281572) scale(-1, 1) translate(-96.952146, -45.281572) "></path>
                    <path d="M90.9588949,45.7317281 L98.3965115,47.719396 L101.330088,47.719396 L101.330088,45.8113789 C101.330088,45.2074734 100.937472,44.6751186 100.358239,44.5000671 C97.7798655,43.7193101 90.9588949,42.0065947 90.9588949,45.7317281" id="Fill-43" fill="#202B41" transform="translate(96.144491, 45.570442) scale(-1, 1) translate(-96.144491, -45.570442) "></path>
                    <polygon id="Fill-44" fill="#202B41" transform="translate(102.511542, 45.197348) scale(-1, 1) translate(-102.511542, -45.197348) " points="101.948086 49.7070639 103.074998 49.7070639 103.074998 40.6876328 101.948086 40.6876328"></polygon>
                    <polyline id="Fill-45" fill="#377BB2" transform="translate(70.079251, 71.979789) scale(-1, 1) translate(-70.079251, -71.979789) " points="70.0596432 72.313917 70.0596432 72.313917 70.0988598 71.645661 70.0596432 72.313917"></polyline>
                    <path d="M104.7861,52.2945871 C104.7861,52.2945871 98.0999084,68.644584 93.9677489,70.6696022 C93.9677489,70.6696022 90.4369095,72.3944677 90.1362495,77.3445122 C90.1362495,77.3445122 96.6723367,80.7946932 97.4611749,81.9197033 C98.250013,83.0447134 101.931408,101.345028 115.754556,103.145044 C115.754556,103.145044 104.7861,96.6946861 104.410613,84.0198722 C104.034676,71.3446083 108.354804,59.8884053 108.523841,58.4821427 C108.692877,57.0758801 108.936741,51.6758316 104.7861,52.2945871" id="Fill-47" fill="url(#linearGradient-19)" transform="translate(102.945403, 77.695234) scale(-1, 1) translate(-102.945403, -77.695234) "></path>
                    <path d="M67.8860216,54.5167071 C67.8860216,54.5167071 48.7357367,60.3010591 47.9586184,64.4631465 C47.1815002,68.6252338 57.5689205,96.0673804 57.5689205,96.0673804 L66.5431937,92.8926019 C66.5431937,92.8926019 59.8304067,71.2357073 60.4659849,70.4599003 C61.1020138,69.6836434 81.5946758,67.0029693 84.5625102,64.1103433 C87.5303445,61.2186173 86.2582867,54.3754058 86.2582867,54.3754058 L67.8860216,54.5167071" id="Fill-48" fill="url(#linearGradient-20)" transform="translate(67.223189, 75.221393) scale(-1, 1) translate(-67.223189, -75.221393) "></path>
                    <polyline id="Fill-49" fill="#D5C379" transform="translate(71.158833, 54.482057) scale(-1, 1) translate(-71.158833, -54.482057) " points="71.1595089 54.4820568 71.1581567 54.4820568 71.1595089 54.4820568"></polyline>
                    <path d="M70.8980655,54.6404582 L68.9381408,54.4820568 L71.1581567,54.5585575 C71.090542,54.5797076 71.0035444,54.6071579 70.8980655,54.6404582" id="Fill-50" fill="#ED9830" transform="translate(70.048149, 54.561257) scale(-1, 1) translate(-70.048149, -54.561257) "></path>
                    <path d="M70.9754703,96.0673804 C70.9754703,96.0673804 69.1381537,97.7251953 67.0533672,98.3250507 C64.9690315,98.9244561 65.1808909,100.864424 65.1808909,100.864424 C65.1808909,100.864424 80.7624722,100.300118 81.3980503,100.159267 C82.03453,100.017516 82.9527376,99.3123596 82.5997889,98.2188498 C82.2463894,97.1253399 79.9497435,92.8926019 79.9497435,92.8926019 L70.9754703,96.0673804" id="Fill-53" fill="url(#linearGradient-21)" transform="translate(73.926464, 96.878513) scale(-1, 1) translate(-73.926464, -96.878513) "></path>
                    <polygon id="Fill-54" fill="#202B41" transform="translate(23.749662, 61.341693) scale(-1, 1) translate(-23.749662, -61.341693) " points="6.03961325e-14 62.6082298 47.4993238 62.6082298 47.4993238 60.075157 6.03961325e-14 60.075157"></polygon>
                    <path d="M56.1213352,5.13551337 C56.1213352,5.13551337 53.8129695,8.09833999 54.6608578,15.2466542 C55.508746,22.3949685 55.5560763,22.6303206 56.1213352,22.6303206 C56.686594,22.6303206 61.9154639,21.0314562 62.9522225,21.6898121 C63.9885304,22.348168 64.8364187,24.1823845 64.8364187,24.1823845 L71.1326992,21.4283598 C71.1326992,21.4283598 73.9490767,7.39363366 69.147081,4.05370365 C65.5973094,1.58453147 59.3010289,1.14982756 56.1213352,5.13551337" id="Fill-57" fill="url(#linearGradient-22)" transform="translate(63.213548, 13.175151) scale(-1, 1) translate(-63.213548, -13.175151) "></path>
                    <path d="M71.9316688,11.4855204 C71.923555,11.4787704 71.9194981,11.4751703 71.9194981,11.4751703 L71.9533055,11.0103162 C71.9442902,11.1651176 71.9370779,11.323519 71.9316688,11.4855204" id="Fill-59" fill="#CDCAA4" transform="translate(71.936402, 11.247918) scale(-1, 1) translate(-71.936402, -11.247918) "></path>
                    <path d="M53.3051724,14.0667436 C53.3407828,13.886292 53.3741394,13.7089904 53.4047914,13.5343888 C53.4061436,13.5339388 53.4079467,13.5334888 53.409299,13.5330388 L53.3051724,14.0667436" id="Fill-61" fill="#CDCAA4" transform="translate(53.357236, 13.799891) scale(-1, 1) translate(-53.357236, -13.799891) "></path>
                    <path d="M92.4355154,40 L85.5613547,42.1433693 C85.5613547,42.1433693 84.5430774,43.3840304 85.2494256,44.565291 C85.9557738,45.7465516 86.9699942,46.899912 87.5618482,46.899912 C88.1532514,46.899912 88.519723,46.3099567 88.519723,46.2532562 C88.519723,46.1965557 87.5897956,43.9285353 88.9141421,43.7408836 C90.2380378,43.5527819 91.421295,46.7028102 93.8441549,43.6090324 L92.4355154,40" id="Fill-76-Copy" fill="url(#linearGradient-23)" transform="translate(89.422077, 43.449956) scale(-1, 1) translate(-89.422077, -43.449956) "></path>
                    <path d="M54.5857947,16.3874145 L53.30968,15.9153602 C56.6841041,15.559857 60.7892177,14.2926457 63.0277149,13.5343888 C62.9970629,13.7089904 62.9637063,13.886292 62.9280959,14.0667436 C60.568343,14.9654017 57.4440933,15.8586597 54.5857947,16.3874145" id="Fill-62" fill="#00574C" transform="translate(58.168697, 14.960902) scale(-1, 1) translate(-58.168697, -14.960902) "></path>
                    <path d="M72.9077562,12.9498336 C72.9077562,12.9498336 62.2994612,16.9706197 57.9374118,15.7952092 C53.5749116,14.6193486 57.0881712,13.5078386 51.6420328,9.51000268 C51.6420328,9.51000268 51.4098891,2.36213845 58.1181684,0.604422659 C63.9515136,-0.923791072 73.3855667,-0.453536847 72.9077562,12.9498336" id="Fill-63" fill="url(#linearGradient-24)" transform="translate(62.283143, 8.005248) scale(-1, 1) translate(-62.283143, -8.005248) "></path>
                    <path d="M80.0171616,25.3109947 C80.0171616,25.3109947 76.4840684,30.1786884 73.516234,35.3991853 C67.3682551,37.2329518 57.0516048,40.7605335 57.0516048,40.7605335 L58.776681,46.1218816 C58.776681,46.1218816 74.3641223,42.5240993 77.7561262,41.042686 C81.1476793,39.5612727 87.7198277,31.4485998 88.2143165,28.0623194 C88.7088054,24.676039 84.5396832,20.6552528 80.0171616,25.3109947" id="Fill-65" fill="url(#linearGradient-25)" transform="translate(72.652956, 34.661636) scale(-1, 1) translate(-72.652956, -34.661636) "></path>
                    <polyline id="Fill-66" fill="#377BB2" transform="translate(87.241664, 43.908087) scale(-1, 1) translate(-87.241664, -43.908087) " points="87.341058 44.2170145 87.1422707 43.599159 87.341058 44.2170145"></polyline>
                    <path d="M66.8456914,44.2170145 L66.4061958,42.8508023 L85.3964593,36.037741 C85.3964593,36.037741 86.2402907,34.6787288 87.4393246,32.8863627 C87.4451846,33.9920227 87.4812458,35.0157819 87.5452543,35.8455893 C87.5632849,36.0800414 87.5750048,36.3342937 87.5817663,36.6056461 L85.2837681,39.3002704 L67.6097374,43.9785124 L66.8456914,44.2170145" id="Fill-67" fill="url(#linearGradient-26)" transform="translate(76.993981, 38.551689) scale(-1, 1) translate(-76.993981, -38.551689) "></path>
                    <path d="M45.0426268,54.4820568 C45.0426268,54.4820568 44.718527,50.1426678 48.4873701,48.1203496 C49.1937183,45.4401255 49.9947271,38.9029168 49.7594279,35.8455893 C49.523678,32.7887118 49.6652181,27.0984107 50.3246868,24.3704862 C52.1620035,21.45491 59.7934488,18.3035317 67.5664342,22.9597235 C67.5664342,22.9597235 70.8466485,31.3797492 69.9987602,46.6879867 C69.9987602,46.6879867 73.6048773,52.8750923 68.1429622,55.2781139 L45.0426268,54.4820568" id="Fill-68" fill="url(#linearGradient-27)" transform="translate(58.101068, 37.934274) scale(-1, 1) translate(-58.101068, -37.934274) "></path>
                    <path d="M55.1605196,21.6691119 C53.8258055,21.1480072 52.5136297,20.8352544 51.2559963,20.6899031 C51.2970159,20.448701 51.344797,20.1543983 51.3957334,19.8150953 L55.1605196,21.6691119" id="Fill-69" fill="#377BB2" transform="translate(53.208258, 20.742104) scale(-1, 1) translate(-53.208258, -20.742104) "></path>
                    <path d="M55.0207826,21.9908648 L55.979559,19.8375955 L61.6325983,19.1436892 L62.9952598,19.8150953 C62.9443234,20.1543983 62.8965424,20.448701 62.8555228,20.6899031 C62.270881,20.6219525 61.6984099,20.5904522 61.1399126,20.5904522 C58.7589737,20.5904522 56.6412815,21.1673574 55.0207826,21.9908648" id="Fill-70" fill="#22748B" transform="translate(59.008021, 20.567277) scale(-1, 1) translate(-59.008021, -20.567277) "></path>
                    <path d="M48.3801179,24.1823845 L49.3560234,21.9908648 C50.9765222,21.1673574 53.0942145,20.5904522 55.4751533,20.5904522 C56.0336507,20.5904522 56.6061218,20.6219525 57.1907636,20.6899031 C58.4483969,20.8352544 59.7605728,21.1480072 61.0952869,21.6691119 L63.7155817,22.9597235 L63.9711653,24.0329832 C63.9711653,24.0329832 62.6729631,23.9249822 58.6160813,22.237917 C57.8511338,21.9193142 57.0113592,21.790613 56.1513003,21.790613 C52.4491703,21.790613 48.3801179,24.1823845 48.3801179,24.1823845" id="Fill-71" fill="url(#linearGradient-28)" transform="translate(56.175642, 22.386418) scale(-1, 1) translate(-56.175642, -22.386418) "></path>
                    <path d="M66.9885837,47.0443899 L67.466845,44.2170145 L67.4672958,44.2165645 C67.319445,45.2605739 67.1549159,46.2339327 66.9890345,47.0443899 C66.9885837,47.0443899 66.9885837,47.0443899 66.9885837,47.0443899" id="Fill-72" fill="#377BB2" transform="translate(67.227940, 45.630477) scale(-1, 1) translate(-67.227940, -45.630477) "></path>
                    <path d="M68.8357939,36.7392973 C67.4226467,37.4449037 50.2097482,43.5114082 50.2097482,43.5114082 L51.9469951,48.8732064 C51.9469951,48.8732064 70.3197111,44.8519702 72.0154876,44.0055126 C73.711715,43.159055 83.958046,36.3162935 85.8656819,33.5649688 C86.7631543,32.2707572 86.784791,29.6346335 85.7182819,27.4476139 C83.8241689,23.5627289 78.315825,23.3615771 75.9556213,26.9832097 C73.6747523,30.4828911 69.8148547,36.250593 68.8357939,36.7392973" id="Fill-74" fill="url(#linearGradient-29)" transform="translate(68.369490, 36.634072) scale(-1, 1) translate(-68.369490, -36.634072) "></path>
                    <path d="M49.0539869,26.0643014 C49.0539869,26.0643014 47.6602226,26.2047027 47.0003032,22.5362697 C50.0389076,20.0675475 53.3601415,18.3741823 54.0903802,17.5983754 C54.8206189,16.8221184 59.4842299,12.8953831 67.5046851,14.4118967 C68.4233434,18.3975825 68.7411325,22.4323188 66.8334965,23.2013757 C64.9254098,23.9708826 58.233358,17.0115701 49.0539869,26.0643014" id="Fill-75" fill="url(#linearGradient-30)" transform="translate(57.616724, 20.065909) scale(-1, 1) translate(-57.616724, -20.065909) "></path>
                    <path d="M92.4051006,43.9785124 L85.5309399,46.1218816 C85.5309399,46.1218816 84.5126626,47.3625428 85.2190108,48.5438034 C85.9253589,49.725064 86.9395794,50.8784244 87.5314333,50.8784244 C88.1228366,50.8784244 88.4893082,50.2884691 88.4893082,50.2317686 C88.4893082,50.1750681 87.5593808,47.9070477 88.8837273,47.719396 C90.207623,47.5312943 91.3908802,50.6813226 93.8137401,47.5875448 L92.4051006,43.9785124" id="Fill-76" fill="url(#linearGradient-23)" transform="translate(89.391663, 47.428468) scale(-1, 1) translate(-89.391663, -47.428468) "></path>
                    <polyline id="Fill-77" fill="#016F61" transform="translate(67.041323, 18.361807) scale(-1, 1) translate(-67.041323, -18.361807) " points="66.6518626 14.549598 65.8495015 22.1740165 67.3126835 21.8815138 68.2331449 14.6814491 66.6518626 14.549598"></polyline>
                    <path d="M18.7928286,65.0343141 L18.7928286,65.0343141 L18.8333974,64.7818993 L18.7928286,65.0343141 M15.0591451,65.0343141 L15.0591451,65.0343141 L15.365665,63.0487837 L15.0591451,65.0343141" id="Fill-78" fill="#2A313F" transform="translate(16.946271, 64.042543) scale(-1, 1) translate(-16.946271, -64.042543) "></path>
                    <path d="M90.790309,48.8070558 C90.790309,49.6256131 90.1258819,50.2889191 89.305941,50.2889191 C88.4864509,50.2889191 87.8220238,49.6256131 87.8220238,48.8070558 C87.8220238,47.9889484 88.4864509,47.3256425 89.305941,47.3256425 C90.1258819,47.3256425 90.790309,47.9889484 90.790309,48.8070558" id="Fill-80" fill="#202B41" transform="translate(89.306166, 48.807281) scale(-1, 1) translate(-89.306166, -48.807281) "></path>
                    <path d="M72.4862111,14.7453497 C72.4862111,14.7453497 70.9639789,18.000229 71.0766701,18.11273 C71.1893613,18.225231 73.2367343,18.3188318 73.2367343,18.3188318 L72.4862111,14.7453497" id="Fill-81" fill="#C7D3EE" transform="translate(72.153721, 16.532091) scale(-1, 1) translate(-72.153721, -16.532091) "></path>
                    <path d="M58.7544661,2.90844336 C58.6106722,3.36789749 57.8317509,3.53394898 57.0149653,3.27924669 C56.1981798,3.0240944 55.6527546,2.4449392 55.7965485,1.98548507 C55.9403424,1.52603094 56.7192637,1.35997945 57.5360493,1.61468174 C58.3528348,1.86938403 58.89826,2.44853923 58.7544661,2.90844336" id="Fill-82" fill="#FFFFFE" transform="translate(57.275507, 2.446964) scale(-1, 1) translate(-57.275507, -2.446964) "></path>
                    <path d="M78.3851422,97.7679457 L79.0441601,98.6396035 C79.118987,98.7390544 79.2600764,98.7584046 79.3596954,98.6837039 C79.4588636,98.6090033 79.4786972,98.467702 79.4038703,98.3687011 L78.7448524,97.4965933 C78.6700255,97.3975924 78.5284854,97.3777922 78.4293172,97.4524929 C78.3296982,97.5276435 78.3098645,97.6684948 78.3851422,97.7679457" id="Fill-83" fill="url(#linearGradient-31)" transform="translate(78.894343, 98.068165) scale(-1, 1) translate(-78.894343, -98.068165) "></path>
                    <path d="M77.5399994,97.2553911 L78.2815073,98.1715993 C78.3599403,98.2683502 78.5019312,98.2836503 78.5983948,98.2053496 C78.6953092,98.1274989 78.7101844,97.9857477 78.6322021,97.8889968 L77.8902435,96.9727886 C77.8122613,96.8760377 77.6702704,96.8611876 77.573356,96.9390383 C77.4764416,97.017339 77.4615664,97.1590902 77.5399994,97.2553911" id="Fill-84" fill="url(#linearGradient-32)" transform="translate(78.085917, 97.572288) scale(-1, 1) translate(-78.085917, -97.572288) "></path>
                    <path d="M76.6872357,96.7032361 L77.4630017,97.6653448 C77.5409839,97.7620957 77.6829748,97.7773958 77.7798892,97.6995451 C77.8768036,97.6216944 77.8921296,97.4799431 77.8141473,97.3831922 L77.0383814,96.4210836 C76.9603991,96.3243327 76.818859,96.3090326 76.7214938,96.3868833 C76.6245794,96.464734 76.6092534,96.6064853 76.6872357,96.7032361" id="Fill-85" fill="url(#linearGradient-33)" transform="translate(77.250692, 97.043214) scale(-1, 1) translate(-77.250692, -97.043214) "></path>
                    <path d="M75.4638528,96.3720332 L75.2429781,96.4156836 C75.2443304,96.4210836 75.3457525,96.9385883 75.530566,97.467793 C75.6234235,97.7328454 75.7352131,98.0010478 75.8767532,98.2188498 C75.947974,98.3277507 76.0264071,98.4254016 76.124223,98.5037023 C76.2202359,98.580653 76.3441962,98.6405035 76.4857362,98.6405035 C76.5772415,98.6409535 76.6687467,98.6148533 76.7498843,98.5698529 C76.8350788,98.5230525 76.909455,98.4546519 76.9567853,98.3714011 C77.0050171,98.2881504 77.0244,98.1949995 77.0239492,98.1085988 C77.0198923,97.8763967 76.9126104,97.6725448 76.7787333,97.463743 C76.3721436,96.8485874 75.6175636,96.2091317 75.6108021,96.2010316 L75.116764,95.7780278 L75.2429781,96.4156836 L75.4638528,96.3720332 L75.3173543,96.5425847 L75.3714461,96.5902851 C75.4949556,96.7000861 75.8095893,96.9876387 76.085908,97.3039915 C76.2242928,97.461943 76.3527607,97.6270944 76.4420121,97.7746958 C76.5330665,97.9209471 76.5763399,98.0527983 76.5731846,98.1085988 L76.5659724,98.1472991 L76.5317142,98.1756494 L76.4857362,98.1904995 C76.4731148,98.1904995 76.4492243,98.1864495 76.4050494,98.1517992 C76.3284194,98.0932986 76.2242928,97.9456973 76.1350414,97.7589456 C75.9984597,97.4785931 75.8830639,97.1167899 75.8050816,96.8287873 C75.7663159,96.684336 75.7361147,96.5583348 75.7153795,96.469234 C75.6950951,96.3796832 75.6851783,96.3283828 75.6851783,96.3283828 L75.4638528,96.3720332 L75.3173543,96.5425847 L75.4638528,96.3720332" id="Fill-86" fill="url(#linearGradient-34)" transform="translate(76.070360, 97.209269) scale(-1, 1) translate(-76.070360, -97.209269) "></path>
                    <path d="M82.3686732,93.906011 L83.0276911,94.7776688 C83.1029688,94.8766697 83.2440582,94.8964699 83.3436771,94.8217692 C83.4428454,94.7470686 83.462679,94.6057673 83.3878521,94.5067664 L82.7288342,93.6346586 C82.6535565,93.5356577 82.5124671,93.5158575 82.4128482,93.5905582 C82.3136799,93.6657088 82.2938463,93.8065601 82.3686732,93.906011" id="Fill-87" fill="url(#linearGradient-35)" transform="translate(82.878263, 94.206164) scale(-1, 1) translate(-82.878263, -94.206164) "></path>
                    <path d="M81.5233007,93.3934564 L82.2652593,94.3101146 C82.3436924,94.4064155 82.4856832,94.4217156 82.5821468,94.3434149 C82.6790612,94.2651142 82.6943872,94.123813 82.6159542,94.0270621 L81.8739956,93.1108539 C81.7955626,93.014103 81.6540225,92.9992529 81.5571081,93.0771036 C81.4601937,93.1554043 81.4453184,93.2971555 81.5233007,93.3934564" id="Fill-88" fill="url(#linearGradient-36)" transform="translate(82.069722, 93.710371) scale(-1, 1) translate(-82.069722, -93.710371) "></path>
                    <path d="M80.6710936,92.8413014 L81.4468595,93.8034101 C81.5248418,93.900161 81.6668327,93.9154611 81.7637471,93.8376104 C81.8606615,93.7593097 81.8759875,93.6180084 81.7980052,93.5212575 L81.0222392,92.5591489 C80.944257,92.462398 80.8022661,92.4470979 80.7053517,92.5249486 C80.6084373,92.6027993 80.5931113,92.7445506 80.6710936,92.8413014" id="Fill-89" fill="url(#linearGradient-33)" transform="translate(81.234549, 93.181279) scale(-1, 1) translate(-81.234549, -93.181279) "></path>
                    <path d="M79.4477184,92.5100985 L79.2263929,92.5532988 C79.2277452,92.5591489 79.329618,93.0762035 79.5139808,93.6058583 C79.6068383,93.8709107 79.7190787,94.1391131 79.860168,94.3569151 C79.9313888,94.465816 80.0102726,94.5634669 80.1076378,94.6417676 C80.2041014,94.7187183 80.3280617,94.7785688 80.4696018,94.7785688 C80.5606563,94.7790188 80.6526122,94.7529186 80.7332991,94.7079182 C80.8189444,94.6611178 80.8928698,94.5927172 80.9406508,94.5094664 C80.9884319,94.4262157 81.0078148,94.3330648 81.0078148,94.2466641 C81.0033071,94.014462 80.8960251,93.8106101 80.762148,93.6018083 C80.3560091,92.9866527 79.6009783,92.347197 79.5946676,92.3390969 L79.1006296,91.9160931 L79.2263929,92.5532988 L79.4477184,92.5100985 L79.3007691,92.68065 L79.3553116,92.7283504 C79.4788211,92.8381514 79.7930041,93.125704 80.0697736,93.4420568 C80.2081583,93.5995583 80.3366262,93.7651597 80.4258776,93.9127611 C80.5169321,94.0590124 80.5597547,94.1904136 80.5570501,94.2466641 L80.5493871,94.2853644 L80.5155798,94.3137147 L80.4696018,94.3285648 C80.4565296,94.3285648 80.4330899,94.3245148 80.3889149,94.2898645 C80.3122849,94.2313639 80.2077075,94.0837626 80.1189069,93.8970109 C79.9818745,93.6166584 79.8669295,93.2548552 79.7889472,92.9668526 C79.7497307,92.8224013 79.7195294,92.6964001 79.699245,92.6072993 C79.6789606,92.5177485 79.6690438,92.4664481 79.668593,92.4664481 L79.4477184,92.5100985 L79.3007691,92.68065 L79.4477184,92.5100985" id="Fill-90" fill="url(#linearGradient-37)" transform="translate(80.054222, 93.347334) scale(-1, 1) translate(-80.054222, -93.347334) "></path>
                    <path d="M47.1076093,90.8797338 L30.260281,90.8797338 C29.8865971,90.8797338 29.584134,90.5773311 29.584134,90.2047277 C29.584134,89.8316744 29.8865971,89.5297217 30.260281,89.5297217 L47.1076093,89.5297217 C47.4808425,89.5297217 47.7837563,89.8316744 47.7837563,90.2047277 C47.7837563,90.5773311 47.4808425,90.8797338 47.1076093,90.8797338" id="Fill-91" fill="url(#linearGradient-38)" transform="translate(38.683945, 90.204728) scale(-1, 1) translate(-38.683945, -90.204728) "></path>
                    <path d="M47.1076093,93.5451078 L30.260281,93.5451078 C29.8865971,93.5451078 29.584134,93.243155 29.584134,92.8701017 C29.584134,92.4974983 29.8865971,92.1950956 30.260281,92.1950956 L47.1076093,92.1950956 C47.4808425,92.1950956 47.7837563,92.4974983 47.7837563,92.8701017 C47.7837563,93.243155 47.4808425,93.5451078 47.1076093,93.5451078" id="Fill-92" fill="url(#linearGradient-38)" transform="translate(38.683945, 92.870102) scale(-1, 1) translate(-38.683945, -92.870102) "></path>
                    <path d="M47.1076093,96.2109317 L30.260281,96.2109317 C29.8865971,96.2109317 29.584134,95.908979 29.584134,95.5359256 C29.584134,95.1633223 29.8865971,94.8609196 30.260281,94.8609196 L47.1076093,94.8609196 C47.4808425,94.8609196 47.7837563,95.1633223 47.7837563,95.5359256 C47.7837563,95.908979 47.4808425,96.2109317 47.1076093,96.2109317" id="Fill-93" fill="url(#linearGradient-38)" transform="translate(38.683945, 95.535926) scale(-1, 1) translate(-38.683945, -95.535926) "></path>
                    <g id="Group-10" transform="translate(14.305696, 35.131814)">
                        <g id="Group-3" transform="translate(0.556771, 0.000000)">
                            <mask id="mask-40" fill="white">
                                <use xlink:href="#path-39"></use>
                            </mask>
                            <g id="Clip-2"></g>
                            <path d="M15.1886102,0.0545275305 L11.6250338,0.0545275305 C11.4934919,0.0545275305 11.3828912,0.0955140447 11.2930766,0.177100408 C11.2027966,0.258996103 11.1333027,0.365019709 11.0842072,0.49555789 L9.89474548,3.51007734 L7.79441793,8.83314287 L5.50515397,14.6350546 C5.42309538,14.8802004 5.28410768,15.0027733 5.08749282,15.0027733 C4.90701046,15.0027733 4.81704075,14.8802004 4.81704075,14.6350546 L4.56652162,8.3686806 L4.42838708,4.91359479 L4.25178272,0.49555789 C4.25178272,0.365019709 4.21455388,0.258996103 4.14040642,0.177100408 C4.06633652,0.0955140447 3.96341427,0.0545275305 3.83171721,0.0545275305 L0.519125272,0.0545275305 C0.370520118,0.0545275305 0.246889316,0.0996126961 0.148232866,0.189319029 C0.0491886165,0.279180028 1.55120203e-05,0.397576921 1.55120203e-05,0.544587041 L1.55120203e-05,0.569101616 L0.357955381,6.06817716 L0.71597281,11.5697274 L0.955400844,15.2483057 C1.28890928,15.2239458 1.62288308,15.2971028 1.91194958,15.4714115 C2.06738002,15.2956335 2.25926371,15.1555834 2.47821588,15.059613 C2.7378871,14.9457015 3.0250146,14.901931 3.30865189,14.9330188 C3.8377669,14.9910186 4.30149875,15.3059961 4.55442224,15.7614104 C5.05228053,15.5952217 5.6071455,15.6783547 6.03419142,15.9908576 C6.46340902,16.3047524 6.70694774,16.8087319 6.69771809,17.3291833 C7.01765351,17.393215 7.30540149,17.5543771 7.53156674,17.7838242 C7.78588632,17.6205742 8.02880456,17.4229109 8.2579171,17.1836425 C8.60189615,16.8245078 8.89685721,16.3506109 9.14256762,15.7622611 L10.5106502,12.4841906 L12.4573312,7.81977064 L15.4834162,0.569101616 C15.5162241,0.471043314 15.5326668,0.397576921 15.5326668,0.34854777 C15.5326668,0.152585832 15.4178779,0.0545275305 15.1886102,0.0545275305" id="Fill-1" fill="url(#linearGradient-41)" mask="url(#mask-40)"></path>
                        </g>
                        <path d="M2.59564063,17.2006897 C2.55353047,17.1668135 2.50752495,17.136525 2.46319847,17.1046485 C2.46427305,17.1034722 2.46528047,17.1022372 2.46628789,17.1010609 C2.36890395,17.0371903 2.27172149,16.9730256 2.17393458,16.9095667 C2.07614767,16.8461665 1.97567431,16.7857659 1.88023805,16.719778 C1.77654094,16.6480853 1.71434954,16.6583775 1.69352953,16.7796494 C1.6569266,16.9933748 1.65941157,17.2064533 1.73140852,17.4135918 C1.81630046,17.6579586 2.06701373,17.8049317 2.35715071,17.7847589 C2.56743286,17.7700557 2.69107689,17.6523714 2.76549165,17.4912246 C2.83466783,17.3413697 2.69302457,17.2790282 2.59564063,17.2006897" id="Fill-4" fill="url(#linearGradient-42)"></path>
                        <path d="M4.67736676,18.8139185 C4.76233137,18.5557593 4.88286501,18.3212817 4.94334292,18.0471155 C5.15733763,17.3387126 4.82908928,16.8418365 4.43635225,16.6818391 C4.22990409,16.6433199 4.07607066,16.7692566 3.94857097,16.9794678 C3.89637843,17.0656427 3.87896332,17.1560569 3.92065403,17.2598468 C4.08509485,17.6695247 4.24916625,18.0793488 4.41339598,18.4890999 C4.41350152,18.4894653 4.41360707,18.4897577 4.41376539,18.4901231 C4.45382013,18.5944978 4.4938221,18.6987994 4.53387685,18.8031741 C4.57767848,18.9161005 4.63615101,18.9390512 4.67736676,18.8139185" id="Fill-6" fill="url(#linearGradient-43)"></path>
                        <path d="M7.20137893,19.8651882 C7.03392532,19.6649627 6.91234331,19.4379898 6.71356637,19.2563988 C6.24067323,18.726901 5.57293712,18.8532224 5.15623297,19.1926993 C4.97734857,19.3907698 4.98016916,19.6053197 5.07554942,19.8291235 C5.11466647,19.9207113 5.18198935,19.9779457 5.30260642,19.9795936 C5.77846861,19.9858051 6.25433079,19.9926505 6.73019297,19.9991789 L6.73138059,19.9992422 C6.85132963,20.0027917 6.97120444,20.0063411 7.09107925,20.0097637 C7.22134569,20.0131864 7.28258205,19.9622268 7.20137893,19.8651882" id="Fill-8" fill="url(#linearGradient-44)"></path>
                    </g>
                </g>
            </g>
        </g>
    </g>
</svg>