<?xml version="1.0" encoding="UTF-8"?>
<svg width="182px" height="166px" viewBox="0 0 182 166" version="1.1" xmlns="http://www.w3.org/2000/svg" xmlns:xlink="http://www.w3.org/1999/xlink">
    <!-- Generator: Sketch 53.2 (72643) - https://sketchapp.com -->
    <title>Group 9</title>
    <desc>Created with Sketch.</desc>
    <defs>
        <linearGradient x1="35.0825731%" y1="55.2101871%" x2="0.582401246%" y2="62.5181809%" id="linearGradient-1">
            <stop stop-color="#DFE8FA" offset="0%"></stop>
            <stop stop-color="#C7D3EE" offset="100%"></stop>
        </linearGradient>
        <linearGradient x1="16.4026111%" y1="30.7045206%" x2="72.6181864%" y2="65.1373491%" id="linearGradient-2">
            <stop stop-color="#1ED290" offset="0%"></stop>
            <stop stop-color="#1DCF8E" offset="39%"></stop>
            <stop stop-color="#1AC687" offset="60%"></stop>
            <stop stop-color="#17BB7E" offset="100%"></stop>
        </linearGradient>
        <linearGradient x1="35.0825731%" y1="57.4191225%" x2="0.582401246%" y2="67.8254476%" id="linearGradient-3">
            <stop stop-color="#DFE8FA" offset="0%"></stop>
            <stop stop-color="#C7D3EE" offset="100%"></stop>
        </linearGradient>
        <linearGradient x1="40.8711864%" y1="1.66776318%" x2="56.6677966%" y2="77.8307675%" id="linearGradient-4">
            <stop stop-color="#182030" offset="0%"></stop>
            <stop stop-color="#283550" offset="100%"></stop>
        </linearGradient>
        <linearGradient x1="49.9483826%" y1="57.4191225%" x2="49.8290048%" y2="67.8254476%" id="linearGradient-5">
            <stop stop-color="#DFE8FA" offset="0%"></stop>
            <stop stop-color="#C7D3EE" offset="100%"></stop>
        </linearGradient>
        <linearGradient x1="49.7114844%" y1="1.66776318%" x2="50.2107353%" y2="77.8307675%" id="linearGradient-6">
            <stop stop-color="#182030" offset="0%"></stop>
            <stop stop-color="#283550" offset="100%"></stop>
        </linearGradient>
        <linearGradient x1="40.8711864%" y1="47.857851%" x2="56.6677966%" y2="51.2334966%" id="linearGradient-7">
            <stop stop-color="#182030" offset="0%"></stop>
            <stop stop-color="#283550" offset="100%"></stop>
        </linearGradient>
        <linearGradient x1="40.8711864%" y1="1.6844471%" x2="56.6677966%" y2="77.8211605%" id="linearGradient-8">
            <stop stop-color="#182030" offset="0%"></stop>
            <stop stop-color="#283550" offset="100%"></stop>
        </linearGradient>
        <linearGradient x1="40.8711864%" y1="1.66776318%" x2="56.6677966%" y2="77.8307675%" id="linearGradient-9">
            <stop stop-color="#182030" offset="0%"></stop>
            <stop stop-color="#283550" offset="100%"></stop>
        </linearGradient>
        <linearGradient x1="40.8720593%" y1="1.66776318%" x2="56.6671591%" y2="77.8307675%" id="linearGradient-10">
            <stop stop-color="#182030" offset="0%"></stop>
            <stop stop-color="#283550" offset="100%"></stop>
        </linearGradient>
    </defs>
    <g id="Page-1" stroke="none" stroke-width="1" fill="none" fill-rule="evenodd">
        <g id="FATTORINI" transform="translate(-586.000000, -656.000000)">
            <g id="Group-9" transform="translate(574.000000, 633.147675)">
                <path d="M109.163072,165.560783 C139.857604,165.560783 167.000007,188.885796 183.465876,165.560783 C193.94008,150.723369 203.127355,132.438997 200.094093,113.057734 C197.793371,98.3570866 179.395661,103.235722 165.119878,86.0007172 C143.224149,59.5662305 144.6,22 109.163072,22 C75.3477565,22 86.4139512,55.3244289 64.7680025,79.7307973 C47.7103632,98.9637279 23.5261343,93.0370611 18.2320501,113.057734 C13.2970901,131.720305 24.1190067,149.927929 34.1771619,164.579545 C50.5692638,188.457759 78.0401853,165.560783 109.163072,165.560783 Z" id="Oval" fill="url(#linearGradient-1)" fill-rule="nonzero" opacity="0.2" transform="translate(108.840810, 98.963728) rotate(15.000000) translate(-108.840810, -98.963728) "></path>
                <g id="Group-5" transform="translate(55.000000, 57.852325)">
                    <path d="M109,58.1177419 C109,86.1460666 86.2783249,108.867742 58.25,108.867742 C30.2216753,108.867742 7.5,86.1460666 7.5,58.1177419 C7.5,30.089417 30.2216753,7.36774194 58.25,7.36774194 C86.2783249,7.36774194 109,30.089417 109,58.1177419 Z" id="Path" fill="url(#linearGradient-2)" fill-rule="nonzero"></path>
                    <path d="M101.5,58.1177419 C101.5,82.0042219 82.13648,101.367742 58.25,101.367742 C34.3635203,101.367742 15,82.0042219 15,58.1177419 C15,34.231262 34.3635203,14.8677419 58.25,14.8677419 C82.13648,14.8677419 101.5,34.231262 101.5,58.1177419 Z" id="Path" fill="url(#linearGradient-3)" fill-rule="nonzero"></path>
                    <path d="M22.5,21.8677419 L22.5,25.8677419 L19,25.8677419 C20.0855755,24.461828 21.2548582,23.1258065 22.5,21.8677419 Z" id="Path" fill="#FF9811" fill-rule="nonzero"></path>
                    <polygon id="Path" fill="#FF9811" fill-rule="nonzero" points="53 58.117289 58.2504529 52.8677419 63.5 58.117289 58.2504529 63.3677419"></polygon>
                    <path d="M52.4999595,26.2461898 C52.4999595,40.745647 40.7456472,52.4999595 26.2461897,52.4999595 C22.6229278,52.5063692 19.0390392,51.7518663 15.7261855,50.2877278 C13.2612319,49.224648 10.9821572,47.77516 8.97503303,45.9932878 C1.59848554,39.5488811 -1.57335663,29.5315736 0.74875415,20.0160472 C3.07086493,10.5005207 10.5005208,3.07086492 20.0160473,0.748754147 C29.5315738,-1.57335662 39.5488811,1.59848553 45.9923724,8.97503299 C47.77516,10.9821571 49.2246479,13.2612319 50.2868122,15.7261857 C51.7518663,19.0399548 52.5063692,22.6238435 52.4999595,26.2461898 Z" id="Path" fill="url(#linearGradient-4)" fill-rule="nonzero"></path>
                    <g id="Group-4" transform="translate(19.500000, 18.000000)" stroke="url(#linearGradient-5)" stroke-linecap="square" stroke-width="5.5">
                        <path d="M0.5,0.367741935 L0.5,17" id="Line"></path>
                        <path d="M13.5,0.367741935 L13.5,17" id="Line-Copy"></path>
                    </g>
                    <polygon id="Path" fill="url(#linearGradient-6)" fill-rule="nonzero" points="56.5 29.8677419 60.5 29.8677419 60.5 52.3677419 56.5 52.3677419"></polygon>
                    <polygon id="Path" fill="url(#linearGradient-7)" fill-rule="nonzero" points="34 56.3677419 53 56.3677419 53 60.3677419 34 60.3677419"></polygon>
                    <g id="Group" transform="translate(21.000000, 20.367742)" fill-rule="nonzero">
                        <polygon id="Path" fill="url(#linearGradient-4)" points="35.7526162 0.226933713 39.5158561 0.226933713 39.5158561 3.99017359 35.7526162 3.99017359"></polygon>
                        <polygon id="Path" fill="url(#linearGradient-4)" points="0.00183740187 35.9777125 3.76507728 35.9777125 3.76507728 39.7409524 0.00183740187 39.7409524"></polygon>
                        <polygon id="Path" fill="url(#linearGradient-8)" points="9.69383402 63.1390064 12.3554809 60.4782782 15.0162091 63.1390064 12.3554809 65.7997346"></polygon>
                        <polygon id="Path" fill="url(#linearGradient-4)" points="35.7526162 71.7284913 39.5158561 71.7284913 39.5158561 75.4917312 35.7526162 75.4917312"></polygon>
                        <polygon id="Path" fill="url(#linearGradient-8)" points="60.2531821 63.1390064 62.9139103 60.4782782 65.5755575 63.1390064 62.9139103 65.7997346"></polygon>
                        <polygon id="Path" fill="url(#linearGradient-4)" points="71.503395 35.9777125 75.2666349 35.9777125 75.2666349 39.7409524 71.503395 39.7409524"></polygon>
                        <polygon id="Path" fill="url(#linearGradient-9)" points="60.2531821 12.5796583 62.9139103 9.9189301 65.5755575 12.5796583 62.9139103 15.2413052"></polygon>
                        <path d="M37.6342362,45.0642462 C37.1353498,45.0642462 36.6566758,44.8657941 36.3038721,44.5129904 L30.9805783,39.1896966 C30.2464892,38.4546888 30.2464892,37.2639762 30.9805783,36.5289684 L36.3038721,31.2056743 C37.0388798,30.4715855 38.2295925,30.4715855 38.9646003,31.2056743 L44.2878943,36.5289684 C45.0219834,37.2639762 45.0219834,38.4546888 44.2878943,39.1896966 L38.9646003,44.5129904 C38.6117965,44.8657941 38.1331228,45.0642462 37.6342362,45.0642462 Z" id="Shape" fill="url(#linearGradient-10)"></path>
                    </g>
                </g>
            </g>
        </g>
    </g>
</svg>