<?xml version="1.0" encoding="UTF-8"?>
<svg width="21px" height="29px" viewBox="0 0 21 29" version="1.1" xmlns="http://www.w3.org/2000/svg" xmlns:xlink="http://www.w3.org/1999/xlink">
    <!-- Generator: Sketch 52.5 (67469) - http://www.bohemiancoding.com/sketch -->
    <title>001-account copy 2</title>
    <desc>Created with Sketch.</desc>
    <g id="Page-1" stroke="none" stroke-width="1" fill="none" fill-rule="evenodd">
        <g id="REGISTRATI" transform="translate(-432.000000, -528.000000)" fill-rule="nonzero" stroke="#788696">
            <g id="001-account-copy-2" transform="translate(433.000000, 528.000000)">
                <g id="001-account-copy">
                    <path d="M8.30014829,27.7132468 L8.26245345,27.7132468 C7.84832993,27.6758622 7.43732592,27.6193877 7.02996145,27.5470048 C7.00656467,27.5427626 6.98316789,27.5401112 6.96029101,27.5356038 C6.56202525,27.4629558 6.16791905,27.3728087 5.7777122,27.2675486 L5.68334512,27.2428907 C5.30275701,27.1376306 4.92632834,27.0154017 4.5553589,26.8796506 C4.51688415,26.8655982 4.47814938,26.8531368 4.43967469,26.8385541 C4.07598427,26.7022728 3.71879293,26.5495529 3.36706091,26.3843715 C3.32338686,26.3644861 3.27971282,26.3453961 3.23603877,26.324185 C2.89106579,26.1613898 2.55285192,25.9779138 2.22113715,25.7848929 C2.17434353,25.7578487 2.12703002,25.7308045 2.08023633,25.7040255 C1.75372085,25.5096788 1.43474439,25.3012798 1.12174707,25.0812146 C1.07443349,25.047542 1.02660001,25.01493 0.979546441,24.9812574 C0.672008356,24.7588059 0.372269242,24.5225673 0.0803290307,24.275458 L0,24.2038706 L0,19.6257202 C0.00389948495,16.3284549 2.62356228,13.656652 5.85648148,13.6526749 L13.3101852,13.6526749 C16.5431044,13.656652 19.1627672,16.3284549 19.1666667,19.6257202 L19.1666667,24.2044008 L19.0959563,24.2645874 C18.7982969,24.51806 18.4928385,24.7577454 18.1790613,24.9841738 C18.137467,25.0138694 18.0953528,25.0422392 18.0540184,25.0714045 C17.7373816,25.2957118 17.4129458,25.5067623 17.0807111,25.705086 C17.0391168,25.729744 16.9964826,25.7530762 16.9551482,25.7774689 C16.6184941,25.9728762 16.2761208,26.1574127 15.9269884,26.3236547 C15.8869538,26.3427447 15.8466593,26.360509 15.8061049,26.3780082 C15.4515132,26.5447804 15.0912024,26.6982958 14.7249123,26.8356376 C14.6885173,26.8494248 14.6518622,26.861356 14.6183268,26.8743479 C14.2455377,27.0106291 13.8675492,27.1339187 13.4848814,27.239709 L13.3931139,27.2630412 C13.0023872,27.3683013 12.6080209,27.4589787 12.2092353,27.5318919 C12.1863584,27.5361341 12.1634815,27.5390507 12.1406046,27.5427626 C11.7327203,27.6154106 11.3211964,27.6718852 10.9068129,27.7095348 L10.869118,27.7095348 C10.4432961,27.7469194 10.0172142,27.7670699 9.58593295,27.7670699 C9.1546518,27.7670699 8.72519036,27.7506313 8.30014829,27.7132468 Z" id="Shape" stroke-width="1.5"></path>
                    <path d="M9.58333333,0.620576132 C6.64287424,0.620576132 4.25925926,3.05163311 4.25925926,6.05061728 C4.25925926,9.04960145 6.64287424,11.4806584 9.58333333,11.4806584 C12.5237924,11.4806584 14.9074074,9.04960145 14.9074074,6.05061728 C14.9042878,3.05295886 12.5224926,0.623757796 9.58333333,0.620576132 Z M9.58333333,10.3946502 C7.2309141,10.3946502 5.32407407,8.44985762 5.32407407,6.05061728 C5.32407407,3.65137695 7.2309141,1.70658436 9.58333333,1.70658436 C11.9357526,1.70658436 13.8425926,3.65137695 13.8425926,6.05061728 C13.839993,8.44853194 11.9344528,10.3919989 9.58333333,10.3946502 Z" id="Shape" stroke-width="0.7" fill="#788696"></path>
                </g>
            </g>
        </g>
    </g>
</svg>